<?xml version="1.0" encoding="utf-8" ?>
<svg xmlns="http://www.w3.org/2000/svg" xmlns:xlink="http://www.w3.org/1999/xlink" width="340" height="340">
	<path fill="#F9F9EE" transform="scale(0.332031 0.332031)" d="M0 0L714.615 0L1024 0L1024 831.184L1024 1024L465.283 1024L0 1024L0 234.578L0 0Z"/>
	<path fill="#B3B1A7" transform="scale(0.332031 0.332031)" d="M0 0L714.615 0L246.672 153.755L96.6188 203.037L33.0352 224.01C22.1563 227.555 10.6079 230.355 0 234.578L0 0Z"/>
	<path fill="#B3B1A7" transform="scale(0.332031 0.332031)" d="M1024 831.184L1024 1024L465.283 1024C494.74 1014.82 523.459 1003.57 552.729 993.873L858.917 889.328L980.751 846.641C995.195 841.576 1009.51 836.103 1024 831.184Z"/>
	<path transform="scale(0.332031 0.332031)" d="M797.474 48.7255L798.119 48.7345C823.269 49.2234 849.382 59.5295 866.928 77.824C885.436 97.1231 894.516 119.722 893.944 146.574C893.423 171.058 881.916 196.243 864.148 213.001C843.445 232.528 818.247 240.009 790.201 239.254C780.822 249.295 760.399 281.405 749.409 285.913C744.713 287.84 739.951 287.862 735.306 285.934C728.534 296.322 720.046 305.955 712.254 315.613L671.796 365.331L631.87 414.884C625.254 423.21 619.087 431.638 612.087 439.68C612.8 444.053 615.739 448.99 615.359 453.357C614.986 457.631 599.861 471.279 596.071 474.664C598.546 483.002 601.723 491.23 604.533 499.466C610.536 517.058 616.546 534.851 621.649 552.723C610.308 563.781 596.768 573.364 584.515 583.449C554.317 608.302 523.651 632.665 493.703 657.811C434.38 707.176 374.764 756.188 314.857 804.843C265.284 845.852 216.602 888.058 166.087 927.903C152.259 939.057 138.512 950.312 124.848 961.667C119.013 966.49 113.327 971.768 107.303 976.321C106.647 976.816 106.062 976.984 105.261 977.095C104.06 976.618 104.005 976.65 103.372 975.538C103.684 972.266 149.307 891.984 154.533 882.908C181.502 836.074 207.258 788.488 233.62 741.308L343.839 544.052C360.927 512.992 378.458 482.135 395.263 450.924L411.992 419.548C414.586 414.669 416.899 408.954 420.238 404.602C427.882 403.095 438.74 404.588 446.747 404.848C468.447 405.491 490.137 406.404 511.814 407.587C517.142 401.237 521.324 393.928 527.478 388.294C533.657 387.318 538.218 388.277 544.195 389.83C550.998 380.562 559.397 372.03 566.949 363.339L602.528 321.797L643.419 273.944C654.104 261.299 664.667 248.425 675.897 236.256C677.029 235.03 677.7 234.389 679.312 233.87C679.46 233.822 679.612 233.789 679.763 233.749C677.738 228.903 674.537 225.028 674.415 219.493C674.362 217.132 674.83 214.772 675.995 212.706C679.499 206.494 685.362 201.164 689.947 195.714C697.032 187.292 703.805 178.24 711.427 170.314C708.203 162.35 706.251 153.929 705.643 145.36C704.094 121.737 711.903 98.4527 727.38 80.5392C746.756 58.4379 768.816 50.5039 797.474 48.7255Z"/>
	<path fill="#F9F9EE" transform="scale(0.332031 0.332031)" d="M790.724 54.6929C790.872 54.6688 791.019 54.6363 791.167 54.6206C813.913 52.2264 837.299 60.5465 855.122 74.4025C873.601 88.8215 885.54 110.037 888.276 133.316C891 157.145 884.024 181.068 868.918 199.697C854.065 218.433 832.374 230.497 808.622 233.233C803.563 234.165 797.676 233.884 792.506 233.959C788.278 218.392 778.463 202.777 766.965 191.668C752.903 178.083 736.262 169.17 716.432 169.548C714.102 162.979 712.332 156.366 711.601 149.418C709.163 126.243 715.535 103.806 730.256 85.6196C745.873 66.3259 766.382 57.2703 790.724 54.6929Z"/>
	<path transform="scale(0.332031 0.332031)" d="M794.786 80.6822C809.607 79.1166 823.43 82.5279 835.775 90.9425C849.874 100.553 859.068 114.806 862.183 131.567C865.308 148.383 861.898 164.487 852.144 178.538C841.228 194.266 824.534 204.43 805.818 207.863C798.085 209.046 790.341 208.238 782.626 207.316C769.836 186.894 764.087 179.267 741.207 169.958C739.48 164.456 737.781 158.913 737.007 153.183C734.667 135.875 739.485 118.902 750.13 105.096C761.053 90.9301 777.275 83.0255 794.786 80.6822Z"/>
	<path fill="#F9F9EE" transform="scale(0.332031 0.332031)" d="M793.819 85.6685C806.501 84.5687 818.789 86.8952 829.741 93.5303C843.633 101.946 852.889 114.37 856.632 130.204C860.074 144.914 857.49 160.39 849.456 173.184C839.523 189.249 823.662 198.505 805.605 202.809C798.933 203.8 792.51 203.531 785.814 202.895C782.746 198.536 780.305 193.754 777.2 189.404C769.972 179.276 758.298 169.413 746.058 166.239C744.355 161.561 742.935 156.857 742.193 151.922C739.888 136.605 744.677 120.815 753.951 108.532C763.676 95.6507 777.945 87.8464 793.819 85.6685Z"/>
	<path transform="scale(0.332031 0.332031)" d="M845.695 73.3241C851.252 74.0335 857.272 79.6479 861.002 83.5219C875.577 98.6585 885.32 122.363 884.728 143.461C884.134 164.638 871.477 192.442 856.091 206.924C840.252 221.81 819.203 229.883 797.473 229.406L796.479 228.859C799.181 227.461 803.89 227.708 807.004 227.167C832.205 222.528 854.5 207.994 868.916 186.809C879.669 171.109 886.147 154.357 882.417 135.17C877.801 111.429 866.132 87.2393 845.695 73.3241Z"/>
	<path transform="scale(0.332031 0.332031)" d="M792.431 59.211C803.069 58.4767 819.48 59.8295 828.649 65.5917C816.727 62.866 805.748 61.2057 793.466 62.2097C771.964 63.9415 752.062 74.2496 738.242 90.813C730.66 99.5713 728.673 107.102 724.035 117.132L723.829 117.571C725.95 104.623 731.513 93.8701 740.063 83.938C752.708 69.249 773.411 60.7226 792.431 59.211Z"/>
	<path transform="scale(0.332031 0.332031)" d="M790.676 66.6774C797.101 65.7369 804.908 66.5173 811.185 68.0079C807.294 68.5995 802.905 67.817 798.881 68.0871C774.649 69.7139 757.895 77.8031 741.88 95.9505C739.01 99.6142 735.61 103.165 733.636 107.411C733.545 107.607 733.463 107.807 733.376 108.006L732.938 107.761C734.494 103.127 737.214 99.0654 740.162 95.2107C753.294 78.0385 769.343 69.589 790.676 66.6774Z"/>
	<path transform="scale(0.332031 0.332031)" d="M791.972 74.1937C794.946 74.0427 797.915 73.9096 800.89 74.1161C804.937 74.3968 819.827 76.2891 822.334 79.1347C819.009 79.4165 814.029 77.3532 810.545 76.7935C793.573 74.0676 779.21 77.3196 764.139 85.4229C757.31 89.4547 750.692 94.9718 745.866 101.316C745.752 101.466 745.65 101.623 745.542 101.776L745.608 101.324L745.232 101.751C746.02 99.5093 747.958 97.136 749.432 95.272C759.79 82.1779 775.79 76.0587 791.972 74.1937Z"/>
	<path fill="#424242" transform="scale(0.332031 0.332031)" d="M479.902 533.072C494.364 532.652 509.941 536.073 524.261 538.159C542.881 540.871 566.695 543.823 584.822 548.237C575.801 555.368 566.275 561.914 557.017 568.738C548.225 575.219 539.614 582.021 531.01 588.751C485.737 624.353 440.989 660.616 396.779 697.529C371.483 718.588 346.428 739.936 321.62 761.568C314.418 767.756 306.963 773.639 299.769 779.841C286.359 791.4 273.37 803.411 259.717 814.696C245.682 826.624 231.645 838.452 217.214 849.903C212.427 853.7 207.665 858.346 202.426 861.447C202.939 859.713 243.689 812.234 249.004 805.962L387.795 641.779L449.305 568.498C457.633 558.51 465.454 548.028 474.05 538.273C475.835 536.246 477.548 534.46 479.902 533.072Z"/>
	<path fill="#424242" transform="scale(0.332031 0.332031)" d="M433.168 438.817C437.142 450.609 442.724 461.85 447.792 473.193L469.96 523.286C460.416 533.309 452.162 544.629 443.415 555.344L392.763 617.463C335.478 689.105 277.54 760.222 218.956 830.806C213.786 837.305 208.376 845.746 201.999 851.023C208.559 840.668 213.459 829.385 219.472 818.728L270.075 728.003C279.3 711.384 289.281 695.162 298.938 678.792L335.111 617.011C341.383 606.4 348.1 596.054 354.111 585.29C369.942 556.867 385.486 528.284 400.74 499.546C411.462 479.248 421.459 458.583 433.168 438.817Z"/>
	<path fill="#91908E" transform="scale(0.332031 0.332031)" d="M434.7 698.486L435.067 698.604C434.776 699.715 286.121 822.145 274.01 832.176C267.65 837.444 261.557 843.032 255.232 848.343L196.86 896.631C174.991 914.512 152.112 931.303 130.639 949.612L130.281 949.77C130.339 949.494 130.364 949.208 130.456 948.941C131.56 945.738 185.013 881.615 190.306 876.565C196.989 870.19 204.592 864.787 211.768 858.986C225.791 847.652 239.9 836.343 253.607 824.631L335.975 754.588L362.14 732.448C367.062 728.235 372.32 722.818 377.854 719.459C382.445 716.674 388.165 715.348 393.208 713.532C406.989 708.567 421.205 704.142 434.7 698.486Z"/>
	<path fill="#F9F9EE" transform="scale(0.332031 0.332031)" d="M313.825 608.956C315.291 610.765 312.152 636.434 311.984 640.868C311.887 643.421 312.036 645.842 312.401 648.37C285.891 692.994 260.123 738.054 235.108 783.532C222.155 807.505 208.862 831.293 195.232 854.888C191.1 862.055 187.665 870.125 183.139 876.974C178.057 884.666 170.885 891.771 164.991 898.912C158.954 906.225 153.257 913.815 147.257 921.159C139.51 930.64 131.457 939.85 124.026 949.587L123.573 949.771C124.169 946.293 129.407 938.846 131.318 935.394L164.806 875.87L238.926 742.771L287.087 656.96C296.004 641.022 305.442 625.162 313.825 608.956Z"/>
	<path fill="#424242" transform="scale(0.332031 0.332031)" d="M558.716 429.83C559.609 432.942 559.881 436.495 560.413 439.707C561.461 446.432 562.722 453.122 564.196 459.767C570.246 487.147 577.552 514.234 586.092 540.942C567.516 535.141 548.67 530.71 529.655 526.594C515.809 523.939 501.893 521.769 488.004 519.368C495.627 511.777 502.208 503.062 509.108 494.819C515.829 486.79 522.762 478.953 529.217 470.702C539.535 457.513 549.172 443.589 558.716 429.83Z"/>
	<path fill="#424242" transform="scale(0.332031 0.332031)" d="M550.137 428.247L550.23 428.563C547.409 431.442 544.371 434.081 541.595 437.014C526.408 453.059 512.565 470.218 499.219 487.804C492.89 496.144 486.37 504.427 480.785 513.294C476.104 504.452 471.79 495.435 467.045 486.618C457.588 469.747 449.4 451.828 439.023 435.526C453.221 434.541 467.441 433.921 481.671 433.665C496.193 433.35 510.753 433.443 525.231 432.074C533.608 431.282 541.85 429.66 550.137 428.247Z"/>
	<path fill="#424242" transform="scale(0.332031 0.332031)" d="M715.547 173.634C719.764 173.047 724.049 173.141 728.236 173.912C747.4 177.378 765 193.487 775.696 208.998C780.785 216.401 785.02 225.295 787.259 234.009C779.472 244.404 771.91 254.932 763.456 264.802C761.85 258.989 760.261 253.685 757.166 248.451C755.391 245.448 752.891 242.308 751.588 239.109C750.418 237.446 749.228 235.797 748.017 234.164C734.854 216.405 714.991 202.975 693.002 199.654C697.879 193.435 710.07 177.992 715.547 173.634Z"/>
	<path fill="#424242" transform="scale(0.332031 0.332031)" d="M775.696 208.998C780.785 216.401 785.02 225.295 787.259 234.009C779.472 244.404 771.91 254.932 763.456 264.802C761.85 258.989 760.261 253.685 757.166 248.451C755.391 245.448 752.891 242.308 751.588 239.109C757.364 234.954 772.582 215.676 775.696 208.998Z"/>
	<path fill="#91908E" transform="scale(0.332031 0.332031)" d="M553.961 601.668C552.797 604.125 541.038 612.475 537.989 614.894C523.09 626.586 508.353 638.483 493.781 650.581C486.167 657.036 478.499 663.428 470.778 669.757C466.468 673.336 461.997 677.883 457.024 680.48C451.884 683.164 445.531 684.612 440.009 686.495C426.322 691.163 412.432 695.626 399.012 701.003L399.087 700.465L468.61 643.955C478.462 635.897 496.928 618.245 506.908 613.57C517.755 608.489 541.316 604.775 553.961 601.668Z"/>
	<path fill="#F9F9EE" transform="scale(0.332031 0.332031)" d="M421.376 412.353C426.072 417.037 429.349 427.565 431.431 433.818C419.149 455.635 407.946 478.015 396.119 500.076C384.104 522.489 371.46 544.532 360.006 567.25C358.813 569.655 357.676 572.031 356.104 574.22C357.288 561.999 355.235 541.287 357.731 530.971C359.213 524.841 374.807 499.094 379.047 491.5C393.6 465.432 408.557 439.321 421.376 412.353Z"/>
	<path fill="#91908E" transform="scale(0.332031 0.332031)" d="M562.144 428.05C568.39 433.071 580.395 447.913 584.054 455.05C587.982 462.71 590.194 471.585 592.972 479.726C600.778 502.607 607.694 525.752 614.885 548.828C607.018 547.321 599.16 545.298 591.439 543.159C587.062 534.138 584.454 523.558 581.673 513.946C573.527 485.788 566.4 457.066 562.144 428.05Z"/>
	<path fill="#F9F9EE" transform="scale(0.332031 0.332031)" d="M424.493 409.564C441.316 409.293 458.443 410.585 475.268 411.226C493.739 411.929 512.13 412.057 530.555 413.749C534.113 417.43 536.561 421.975 539.985 425.789C540.136 425.958 540.291 426.123 540.444 426.29C539.644 427.173 537.347 427.315 536.12 427.557C518.201 430.14 499.865 430.249 481.789 430.548C466.283 430.832 450.779 431.199 435.277 431.649C432.105 424.088 428.301 416.817 424.493 409.564Z"/>
	<path fill="#F9F9EE" transform="scale(0.332031 0.332031)" d="M578.788 360.388C585.03 358.681 592.757 358.065 598.978 360.169C609.595 363.761 618.795 379.637 623.419 389.107C625.447 394.308 630.447 406.08 628.699 411.333C626.684 410.324 625.123 408.548 623.357 407.163C620.383 404.831 617.166 402.74 613.968 400.73C608.997 398.084 603.915 395.94 598.611 394.058C593.498 381.834 585.304 371.77 578.788 360.388Z"/>
	<path fill="#B3B1A7" transform="scale(0.332031 0.332031)" d="M623.419 389.107C625.447 394.308 630.447 406.08 628.699 411.333C626.684 410.324 625.123 408.548 623.357 407.163C620.383 404.831 617.166 402.74 613.968 400.73C618.758 398.263 620.95 393.595 623.419 389.107Z"/>
	<path fill="#F9F9EE" transform="scale(0.332031 0.332031)" d="M637.091 289.642C641.082 289.576 644.747 289.916 648.605 290.993C654.145 292.541 659.447 295.125 664.489 297.855C677.094 304.68 683.245 310.489 690.269 322.891C687.534 325.988 684.738 329.03 681.882 332.016C679.531 334.601 677.137 337.147 674.701 339.653L669.043 336.118C664.514 327.404 660.292 317.752 654.212 310.022C651.438 306.496 648.608 302.883 645.485 299.661C642.965 297.061 637.888 293.855 636.295 290.786L637.091 289.642Z"/>
	<path fill="#F9F9EE" transform="scale(0.332031 0.332031)" d="M470.908 527.27C472.516 528.339 473.55 530.25 474.628 531.824C410.57 609.1 345.971 685.927 280.837 762.298C280.214 763.028 279.855 763.431 279.021 763.936C281.415 759.157 288.572 751.87 292.205 747.413L327.388 704.186C374.768 644.842 422.61 585.868 470.908 527.27Z"/>
	<path fill="#F9F9EE" transform="scale(0.332031 0.332031)" d="M341.131 559.806C341.233 560.09 341.362 560.366 341.438 560.658C342.576 565.031 341.951 571.098 342.104 575.668C342.319 582.065 343.576 589.483 342.399 595.772C341.452 600.835 319.467 636.278 315.131 643.739L314.626 643.861C314.574 643.728 314.506 643.6 314.47 643.461C313.694 640.498 315.671 632.164 315.995 628.565C316.601 621.834 316.199 608.455 317.635 602.733C318.456 599.462 321.148 595.514 322.723 592.492C328.55 581.32 334.258 570.38 341.131 559.806Z"/>
	<path fill="#F9F9EE" transform="scale(0.332031 0.332031)" d="M660.889 260.09C665.883 260.023 670.862 259.965 675.795 260.862C692.125 263.832 704.216 278.968 713.285 291.92C710.855 295.543 708.113 298.917 705.397 302.325C703.099 305.01 700.626 307.488 698.125 309.982C690.081 303.455 687.828 293.303 682.492 284.722C676.628 275.291 669.216 267.364 660.889 260.09Z"/>
	<path fill="#F9F9EE" transform="scale(0.332031 0.332031)" d="M530.256 392.434C553.481 394.898 579.395 414.147 594.309 431.365C592.55 431.182 590.728 429.91 589.147 429.106C580.075 424.493 575.266 424.362 565.316 425.752C550.437 413.541 537.594 410.097 518.699 408.316C522.238 402.767 526.154 397.576 530.256 392.434Z"/>
	<path fill="#F9F9EE" transform="scale(0.332031 0.332031)" d="M606.945 325.23C609.166 325.705 611.582 327.072 613.604 328.114C628.195 335.635 638.91 349.941 645.291 364.747C647.313 369.439 647.19 375.013 650.275 379.162C650.906 380.009 651.388 380.861 651.902 381.781L651.331 381.8L649.46 379.2C641.655 369.156 628.512 363.481 616.932 359.15C613.068 349.6 606.412 341.317 599.874 333.475L606.945 325.23Z"/>
	<path fill="#F9F9EE" transform="scale(0.332031 0.332031)" d="M694.794 236.704C696.666 236.476 700.682 237.585 702.617 238.136C715.387 241.773 726.306 255.801 732.329 266.931C732.256 267.055 732.185 267.181 732.111 267.304C731.988 267.51 731.859 267.713 731.737 267.92C729.585 271.58 726.646 274.67 723.868 277.864C723.407 278.463 723.723 278.252 722.85 278.372C716.239 273.048 708.232 269.251 700.899 265C697.508 255.763 692.781 245.58 686.828 237.668C689.561 237.529 692.108 237.243 694.794 236.704Z"/>
	<path fill="#B3B1A7" transform="scale(0.332031 0.332031)" d="M591.124 548.32C598.609 548.983 606.495 551.246 613.834 552.92C608.765 557.812 597.186 567.889 591.28 571.032C586.315 573.674 579.306 574.988 573.903 576.718C566.514 579.085 559.244 581.833 551.92 584.395C545.924 586.49 539.974 588.735 534.005 590.906C545.835 581.435 558.277 572.453 570.571 563.578C577.5 558.577 584.618 553.881 591.124 548.32Z"/>
	<defs>
		<linearGradient id="gradient_0" gradientUnits="userSpaceOnUse" x1="748.31262" y1="248.02766" x2="694.99268" y2="251.18756">
			<stop offset="0" stop-color="#A1A19F"/>
			<stop offset="1" stop-color="#CAC8C8"/>
		</linearGradient>
	</defs>
	<path fill="url(#gradient_0)" transform="scale(0.332031 0.332031)" d="M697.998 217.299C720.627 225.344 736.192 241.78 746.344 263.18C748.754 268.262 750.33 273.346 751.732 278.776C748.103 280.816 743.043 283.275 738.789 282.769L737.877 282.142C738.623 280.217 739.382 278.297 740.153 276.383C735.027 258.332 721.939 241.655 705.506 232.542C701.509 230.348 697.291 228.584 692.922 227.28C693.959 223.894 695.499 219.863 697.998 217.299Z"/>
	<path fill="#F9F9EE" transform="scale(0.332031 0.332031)" d="M616.097 323.179C622.213 322.774 628.386 323.901 634.232 325.628C646.87 329.362 660.487 337.814 666.951 349.653C663.473 355.083 659.119 360.091 655.097 365.135C651.426 370.048 651.388 373.352 651.173 379.255C650.769 376.057 650.412 372.813 649.789 369.65C645.814 349.446 632.634 334.389 616.097 323.179Z"/>
	<path fill="#91908E" transform="scale(0.332031 0.332031)" d="M565.316 425.752C575.266 424.362 580.075 424.493 589.147 429.106C590.728 429.91 592.55 431.182 594.309 431.365C598.126 434.108 608.122 448.042 610.896 452.472C605.899 458.443 599.773 463.931 594.348 469.548C592.742 464.479 591.226 459.22 588.888 454.433C583.688 443.788 573.47 434.22 565.316 425.752Z"/>
	<path fill="#F9F9EE" transform="scale(0.332031 0.332031)" d="M633.103 294.286C635.406 295.172 637.568 297.989 639.283 299.784C649.607 310.59 658.45 322.031 665.496 335.26C660.772 332.418 656.017 329.627 651.233 326.886C637.606 320.113 625.973 317.401 610.792 319.006C618.568 311.096 625.498 302.373 633.103 294.286Z"/>
	<path fill="#B3B1A7" transform="scale(0.332031 0.332031)" d="M587.089 574.004L587.549 574.057L587.493 574.649C581.101 580.086 564.067 595.075 557.745 598.185C551.078 601.464 542.059 602.102 534.78 603.703C527.023 605.481 519.298 607.393 511.607 609.437L510.916 609.384C512.082 607.337 516.092 605.219 518.089 603.794C522.112 600.923 525.731 597.563 530.089 595.173C536.342 591.741 543.488 589.591 550.197 587.208C562.496 582.84 574.948 578.794 587.089 574.004Z"/>
	<path fill="#F9F9EE" transform="scale(0.332031 0.332031)" d="M658.253 264.523C670.299 275.607 680.475 288.565 688.385 302.896C684.305 301.109 680.311 299.068 676.295 297.138C664.421 291.038 653.009 285.79 639.453 285.32C646.433 279.073 652.312 271.737 658.253 264.523Z"/>
	<defs>
		<linearGradient id="gradient_1" gradientUnits="userSpaceOnUse" x1="718.67908" y1="259.13263" x2="725.03375" y2="209.19456">
			<stop offset="0" stop-color="#A4A3A4"/>
			<stop offset="1" stop-color="#E4E3E2"/>
		</linearGradient>
	</defs>
	<path fill="url(#gradient_1)" transform="scale(0.332031 0.332031)" d="M684.908 209.516C686.461 207.63 688.204 206.019 689.993 204.367C698.456 204.615 706.596 207.255 714.029 211.221C729.299 219.37 741.15 231.809 750.131 246.44C752.26 249.907 754.586 253.485 755.781 257.399C758.005 261.271 760.203 265.6 758.97 270.18C758.481 272 757.066 273.684 755.971 275.192C754.441 270.164 752.821 265.254 750.906 260.355C746.507 251.449 741.37 243.261 734.663 235.899C721.604 221.563 704.775 210.376 684.908 209.516Z"/>
	<path fill="#91908E" transform="scale(0.332031 0.332031)" d="M755.781 257.399C758.005 261.271 760.203 265.6 758.97 270.18C758.481 272 757.066 273.684 755.971 275.192C754.441 270.164 752.821 265.254 750.906 260.355C751.553 260.897 751.915 261.41 752.413 262.087C753.256 263.232 754.349 263.395 755.653 263.772C756.205 262.565 756.531 261.479 756.25 260.164C756.047 259.211 755.899 258.37 755.781 257.399Z"/>
	<path fill="#F9F9EE" transform="scale(0.332031 0.332031)" d="M553.948 387.264C569.77 388.894 582.141 395.743 593.184 406.911C592.794 411.473 591.468 414.236 587.96 417.196C575.993 406.166 563.642 398.924 549.066 391.931L553.948 387.264Z"/>
	<path fill="#F9F9EE" transform="scale(0.332031 0.332031)" d="M554.924 429.067L555.135 429.189C554.367 430.405 553.334 431.342 552.476 432.49C547.3 439.418 542.437 446.652 537.246 453.603C525.54 469.276 513.516 484.263 500.79 499.126C495.312 505.524 489.892 512.38 483.844 518.238C483.587 517.813 483.429 517.233 483.254 516.766C484.838 509.646 519.987 467.001 526.603 459.319C534.644 449.981 545.71 436.833 554.924 429.067Z"/>
	<path fill="#F9F9EE" transform="scale(0.332031 0.332031)" d="M573.842 362.884C581.951 371.555 588.083 383.04 594.723 392.889C590.576 391.889 586.451 390.803 582.349 389.632C574.233 386.199 566.386 382.614 557.662 381.022C563.3 375.198 568.545 369.017 573.842 362.884Z"/>
	<path fill="#F9F9EE" transform="scale(0.332031 0.332031)" d="M606.566 362.364C618.598 363.018 635.75 372.515 644.504 380.569C642.388 383.338 639.987 385.9 637.664 388.498C635.102 391.14 632.721 394.01 630.282 396.77C624.983 382.38 618.084 372.513 606.566 362.364Z"/>
	<path fill="#F9F9EE" transform="scale(0.332031 0.332031)" d="M484.133 522.481C495.125 524.784 506.44 526.109 517.504 528.156C534.582 531.394 551.55 535.19 568.38 539.536C572.288 540.519 581.26 542.113 584.462 544.355L582.39 544.018C573.782 541.931 564.643 540.796 555.893 539.367C530.596 535.237 505.191 532.4 479.848 528.73C481.386 526.746 482.729 524.564 484.133 522.481Z"/>
	<path fill="#F9F9EE" transform="scale(0.332031 0.332031)" d="M353.818 535.845C354.86 540.267 353.93 573.523 353.061 578.841C352.648 581.37 351.409 583.481 350.084 585.624C349.128 587.169 346.541 592.259 345.04 592.612C344.923 584.297 342.413 560.922 344.364 554.583C346.317 548.235 350.726 541.788 353.818 535.845Z"/>
	<path fill="#F9F9EE" transform="scale(0.332031 0.332031)" d="M438.383 442.357C442.715 446.629 475.017 509.922 480.29 520.697C479.695 522.453 478.911 524.096 478.124 525.772L477.018 527.029L476.257 526.857C472.127 522.241 458.084 487.433 454.727 479.742C449.294 467.294 443.37 454.986 438.383 442.357Z"/>
	<path fill="#B3B1A7" transform="scale(0.332031 0.332031)" d="M600.819 409.459C597.314 404.918 594.104 399.905 589.092 396.926C593.067 397.838 597.132 398.366 601.149 399.073C607.745 401.602 614.211 404.825 619.786 409.206C616.205 414.182 612.692 419.161 609.384 424.323C606.817 419.155 603.476 414.531 600.819 409.459Z"/>
	<path fill="#F9F9EE" transform="scale(0.332031 0.332031)" d="M600.819 409.459C597.314 404.918 594.104 399.905 589.092 396.926C593.067 397.838 597.132 398.366 601.149 399.073C601.152 401.51 601.916 407.487 600.819 409.459Z"/>
	<path fill="#F9F9EE" transform="scale(0.332031 0.332031)" d="M680.113 239.576C680.707 239.622 681.32 239.649 681.901 239.79C685.325 240.615 693.959 258.902 695.683 262.639L686.763 258.982C679.502 256.082 673.559 255.513 665.769 255.642C670.604 250.358 675.617 245.15 680.113 239.576Z"/>
	<path fill="#F9F9EE" transform="scale(0.332031 0.332031)" d="M597.219 336.458C602.791 343.245 607.879 350.415 612.447 357.915C607.88 356.489 603.215 355.403 598.488 354.666C592.662 353.908 587.143 354.239 581.31 354.639C586.794 348.734 591.584 342.236 597.219 336.458Z"/>
	<path fill="#B3B1A7" transform="scale(0.332031 0.332031)" d="M449.704 686.518L450.142 686.651C448.959 689.055 438.68 695.326 435.9 696.553C430.762 698.821 424.499 700.161 419.109 701.998C407.418 705.983 395.839 710.244 384.185 714.331L383.819 714.349L383.911 713.816C386.652 711.447 389.505 708.693 392.706 706.971C398.553 703.825 406.055 701.96 412.344 699.787C424.86 695.542 437.314 691.119 449.704 686.518Z"/>
	<path fill="#91908E" transform="scale(0.332031 0.332031)" d="M593.184 406.911C600.319 414.851 605.303 424.615 610.548 433.845L606.845 439.229C600.707 431.797 594.692 424.098 587.96 417.196C591.468 414.236 592.794 411.473 593.184 406.911Z"/>
	<path fill="#91908E" transform="scale(0.332031 0.332031)" d="M668.301 351.783C669.927 353.342 670.966 355.339 672.12 357.254C666.809 364.501 660.981 371.328 655.208 378.206C654.842 378.72 654.524 378.918 654.009 379.268L653.481 378.602C653.189 376.936 653.222 375.567 653.47 373.889C653.512 373.604 653.564 373.32 653.606 373.035C654.406 367.593 664.642 356.701 668.301 351.783Z"/>
	<path fill="#F9F9EE" transform="scale(0.332031 0.332031)" d="M682.487 226.467C681.405 224.115 679.639 221.004 680.28 218.339C680.611 216.96 681.305 216.131 682.547 215.488C686.37 213.509 694.122 216.159 697.998 217.299C695.499 219.863 693.959 223.894 692.922 227.28C689.444 226.671 686.01 226.571 682.487 226.467Z"/>
	<path fill="#B3B1A7" transform="scale(0.332031 0.332031)" d="M718.978 280.733C722.281 282.776 725.557 284.974 729.173 286.422C726.565 290.079 723.8 293.623 720.888 297.042C717.943 292.019 714.404 287.433 710.768 282.896C713.481 282.086 716.232 281.422 718.978 280.733Z"/>
	<path fill="#91908E" transform="scale(0.332031 0.332031)" d="M646.122 382.371C647.443 383.055 648.561 384.749 649.535 385.902C643.987 392.654 638.622 399.555 633.447 406.597L632.829 406.91C631.538 404.978 631.37 401.591 630.936 399.276C636.065 393.7 641.222 388.152 646.122 382.371Z"/>
	<path fill="#91908E" transform="scale(0.332031 0.332031)" d="M714.334 294.279C716.148 295.592 716.97 298.426 717.808 300.434C715.416 303.662 708.377 314.224 705.235 314.932L700.378 311.216C705.542 306.45 710.4 300.087 714.334 294.279Z"/>
	<path fill="#91908E" transform="scale(0.332031 0.332031)" d="M620.947 410.799C622.955 412.023 624.584 413.881 626.253 415.524C622.026 420.147 618.185 425.225 614.248 430.102C613.879 430.456 613.392 430.791 612.988 431.108C611.472 430.023 610.955 428.164 610.174 426.488C613.7 421.214 617.291 415.984 620.947 410.799Z"/>
	<path fill="#91908E" transform="scale(0.332031 0.332031)" d="M691.291 324.859C692.526 325.977 693.274 327.898 694.042 329.381C691.159 333.398 687.03 340.745 682.775 343.17C681.982 343.622 681.314 343.206 680.478 343.009C678.981 342.064 677.546 340.991 676.095 339.975C681.973 335.67 686.471 330.271 691.291 324.859Z"/>
	<path fill="#686868" transform="scale(0.332031 0.332031)" d="M534.808 414.449C539.177 415.614 543.547 417.197 547.8 418.734C549.968 419.518 554.722 420.87 555.717 422.982L554.841 423.595C551.227 424.478 547.552 425.169 543.91 425.929C540.449 422.447 537.66 418.424 534.808 414.449Z"/>
	<path fill="#F9F9EE" transform="scale(0.332031 0.332031)" d="M693.313 266.333C702.062 270.124 711.231 275.166 718.978 280.733C716.232 281.422 713.481 282.086 710.768 282.896C705.63 276.596 699.705 271.317 693.313 266.333Z"/>
	<path fill="#B3B1A7" transform="scale(0.332031 0.332031)" d="M733.173 270.324C734.88 271.723 735.499 274.413 736.213 276.426C735.208 278.172 733.944 280.967 732.325 282.172C731.04 283.127 730.679 282.892 729.154 282.689C727.925 282.206 726.896 281.919 726.102 280.792C725.922 277.385 731.05 272.904 733.173 270.324Z"/>
	<path fill="#F9F9EE" transform="scale(0.332031 0.332031)" d="M683.873 306.172C689.151 307.582 694.288 311.051 698.742 314.107L695.943 317.416L693.36 320.586C690.45 315.6 687.17 310.905 683.873 306.172Z"/>
	<path fill="#B3B1A7" transform="scale(0.332031 0.332031)" d="M672.327 343.419C674.709 345.125 677.236 346.608 679.74 348.127L674.535 354.834C672.865 352.251 671.098 349.702 669.71 346.954C670.925 345.997 671.56 344.731 672.327 343.419Z"/>
	<path fill="#B3B1A7" transform="scale(0.332031 0.332031)" d="M700.324 315.889C701.415 316.642 702.066 316.849 702.609 318.106C701.75 321.308 699.026 323.715 696.895 326.172C695.392 325.243 694.538 323.561 693.602 322.1L700.324 315.889Z"/>
	<path fill="#F9F9EE" transform="scale(0.332031 0.332031)" d="M662.213 338.274C665.682 339.82 669.177 341.271 672.327 343.419C671.56 344.731 670.925 345.997 669.71 346.954C667.037 344.177 664.609 341.292 662.213 338.274Z"/>
</svg>
