<?xml version="1.0" encoding="utf-8" ?>
<svg xmlns="http://www.w3.org/2000/svg" xmlns:xlink="http://www.w3.org/1999/xlink" width="1918" height="1074">
	<path fill="#A48C85" d="M281.704 0L317.073 0L344.305 0L805.198 0L813.89 0L821.994 0L823.558 0L847.417 0L911.286 0L939.375 0L1050.51 0L1074.44 0L1340.37 0L1381.94 0L1541.26 0L1571.29 0L1577.59 0L1650.74 0L1707.6 0L1716.04 0L1759.43 0C1770.93 12.6944 1853.2 230.975 1853.5 243.321L1852.6 245.175L1879.53 325.007C1882.06 332.497 1890.2 349.584 1890.15 356.6C1892.77 360.763 1897.12 373.433 1896.34 378.221C1901.77 389.19 1915.15 427.808 1913.6 438.676C1915.02 440.755 1915.43 442.957 1916.6 444.926C1918.9 449.393 1919.21 480.07 1917.61 485.437C1917.38 486.209 1917.1 486.947 1916.77 487.68C1918.99 493.099 1919.2 522.554 1917.21 527.563C1916.93 528.27 1916.9 528.289 1916.6 528.884C1917.7 531.232 1917.9 533.109 1917.96 535.648C1918.54 561.981 1918.03 588.433 1918.04 614.781L1918.04 768.589C1918.04 784.967 1919.79 865.185 1917.13 873.078C1917.07 873.263 1917 873.444 1916.93 873.627C1918.15 877.601 1918.54 880.781 1916.9 884.791C1918.68 889.502 1919 990.847 1917.2 995.156C1917 995.637 1916.94 995.733 1916.71 996.144C1917.12 998.025 1917.12 998.971 1916.67 1000.84C1918.77 1005.53 1919.18 1064.59 1917.08 1069.87C1917.03 1070.01 1916.96 1070.14 1916.9 1070.28L1916.36 1074L0 1074L0 1070.42L0 992.111L0 984.457L0 910.762L0 894.83L0 514.007L0 476.37L0 206.555L0 189.981L1.85616 189.737C3.31949 189.873 5.14414 190.238 6.58393 190.083C16.9893 193.796 27.006 198.791 37.213 203.038C62.4222 213.527 87.3691 223.755 113.409 232.023C115.387 241.406 113.964 252.865 113.659 262.516C113.058 281.564 111.785 302.31 113.717 321.216L112.89 323.099C110.314 342.6 113.25 394.887 116.617 414.676C122.775 407.29 140.838 353.438 145.348 341.516C150.255 328.542 155.828 315.802 160.871 302.872C167.168 286.726 172.94 270.508 179.65 254.514L177.799 253.483C176.364 249.525 184.996 233.25 186.841 228.338C196.47 202.7 205.323 176.797 215.654 151.418C222.204 135.325 229.74 119.609 236.661 103.672L281.704 0Z"/>
	<path fill="#1E1B1C" d="M281.704 0L317.073 0L344.305 0L805.198 0L813.89 0L821.994 0L823.558 0L847.417 0L911.286 0L939.375 0L1050.51 0L1074.44 0L1340.37 0L1381.94 0L1541.26 0L1571.29 0L1577.59 0L1650.74 0L1707.6 0L1716.04 0L1759.43 0C1770.93 12.6944 1853.2 230.975 1853.5 243.321L1852.6 245.175C1852.03 241.622 1850.65 237.925 1847.85 235.555C1827.86 246.45 1803.82 252.27 1782.25 259.263C1760.92 266.179 1737.91 275.511 1715.51 277.784C1716.15 282.622 1714.84 289.125 1713.72 293.883C1715.66 298.124 1716.2 304.841 1714.46 309.266C1714.21 309.894 1714.05 310.108 1713.69 310.733C1717.04 320.544 1709.7 372.718 1708.1 385.273C1707.33 391.34 1705.14 399.76 1705.78 405.672C1705.96 407.352 1707.74 408.99 1708.82 410.176L1708.97 411.116C1707.75 412.012 1706.81 412.657 1705.32 413.078C1704.59 409.86 1704.11 405.826 1702.36 403.027C1701.13 404.21 1699.77 405.265 1698.45 406.348C1695.73 406.674 1693.63 405.009 1691.37 403.677L1694.11 403.317L1696.38 401.957C1697.21 395.519 1689.5 356.046 1685.88 350.167C1687.69 344.208 1683.46 332.597 1681.63 326.719C1681.9 326.097 1682.05 325.887 1682.07 325.115C1682.2 320.611 1673.84 287.879 1671.2 285.195C1670.49 284.474 1667.78 284.789 1666.7 284.791C1661.72 289.369 1643.45 291.581 1636.47 292.048C1634.9 292.645 1633.65 293.032 1631.96 293.118C1624.43 297.913 1563.46 306.252 1550.06 309.543C1536.69 312.828 1524.7 321.111 1511.25 324.863L1510.49 322.095C1506 323.64 1501.04 327.663 1496.46 327.742C1499.44 325.242 1503.43 323.36 1506.8 321.386L1506.25 321.501C1507.54 320.601 1508.12 319.977 1509.71 319.839L1509.84 319.518C1505.57 318.582 1501.26 319.48 1496.88 318.597L1496.06 318.426C1479.42 319.803 1462.86 323.041 1446.28 325.093C1428.61 327.28 1400.45 327.562 1384.42 333.695C1374.74 337.401 1368.11 345.715 1359.16 350.099L1358.04 348.171C1345.89 352.698 1328.47 373.444 1318.88 374.688L1318.32 373.249C1309.69 369.688 1186.46 376.959 1166.65 377.731C1146.81 378.504 1126.91 378.555 1107.05 379.194C1088.64 379.785 1070.13 381.011 1051.72 380.888C1039.7 380.808 1027.72 379.731 1015.71 379.444C978.479 378.553 941.025 378.038 903.842 375.984C888.185 375.12 872.481 373.473 856.81 372.451C844.855 371.671 832.803 371.555 820.879 370.591C812.637 369.925 804.447 368.59 796.202 368.003L655.098 359.344C646.258 358.744 594.886 354.777 590.03 356.25C589.568 356.39 588.391 357.685 587.96 358.063C586.149 357.566 583.496 353.511 581.896 352.114C577.424 348.21 571.608 344.112 566.024 342.006C557.17 337.936 546.212 327.198 539.851 319.854C541.813 318.603 547.385 319.245 549.905 319.232C543.824 317.308 535.638 317.731 529.211 317.379C520.079 314.902 510.568 313.895 501.236 312.4C476.247 308.398 451.066 305.551 425.997 302.044C415.996 300.645 405.712 299.643 395.923 297.158C393.327 296.534 389.062 297.763 386.34 298.188C384.466 296.805 382.421 295.661 380.148 295.082C362.746 290.649 343.491 289.354 325.679 286.412C295.537 281.146 265.501 275.287 235.59 268.838C222.172 265.931 206.92 263.481 194.27 258.235C189.429 256.871 184.554 255.63 179.65 254.514L177.799 253.483C176.364 249.525 184.996 233.25 186.841 228.338C196.47 202.7 205.323 176.797 215.654 151.418C222.204 135.325 229.74 119.609 236.661 103.672L281.704 0Z"/>
	<path fill="#787880" d="M317.073 0L344.305 0L805.198 0L813.89 0L821.994 0L823.558 0L847.417 0L911.286 0L939.375 0L1050.51 0L1074.44 0L1340.37 0L1381.94 0C1384.81 8.52745 1380.64 30.583 1379.85 40.1006C1377.23 71.5677 1375.16 102.951 1371.74 134.365C1369.77 152.534 1366.78 170.572 1364.61 188.714C1363.9 194.586 1363.32 213.642 1361.19 217.986C1360.82 218.729 1360.12 219.372 1359.55 219.956C1347.51 221.987 1334.22 224.046 1322.06 224.63C1287.02 229.062 1251.77 233.362 1216.49 235.438C1193.34 236.8 1169.96 237.152 1146.77 237.955C1135.7 238.338 1124.65 239.391 1113.57 239.585C1096.38 239.888 1079.13 239.391 1061.96 239.864C1041.07 240.44 1020.25 243.052 999.337 243.46C976.96 243.896 954.514 243.399 932.129 243.449C913.341 243.49 894.501 244.17 875.721 243.578C837.451 242.371 799.491 239.397 761.329 236.485C728.751 233.998 696.096 231.732 663.701 227.374C653.076 225.944 642.681 222.852 632.09 221.132L565.348 209.666C555.23 207.999 544.959 207.136 534.899 205.157C518.258 201.883 501.906 197.286 485.347 193.66C476.482 191.719 467.431 190.486 458.611 188.394C449.483 186.228 440.481 183.028 431.43 180.509C407.896 173.961 383.72 168.746 362.218 156.642C348.759 149.066 341.311 137.1 330.52 126.741C326.307 114.407 324.471 101.107 322.948 88.2009C322.829 82.892 324.237 77.4849 324.895 72.2104C324.744 66.684 325.062 60.5423 322.839 55.4036L322.267 55.3026L319.329 51.0687C319.102 34.0694 317.628 17.0125 317.073 0Z"/>
	<path fill="#4E4B4E" d="M805.198 0L813.89 0L821.994 0L823.558 0L847.417 0L911.286 0L939.375 0L1050.51 0L1074.44 0C1079.37 7.27852 1075.68 28.2096 1074.05 36.6508C1068.82 63.7466 1051.67 85.2669 1028.98 100.545C999.877 120.141 950.489 129.303 916.032 122.162C909.241 120.755 902.272 116.788 895.425 116.332C887.219 115.787 878.429 116.858 870.179 117.021C845.516 117.505 786.562 118.509 765.813 108.53C763.76 107.543 762.153 105.556 760.717 103.834C763.513 88.6955 774.536 47.787 785.457 37.2182C790.717 23.8916 797.865 12.2524 805.198 0Z"/>
	<path fill="#787880" d="M847.417 0L911.286 0L939.375 0L1050.51 0C1052.01 8.35095 1054.1 18.1423 1053.65 26.5665C1047.3 46.5748 1046.47 55.2432 1030.2 70.4773C1024.52 75.7941 1018.75 80.435 1011.81 84.0437C982.046 99.6975 947.274 102.849 915.184 92.8013C895.988 86.6416 876.822 72.7786 866.835 54.8238C866.658 54.5058 866.474 54.0652 866.332 53.7473C854.969 35.8477 850.411 21.1684 847.417 0Z"/>
	<path fill="#4C4D56" d="M911.286 0L939.375 0C943.186 8.19195 951.638 16.411 957.34 23.4577C953.374 27.7573 948.69 31.5352 944.319 35.4218C942.99 34.9779 941.68 34.4774 940.394 33.9217C926.013 27.7863 916.924 14.0111 911.286 0Z"/>
	<path fill="#787880" d="M815.953 14.16C817.171 12.0699 818.094 9.3216 820.343 8.38504L821.343 10.9984C821.195 17.9106 823.043 24.4709 824.97 31.0523C828.893 44.4516 834.395 56.5902 842.403 68.0451C845.607 72.6266 866.786 96.7744 867.126 99.0649C844.139 100.137 808.448 95.8291 786.282 90.0934C789.527 80.3959 791.296 70.304 794.956 60.7101C799.111 49.8183 803.657 38.3186 808.725 27.8246C810.99 23.1343 813.91 19.0272 815.953 14.16Z"/>
	<path fill="#1E1B1C" d="M1053.65 26.5665C1054.56 25.2073 1055.71 23.8528 1055.96 22.2052C1060.29 31.6966 1059.73 39.5668 1056.12 49.255C1047.28 72.9528 1027.78 89.7588 1005.08 99.9658C981.822 110.425 941.497 115.598 917.2 106.362C897.901 99.0262 871.718 79.7058 863.422 60.3313C862.239 57.5685 862.344 55.8509 863.351 53.0624L866.332 53.7473C866.474 54.0652 866.658 54.5058 866.835 54.8238C876.822 72.7786 895.988 86.6416 915.184 92.8013C947.274 102.849 982.046 99.6975 1011.81 84.0437C1018.75 80.435 1024.52 75.7941 1030.2 70.4773C1046.47 55.2432 1047.3 46.5748 1053.65 26.5665Z"/>
	<path fill="#1E1B1C" d="M867.126 99.0649L869.47 96.1253C871.622 95.2606 871.703 95.3196 873.914 96.053C874.944 98.0292 875.469 99.069 874.732 101.379C874.203 103.037 872.529 104.874 870.901 105.501C863.383 108.394 816.907 107 807.548 104.99C804.338 104.301 791.568 98.9535 788.578 97.3589C786.532 96.268 786.139 93.4625 785.452 91.4083L786.282 90.0934C808.448 95.8291 844.139 100.137 867.126 99.0649Z"/>
	<path fill="#4C4D56" d="M805.198 0L813.89 0C808.548 4.60739 802.692 8.49562 798.536 14.2903C795.301 18.8014 789.069 35.5465 786.101 37.5359L785.457 37.2182C790.717 23.8916 797.865 12.2524 805.198 0Z"/>
	<path fill="#4C4D56" d="M821.994 0L823.558 0C824.234 3.19975 825.517 6.65543 824.049 9.73133L821.343 10.9984L820.343 8.38504C818.094 9.3216 817.171 12.0699 815.953 14.16L813.784 12.9083C813.286 11.7121 812.604 10.6869 812.781 9.36809C813.298 5.51746 819.014 2.14717 821.994 0Z"/>
	<path fill="#B5B5B6" d="M1340.37 0L1381.94 0C1384.81 8.52745 1380.64 30.583 1379.85 40.1006C1377.23 71.5677 1375.16 102.951 1371.74 134.365C1369.77 152.534 1366.78 170.572 1364.61 188.714C1363.9 194.586 1363.32 213.642 1361.19 217.986C1360.82 218.729 1360.12 219.372 1359.55 219.956C1347.51 221.987 1334.22 224.046 1322.06 224.63C1324.63 213.335 1323.27 201.115 1324.51 189.617C1325.71 178.514 1327.95 167.509 1329.24 156.407C1331.53 136.607 1345.64 9.71507 1340.37 0Z"/>
	<path fill="#4C4D56" d="M317.073 0L344.305 0C336.236 23.3996 331.032 48.2156 324.895 72.2104C324.744 66.684 325.062 60.5423 322.839 55.4036L322.267 55.3026L319.329 51.0687C319.102 34.0694 317.628 17.0125 317.073 0Z"/>
	<path fill="#4C4D56" d="M399.412 132.569C399.773 130.343 400.18 128.125 400.634 125.916C401.981 119.495 405.282 112.297 411.055 108.715C416.553 105.304 422.031 106.158 428.025 107.539C433.534 110.464 438.589 114.464 440.679 120.57C441.472 122.887 441.278 125.399 441.163 127.807C441.193 131.233 441.154 134.405 439.885 137.637C436.54 146.16 429.1 150.473 421.056 153.902C409.923 148.999 404.345 144.036 399.412 132.569Z"/>
	<path fill="#787880" d="M428.025 107.539C433.534 110.464 438.589 114.464 440.679 120.57C441.472 122.887 441.278 125.399 441.163 127.807L438.819 129.346C437.986 131.413 437.443 130.658 435.344 130.452C421.517 129.093 414.708 127.873 401.787 134.484L405.333 117.931C408.09 115.431 410.644 112.625 413.252 109.964C417.777 109.423 422.346 108.592 426.856 109.578L428.025 107.539Z"/>
	<path fill="#4E4B4E" d="M428.025 107.539C433.534 110.464 438.589 114.464 440.679 120.57C441.472 122.887 441.278 125.399 441.163 127.807L438.819 129.346C437.665 120.786 432.314 115.839 426.856 109.578L428.025 107.539Z"/>
	<path fill="#71695C" d="M1577.59 0L1650.74 0L1707.6 0L1716.04 0L1759.43 0C1770.93 12.6944 1853.2 230.975 1853.5 243.321L1852.6 245.175C1852.03 241.622 1850.65 237.925 1847.85 235.555C1827.86 246.45 1803.82 252.27 1782.25 259.263C1760.92 266.179 1737.91 275.511 1715.51 277.784C1716.15 282.622 1714.84 289.125 1713.72 293.883C1715.66 298.124 1716.2 304.841 1714.46 309.266C1714.21 309.894 1714.05 310.108 1713.69 310.733C1717.04 320.544 1709.7 372.718 1708.1 385.273C1707.33 391.34 1705.14 399.76 1705.78 405.672C1705.96 407.352 1707.74 408.99 1708.82 410.176L1708.97 411.116C1707.75 412.012 1706.81 412.657 1705.32 413.078C1704.59 409.86 1704.11 405.826 1702.36 403.027C1701.13 404.21 1699.77 405.265 1698.45 406.348C1695.73 406.674 1693.63 405.009 1691.37 403.677L1694.11 403.317L1696.38 401.957C1697.21 395.519 1689.5 356.046 1685.88 350.167C1687.69 344.208 1683.46 332.597 1681.63 326.719C1681.9 326.097 1682.05 325.887 1682.07 325.115C1682.2 320.611 1673.84 287.879 1671.2 285.195C1670.49 284.474 1667.78 284.789 1666.7 284.791C1661.72 289.369 1643.45 291.581 1636.47 292.048C1634.9 292.645 1633.65 293.032 1631.96 293.118C1630.75 292.831 1629.55 292.544 1628.32 292.372C1626.61 292.134 1625.4 286.032 1624.97 284.165C1619.93 262.195 1614.73 240.311 1608.18 218.722C1605.53 209.974 1601.97 201.556 1599.29 192.852C1597.48 186.982 1596.68 180.852 1594.86 174.985C1592.72 168.077 1589.61 161.49 1587.55 154.547C1586.12 149.739 1585.78 139.798 1583.11 136.151C1582.49 135.304 1581.22 134.427 1580.41 133.699C1585.93 125.153 1593.71 94.261 1592.11 84.4458C1596.39 78.3637 1592.72 67.5638 1596.85 62.8948L1598.25 63.6918C1598.76 62.7047 1598.98 61.5903 1598.87 60.4824C1598.37 54.6805 1589.05 27.1419 1585.41 24.1968L1585.76 22.9424C1584.36 16.6936 1581.55 4.86561 1577.59 0Z"/>
	<path fill="#0A0A0A" d="M1716.04 0L1759.43 0C1770.93 12.6944 1853.2 230.975 1853.5 243.321L1852.6 245.175C1852.03 241.622 1850.65 237.925 1847.85 235.555C1827.86 246.45 1803.82 252.27 1782.25 259.263C1760.92 266.179 1737.91 275.511 1715.51 277.784C1716.15 282.622 1714.84 289.125 1713.72 293.883C1711.52 286.993 1717.7 240.069 1718.28 228.354C1719.8 197.274 1720.83 165.872 1721.11 134.753C1721.32 110.808 1720.02 86.6974 1719.55 62.7441C1719.19 44.3808 1719.91 25.1736 1718.27 6.9348C1718.02 4.24591 1717.64 2.25592 1716.04 0Z"/>
	<path fill="#0A0A0A" d="M1592.11 84.4458C1596.39 78.3637 1592.72 67.5638 1596.85 62.8948L1598.25 63.6918C1605.47 74.2949 1613.14 104.284 1617.82 117.68C1630.02 152.655 1644.09 187.624 1654.42 223.21C1655.12 225.621 1655.97 228.055 1655.44 230.585C1655.38 230.872 1655.3 231.152 1655.22 231.435C1661.25 236.635 1682.13 311.531 1683.21 322.956C1683.34 324.311 1683.03 325.135 1682.14 326.193C1681.98 326.38 1681.8 326.544 1681.63 326.719C1681.9 326.097 1682.05 325.887 1682.07 325.115C1682.2 320.611 1673.84 287.879 1671.2 285.195C1670.49 284.474 1667.78 284.789 1666.7 284.791C1661.72 289.369 1643.45 291.581 1636.47 292.048C1634.9 292.645 1633.65 293.032 1631.96 293.118C1630.75 292.831 1629.55 292.544 1628.32 292.372C1626.61 292.134 1625.4 286.032 1624.97 284.165C1619.93 262.195 1614.73 240.311 1608.18 218.722C1605.53 209.974 1601.97 201.556 1599.29 192.852C1597.48 186.982 1596.68 180.852 1594.86 174.985C1592.72 168.077 1589.61 161.49 1587.55 154.547C1586.12 149.739 1585.78 139.798 1583.11 136.151C1582.49 135.304 1581.22 134.427 1580.41 133.699C1585.93 125.153 1593.71 94.261 1592.11 84.4458Z"/>
	<path fill="#1E1B1C" d="M1592.11 84.4458C1596.39 78.3637 1592.72 67.5638 1596.85 62.8948L1598.25 63.6918C1605.47 74.2949 1613.14 104.284 1617.82 117.68C1630.02 152.655 1644.09 187.624 1654.42 223.21C1655.12 225.621 1655.97 228.055 1655.44 230.585C1655.38 230.872 1655.3 231.152 1655.22 231.435C1644.32 216.658 1640.74 199.397 1635.34 182.364C1633.89 177.779 1631.63 173.365 1630.34 168.758C1629.39 165.377 1630.44 161.092 1629.23 157.973C1626.17 150.106 1620.84 143.149 1618.37 134.954C1615.96 126.975 1614.94 118.586 1612.76 110.534C1610.57 102.436 1607.44 94.8267 1604.97 86.9025C1603.65 82.6772 1602.32 73.9452 1599.14 70.9285C1597.56 75.7074 1596.21 81.4208 1592.11 84.4458Z"/>
	<path fill="#1E1B1C" d="M1636.47 292.048C1638.75 290.298 1641.84 289.004 1644.35 287.531L1643.6 287.42C1651.54 283.282 1657.95 282.999 1666.7 284.791C1661.72 289.369 1643.45 291.581 1636.47 292.048Z"/>
	<path fill="#958F76" d="M1650.74 0L1707.6 0C1708.66 1.57259 1709.18 3.02982 1709.3 4.92075C1710.17 18.0263 1701.6 77.1945 1696.92 91.1341C1696.16 93.395 1694.52 95.3085 1692.97 97.0763C1693 96.9027 1693.04 96.73 1693.07 96.5556C1693.11 96.2655 1693.15 95.9732 1693.19 95.6832C1693.23 95.4463 1693.29 95.2121 1693.32 94.9751C1693.69 92.6495 1693.38 90.7058 1692.63 88.5115C1690.5 82.2126 1687.02 76.114 1684.35 69.9916C1676.25 51.4341 1661.72 15.309 1650.74 0Z"/>
	<path fill="#787880" d="M1381.94 0L1541.26 0L1571.29 0L1577.59 0C1581.55 4.86561 1584.36 16.6936 1585.76 22.9424L1585.41 24.1968C1589.05 27.1419 1598.37 54.6805 1598.87 60.4824C1598.98 61.5903 1598.76 62.7047 1598.25 63.6918L1596.85 62.8948C1592.72 67.5638 1596.39 78.3637 1592.11 84.4458C1593.71 94.261 1585.93 125.153 1580.41 133.699C1580.55 136.487 1580.42 138.885 1578.37 141.004C1578.19 141.19 1578 141.363 1577.82 141.542C1578.98 144.59 1578.38 147.157 1577.1 150.052C1575.77 153.072 1573.91 156.277 1571.28 158.328C1563.7 163.398 1556.18 170.67 1548.1 174.583C1516.9 189.692 1481.41 196.58 1447.94 204.438C1439.85 206.339 1432.06 209.389 1423.88 210.975C1410.87 213.497 1397.44 214.85 1384.31 216.722C1376.3 217.865 1367.61 219.862 1359.55 219.956C1360.12 219.372 1360.82 218.729 1361.19 217.986C1363.32 213.642 1363.9 194.586 1364.61 188.714C1366.78 170.572 1369.77 152.534 1371.74 134.365C1375.16 102.951 1377.23 71.5677 1379.85 40.1006C1380.64 30.583 1384.81 8.52745 1381.94 0Z"/>
	<path fill="#4C4D56" d="M1541.26 0L1571.29 0L1577.59 0C1581.55 4.86561 1584.36 16.6936 1585.76 22.9424L1585.41 24.1968C1589.05 27.1419 1598.37 54.6805 1598.87 60.4824C1598.98 61.5903 1598.76 62.7047 1598.25 63.6918L1596.85 62.8948C1592.72 67.5638 1596.39 78.3637 1592.11 84.4458C1593.71 94.261 1585.93 125.153 1580.41 133.699C1580.55 136.487 1580.42 138.885 1578.37 141.004C1578.19 141.19 1578 141.363 1577.82 141.542C1578.15 140.883 1578.44 140.335 1578.49 139.582C1579.46 126.556 1549.58 10.4797 1541.26 0Z"/>
	<path fill="#4E4B4E" d="M1571.29 0L1577.59 0C1581.55 4.86561 1584.36 16.6936 1585.76 22.9424L1585.41 24.1968C1585.13 23.5674 1584.84 23.0575 1584.38 22.54C1578.19 15.6085 1577.03 6.57951 1571.29 0Z"/>
	<path fill="#4C4D56" d="M1487.79 109.409C1491.78 108.652 1496.47 107.645 1500.21 109.885C1502.08 111.002 1505.4 114.128 1506.04 116.228C1508.72 120.397 1510.03 124.078 1509.92 129.075L1508.56 131.339L1509 133.27C1508.26 135.653 1507.18 137.594 1505.74 139.616C1502.44 144.231 1497.32 148.655 1491.53 149.528C1487.12 150.193 1482.84 148.695 1479.35 146.014C1474.93 142.674 1472.03 137.699 1471.31 132.205C1470.6 126.604 1471.77 120.017 1475.43 115.581C1478.98 111.294 1482.37 109.949 1487.79 109.409Z"/>
	<path fill="#787880" d="M1487.79 109.409C1491.78 108.652 1496.47 107.645 1500.21 109.885C1502.08 111.002 1505.4 114.128 1506.04 116.228C1508.72 120.397 1510.03 124.078 1509.92 129.075L1508.56 131.339C1507.4 129.996 1505.3 129.13 1503.75 128.254C1495.78 120.408 1483.72 130.846 1476.19 126.559C1475.32 124.088 1475.3 121.882 1476.47 119.435C1478.43 115.307 1483.03 113.653 1487.02 112.23L1494.79 110.527C1493.58 109.441 1489.53 109.577 1487.79 109.409Z"/>
	<path fill="#4E4B4E" d="M1487.79 109.409C1491.78 108.652 1496.47 107.645 1500.21 109.885C1502.08 111.002 1505.4 114.128 1506.04 116.228C1508.72 120.397 1510.03 124.078 1509.92 129.075L1508.56 131.339C1507.4 129.996 1505.3 129.13 1503.75 128.254C1504.33 127.133 1504.65 126.056 1504.63 124.776C1504.56 121.478 1504.17 117.846 1501.61 115.509C1497.25 111.526 1492.45 112.106 1487.02 112.23L1494.79 110.527C1493.58 109.441 1489.53 109.577 1487.79 109.409Z"/>
	<path fill="#4C4D56" d="M330.52 126.741C341.311 137.1 348.759 149.066 362.218 156.642C383.72 168.746 407.896 173.961 431.43 180.509C440.481 183.028 449.483 186.228 458.611 188.394C467.431 190.486 476.482 191.719 485.347 193.66C501.906 197.286 518.258 201.883 534.899 205.157C544.959 207.136 555.23 207.999 565.348 209.666L632.09 221.132C642.681 222.852 653.076 225.944 663.701 227.374C696.096 231.732 728.751 233.998 761.329 236.485C799.491 239.397 837.451 242.371 875.721 243.578C894.501 244.17 913.341 243.49 932.129 243.449C954.514 243.399 976.96 243.896 999.337 243.46C1020.25 243.052 1041.07 240.44 1061.96 239.864C1079.13 239.391 1096.38 239.888 1113.57 239.585C1124.65 239.391 1135.7 238.338 1146.77 237.955C1169.96 237.152 1193.34 236.8 1216.49 235.438C1251.77 233.362 1287.02 229.062 1322.06 224.63C1334.22 224.046 1347.51 221.987 1359.55 219.956C1367.61 219.862 1376.3 217.865 1384.31 216.722C1397.44 214.85 1410.87 213.497 1423.88 210.975C1432.06 209.389 1439.85 206.339 1447.94 204.438C1481.41 196.58 1516.9 189.692 1548.1 174.583C1556.18 170.67 1563.7 163.398 1571.28 158.328C1572.62 162.734 1570.94 167.662 1568.82 171.58C1555.11 196.936 1502.23 214.118 1475.61 221.689C1437.84 232.435 1400.26 238.406 1361.48 243.905C1328.59 248.567 1295.95 251.959 1262.88 254.915C1253.21 255.78 1243.6 257.392 1233.91 258.018C1216.94 259.114 1199.91 258.977 1182.93 259.621C1168.2 260.178 1153.51 261.42 1138.78 261.98C1117.67 262.783 1096.51 262.818 1075.38 263.334C1006.59 265.017 937.866 267.255 869.052 264.415C847.065 263.507 825.154 261.536 803.183 260.358C779.076 259.065 754.825 258.519 730.758 256.794C709.915 255.301 689.24 251.99 668.347 251.223C619.736 248.413 571.857 238.71 523.918 230.854C514.385 227.651 502.733 226.454 492.793 224.114C454.728 215.152 373.775 197.485 345.817 171.651C333.925 160.662 331.226 142.141 330.52 126.741Z"/>
	<path fill="#736661" d="M566.024 342.006C557.17 337.936 546.212 327.198 539.851 319.854C541.813 318.603 547.385 319.245 549.905 319.232C584.827 322.23 619.786 327.984 654.634 332.077C676.238 334.615 698.103 335.815 719.779 337.829C744.533 340.13 769.234 343.215 794.017 345.171C933.685 354.857 1073.83 355.541 1213.59 347.216C1246.71 345.214 1279.58 342.771 1312.62 339.662C1325.04 338.493 1337.51 337.747 1349.92 336.53C1356.45 335.889 1363.28 334.436 1369.81 334.281C1371.85 334.232 1372.95 334.266 1374.58 335.559C1373.05 339.199 1361.92 346.218 1358.04 348.171C1345.89 352.698 1328.47 373.444 1318.88 374.688L1318.32 373.249C1309.69 369.688 1186.46 376.959 1166.65 377.731C1146.81 378.504 1126.91 378.555 1107.05 379.194C1088.64 379.785 1070.13 381.011 1051.72 380.888C1039.7 380.808 1027.72 379.731 1015.71 379.444C978.479 378.553 941.025 378.038 903.842 375.984C888.185 375.12 872.481 373.473 856.81 372.451C844.855 371.671 832.803 371.555 820.879 370.591C812.637 369.925 804.447 368.59 796.202 368.003L655.098 359.344C646.258 358.744 594.886 354.777 590.03 356.25C589.568 356.39 588.391 357.685 587.96 358.063C586.149 357.566 583.496 353.511 581.896 352.114C577.424 348.21 571.608 344.112 566.024 342.006Z"/>
	<path fill="#0A0A0A" d="M281.704 0L317.073 0C317.628 17.0125 319.102 34.0694 319.329 51.0687L319.4 62.3689C319.136 70.1423 316.31 77.8405 316.44 85.3591C316.591 94.1117 320.613 104.575 318.677 113.001C316.798 121.181 305.435 134.629 301.209 143.417C290.613 165.452 279.811 187.826 270.385 210.368C264.711 223.939 256.889 250.87 249.631 261.243C250.462 263.693 251.822 264.052 253.909 265.359C250.428 268.241 244.204 267.951 239.949 267.546C224.394 266.066 210.026 259.037 194.27 258.235C189.429 256.871 184.554 255.63 179.65 254.514L177.799 253.483C176.364 249.525 184.996 233.25 186.841 228.338C196.47 202.7 205.323 176.797 215.654 151.418C222.204 135.325 229.74 119.609 236.661 103.672L281.704 0Z"/>
	<path fill="#4E4B4E" d="M319.329 51.0687L322.267 55.3026L322.839 55.4036C325.062 60.5423 324.744 66.684 324.895 72.2104C324.237 77.4849 322.829 82.892 322.948 88.2009C321.258 79.6738 320.298 71.0106 319.4 62.3689L319.329 51.0687Z"/>
	<path fill="#736661" d="M1496.06 318.426C1507.53 316.742 1519.09 314.688 1530.66 313.821C1524.77 317.408 1517.17 320.388 1510.49 322.095C1506 323.64 1501.04 327.663 1496.46 327.742C1499.44 325.242 1503.43 323.36 1506.8 321.386L1506.25 321.501C1507.54 320.601 1508.12 319.977 1509.71 319.839L1509.84 319.518C1505.57 318.582 1501.26 319.48 1496.88 318.597L1496.06 318.426Z"/>
	<path fill="#1E1B1C" d="M155.527 571.039C147.022 557.522 140.805 535.191 137.043 519.643C131.248 495.69 131.438 472.624 144.888 451.109C151.61 440.355 161.846 430.764 171.441 422.609C199.551 398.72 232.055 380.539 268.31 372.324C329.344 358.494 419.316 369.637 477.014 392.493C493.599 399.063 510.755 408.649 525.832 418.197C545.519 430.666 617.943 490.952 622.627 511.912C631.892 523.025 640.908 534.342 649.669 545.856C649.68 546.189 649.684 546.522 649.703 546.854C649.809 548.628 650.814 550.573 652.032 551.85C649.284 550.473 647.23 548.136 644.285 547.076C643.115 546.225 641.957 544.591 640.974 543.489C639.676 541.515 639.335 540.687 637.191 539.589C633.989 540.653 632.656 542.73 630.832 545.525C639.62 558.994 649.601 571.711 657.49 585.754C661.254 594.111 665.413 602.304 669.108 610.68C672.569 618.527 675.315 626.653 679.348 634.242C680.05 637.417 681.16 640.21 682.433 643.186C668.843 655.86 661.932 665.298 654.231 682.253C645.289 688.436 631.753 689.159 621.085 689.516C616.794 690.076 612.093 691.11 607.782 691.027C586.211 690.709 564.312 693.139 542.746 694.157C517.92 695.328 492.854 695.219 468.109 697.645C458.333 697.562 434.937 695.859 426.929 700.372C424.877 701.689 423.085 702.595 420.742 703.282C413.085 702.531 403.936 704.094 396.119 704.162C376.938 704.33 359.483 701.833 340.92 697.364C324.132 695.183 305.387 690.758 290.024 683.61C287.976 684.071 285.896 684.497 283.813 684.013C272.094 681.295 262.339 674.248 252.041 668.459C221.862 651.494 195.299 632.204 175.341 603.183C169.699 594.978 165.666 585.875 160.141 577.663L159.633 576.916C157.645 575.053 156.257 573.784 155.527 571.039Z"/>
	<path fill="#4A3732" d="M155.527 571.039C147.022 557.522 140.805 535.191 137.043 519.643C131.248 495.69 131.438 472.624 144.888 451.109C151.61 440.355 161.846 430.764 171.441 422.609C199.551 398.72 232.055 380.539 268.31 372.324C329.344 358.494 419.316 369.637 477.014 392.493C493.599 399.063 510.755 408.649 525.832 418.197C545.519 430.666 617.943 490.952 622.627 511.912C609.055 501.626 594.531 482.399 580.108 475.46C555.843 455.929 526.409 438.906 496.187 430.316C486.63 427.6 476.579 426.029 466.817 424.18C443.721 419.805 420.331 418.007 396.899 420.513C378.935 422.433 358.422 424.861 340.971 429.489C304.263 439.222 269.563 455.737 235.923 473.039C227.062 477.596 215.063 481.988 208.711 489.983C207.45 491.6 206.25 493.263 205.113 494.97C220.965 541.617 254.679 616.694 285.983 653.612C295.95 665.367 307.259 674.789 320.08 683.278C323.767 685.758 327.392 687.089 331.605 688.452C336.689 690.985 339.002 691.819 340.92 697.364C324.132 695.183 305.387 690.758 290.024 683.61C287.976 684.071 285.896 684.497 283.813 684.013C272.094 681.295 262.339 674.248 252.041 668.459C221.862 651.494 195.299 632.204 175.341 603.183C169.699 594.978 165.666 585.875 160.141 577.663L159.633 576.916C157.645 575.053 156.257 573.784 155.527 571.039Z"/>
	<path fill="#755B53" d="M155.527 571.039C157.765 570.599 158.636 570.794 160.003 568.869C161.603 566.615 162.102 563.098 163.07 560.497C171.084 579.35 190.885 601.364 205.52 615.422C214.686 624.227 224.826 632.624 233.264 642.097C235.958 647.484 262.654 664.665 269.379 668.701C274.355 671.687 280.211 674.054 284.811 677.531C286.983 679.173 288.55 681.351 290.024 683.61C287.976 684.071 285.896 684.497 283.813 684.013C272.094 681.295 262.339 674.248 252.041 668.459C221.862 651.494 195.299 632.204 175.341 603.183C169.699 594.978 165.666 585.875 160.141 577.663L159.633 576.916C157.645 575.053 156.257 573.784 155.527 571.039Z"/>
	<path fill="#51433E" d="M233.264 642.097C238.297 643.002 245.786 649.733 250.158 652.616C257.673 657.57 265.939 661.858 273.707 666.456C294.329 678.663 306.864 686.756 331.605 688.452C336.689 690.985 339.002 691.819 340.92 697.364C324.132 695.183 305.387 690.758 290.024 683.61C288.55 681.351 286.983 679.173 284.811 677.531C280.211 674.054 274.355 671.687 269.379 668.701C262.654 664.665 235.958 647.484 233.264 642.097Z"/>
	<path fill="#5B5945" d="M536.705 614.861C536.118 615.733 535.517 616.586 534.857 617.405C532.056 620.88 528.012 623.819 524.54 626.641C506.404 641.379 485.79 648.99 462.581 651.181C433.95 653.884 404.473 641.376 382.838 623.335C361.835 605.822 348.507 578.185 346.049 551.177C343.133 519.143 350.999 490.567 371.901 465.87C378.455 458.126 391.322 446.636 400.53 442.502C405.48 440.28 411.343 439.518 416.719 439.093C450.995 436.381 485.567 445.821 517.117 458.217C525.374 461.461 534.636 464.368 541.401 470.29C547.035 475.221 550.805 481.969 554.101 488.597C567.369 515.281 564.448 531.574 566.137 559.835L553.42 558.639C546.46 561.006 542.115 564.497 538.797 571.129C538.058 572.642 537.333 574.16 536.621 575.686L542.287 586.888L551.612 588.42L555.03 588.994C548.706 597.461 542.596 606.086 536.705 614.861Z"/>
	<path fill="#958F76" d="M487.186 600.037C492.826 592.519 495.579 595.599 502.1 590.786C510.078 584.896 523.366 558.59 525.016 548.156L522.251 545.509L523.559 543.492C524.587 542.897 525.648 542.345 526.857 542.269C535.642 541.715 547.167 553.024 553.42 558.639C546.46 561.006 542.115 564.497 538.797 571.129C538.058 572.642 537.333 574.16 536.621 575.686L542.287 586.888L551.612 588.42C551.379 588.584 551.143 588.745 550.912 588.912C543.962 593.955 538.958 603.16 532.782 609.413C507.807 634.699 474.918 647.031 439.491 642.124C420.456 639.487 399.91 628.627 386.439 615.114C385.916 614.589 385.487 614.331 384.804 614.057C370.644 603.416 368.736 585.295 360.317 578.351C359.657 572.563 359.765 567.477 360.878 561.757C368.254 556.351 376.688 546.5 385.563 544.406L387.257 544.725C387.471 546.361 387.712 547.992 387.912 549.63C389.075 559.12 400.757 577.201 404.702 587.349C406.728 587.945 407.781 586.706 409.271 586.984C413.991 587.864 422.148 603.331 434.531 600.288C435.77 600.8 436.581 600.982 437.275 602.201C440.706 605.009 444.393 603.063 448.609 603.503C456.629 607.404 477.959 601.847 487.186 600.037Z"/>
	<path fill="#7E7660" d="M437.275 602.201C440.706 605.009 444.393 603.063 448.609 603.503C447.151 603.787 445.858 604.181 444.456 604.677C443.558 607.945 442.56 609.41 440.102 611.694L438.588 611.387C436.829 608.613 437.234 605.358 437.275 602.201Z"/>
	<path fill="#0A0A0A" d="M412.082 524.759C442.166 524.334 471.62 525.084 501.617 527.547L508.409 533.962L508.272 543.783C506.444 546.391 504.656 549.3 502.557 551.689C499.69 554.952 495.834 554.737 491.787 555.049C474.293 555.827 457.254 554.989 439.794 554.48C430.028 554.196 419.615 554.612 409.975 553.126C405.554 552.445 401.149 550.886 396.898 549.509C394.583 541.113 394.803 534.233 395.421 525.668L412.082 524.759Z"/>
	<path fill="#544C41" d="M441.242 458.129C442.335 458.528 443.293 459.12 444.304 459.692C446.245 464.64 445.482 468.876 444.607 473.984C443.358 473.746 442.76 473.387 441.65 472.792C439.212 468.046 440.479 463.166 441.242 458.129Z"/>
	<path fill="#544C41" d="M452.773 458.249C455.167 459.533 456.483 460.324 457.598 462.861C457.938 465.974 456.722 467.941 455.319 470.581C454.302 470.572 453.371 470.342 452.379 470.139C452.193 469.844 451.992 469.557 451.82 469.253C450.171 466.334 451.962 461.281 452.773 458.249Z"/>
	<path fill="#544C41" d="M474.131 457.518L475.311 458.664C476.924 464.323 474.79 470.325 473.273 475.802C472.843 474.891 472.425 473.977 472.073 473.032C470.185 467.959 471.936 462.192 474.131 457.518Z"/>
	<path fill="#544C41" d="M485.68 463.036C487.445 464.123 488.14 464.919 488.957 466.824C488.743 469.713 486.821 471.518 485.048 473.658C484.256 473.555 483.61 473.069 482.917 472.688C482.421 469.344 484.384 466.06 485.68 463.036Z"/>
	<path fill="#B5B5B6" d="M553.42 558.639L566.137 559.835C569.611 561.211 572.099 562.757 574.977 565.134C579.322 570.254 581.715 575.676 586.104 580.716C602.156 599.145 640.613 634.332 638.7 660.513C637.707 674.105 627.499 679.239 621.085 689.516C616.794 690.076 612.093 691.11 607.782 691.027C586.211 690.709 564.312 693.139 542.746 694.157C517.92 695.328 492.854 695.219 468.109 697.645C458.333 697.562 434.937 695.859 426.929 700.372C395.886 701.661 361.576 691.275 334.106 677.515C327.859 673.982 322.528 669.125 317.058 664.521C311.993 644.365 294.342 619.595 298.456 598.071C301.721 580.989 321.25 573.165 334.072 564.419C344.914 601.509 363.568 630.815 398.22 649.878C419.223 661.432 439.048 664.527 462.754 663.683C471.199 663.382 480.135 662.92 488.306 660.589C491.077 659.798 494.568 658.804 497.062 657.428C504.411 644.581 519.14 644.787 529.728 637.264C538.528 631.011 540.394 621.518 547.389 614.615C550.371 611.672 556.265 606.477 557.056 602.318C557.391 600.558 556.715 600.14 555.735 598.886C548.67 602.567 551.638 608.825 536.705 614.861C542.596 606.086 548.706 597.461 555.03 588.994L551.612 588.42L542.287 586.888L536.621 575.686C537.333 574.16 538.058 572.642 538.797 571.129C542.115 564.497 546.46 561.006 553.42 558.639Z"/>
	<path fill="#4C4D56" d="M555.03 588.994C559.821 588.868 564.571 588.646 569.349 588.26L569.707 588.98C566.491 594.342 565.042 600.181 561.742 605.491C547.067 629.105 523.489 648.62 497.062 657.428C504.411 644.581 519.14 644.787 529.728 637.264C538.528 631.011 540.394 621.518 547.389 614.615C550.371 611.672 556.265 606.477 557.056 602.318C557.391 600.558 556.715 600.14 555.735 598.886C548.67 602.567 551.638 608.825 536.705 614.861C542.596 606.086 548.706 597.461 555.03 588.994Z"/>
	<path fill="#787880" d="M354.503 449.525C361.312 447.424 368.091 445.174 375.111 443.88C349.782 468.352 332.107 498.658 331.512 534.773C331.348 544.723 332.593 554.6 334.072 564.419C321.25 573.165 301.721 580.989 298.456 598.071C294.342 619.595 311.993 644.365 317.058 664.521C309.702 657.886 303.724 651.446 298.1 643.298C277.873 613.994 244.716 541.005 239.426 505.79C265.14 488.213 292.731 471.995 321.836 460.904C332.8 457.389 343.502 453.028 354.503 449.525Z"/>
	<path fill="#787880" d="M566.036 480.949L572.149 484.95C594.571 503.224 612.629 523.153 630.832 545.525C639.62 558.994 649.601 571.711 657.49 585.754C661.254 594.111 665.413 602.304 669.108 610.68C672.569 618.527 675.315 626.653 679.348 634.242C680.05 637.417 681.16 640.21 682.433 643.186C668.843 655.86 661.932 665.298 654.231 682.253C645.289 688.436 631.753 689.159 621.085 689.516C627.499 679.239 637.707 674.105 638.7 660.513C640.613 634.332 602.156 599.145 586.104 580.716C581.715 575.676 579.322 570.254 574.977 565.134C575.331 564.531 575.496 564.292 575.767 563.693C585.779 541.596 574.486 502.165 566.036 480.949Z"/>
	<path fill="#4C4D56" d="M334.106 677.515C361.576 691.275 395.886 701.661 426.929 700.372C424.877 701.689 423.085 702.595 420.742 703.282C413.085 702.531 403.936 704.094 396.119 704.162C376.938 704.33 359.483 701.833 340.92 697.364C339.002 691.819 336.689 690.985 331.605 688.452C327.392 687.089 323.767 685.758 320.08 683.278C334.714 685.029 337.169 691.595 348.946 696.79C359.837 701.594 392.597 704.88 403.798 702.715C405.433 702.399 407.079 702.179 408.724 701.922L408.104 701.072C404.596 700.71 400.984 701.533 397.53 701.104C387.087 699.807 362.88 688.175 353.609 690.539C351.356 691.114 348.833 691.582 346.559 690.901C341.546 689.4 336.667 682.742 334.441 678.211L334.106 677.515Z"/>
	<path fill="#1E1B1C" d="M1414.65 406.298C1471.56 381.241 1514.15 373.409 1576.09 374.565C1588.79 373.818 1642.24 377.911 1650.95 384.77C1651.48 385.186 1651.48 385.245 1651.8 385.725C1663.87 387.174 1680.62 397.406 1691.37 403.677C1693.63 405.009 1695.73 406.674 1698.45 406.348C1699.77 405.265 1701.13 404.21 1702.36 403.027C1704.11 405.826 1704.59 409.86 1705.32 413.078C1720.2 428.752 1750.51 453.902 1749.89 477.712C1749.32 499.628 1695.35 574.007 1679.59 593.243C1664.92 611.155 1648.04 629.818 1630.86 645.361C1629.15 646.9 1627.94 648.079 1625.62 648.59L1624.61 648.819C1611.15 669.953 1595.85 687.668 1572.09 697.503C1568.76 702.264 1558.72 703.624 1553.84 707.751C1537.98 709.028 1521.22 710.354 1505.36 708.924C1494.49 710.117 1481.97 708.845 1470.95 708.677C1460.88 711.69 1400.28 704.273 1388.85 700.49L1388.11 698.592C1380.47 696.776 1371.91 696.608 1364.09 695.661C1350.05 693.961 1335.37 690.778 1321.25 691.032C1313.13 687.929 1281.69 685.464 1270.41 683.549C1267.21 682.699 1262.96 683.135 1259.62 683.116C1248.84 669.818 1242.91 649.245 1226.11 641.775C1226.81 641.137 1227.37 640.599 1227.93 639.83C1230.26 636.615 1235.1 627.448 1234.34 623.549C1232.16 616.237 1253.67 577.07 1257.11 566.579L1257.21 568.37C1258.08 567.791 1258.66 567.374 1259.2 566.45C1263.18 559.546 1275.08 540.914 1272.75 532.92C1272.08 530.595 1272.28 528.422 1271.5 526.07C1277.45 520.884 1289.4 506.375 1292.52 499.231C1293.01 498.815 1293.43 498.409 1293.82 497.894C1310.77 475.427 1341.57 450.613 1365.05 435.206C1373.7 429.535 1383.75 425.062 1391.96 418.97C1392.14 418.837 1392.32 418.698 1392.5 418.562C1399.97 414.909 1407.31 410.291 1414.65 406.298Z"/>
	<path fill="#5B5945" d="M1489.58 648.814C1488.39 650.379 1485.11 651.02 1483.21 651.627C1458.5 659.531 1426.68 655.342 1404 643.531C1377.49 629.73 1357.64 608.394 1348.7 579.613C1339.75 550.818 1340.3 519.9 1354.69 492.843C1366.05 471.484 1375.4 462.645 1398.69 455.574C1408.01 452.741 1417.6 449.905 1427.18 448.13C1446.17 444.614 1494.37 439.577 1511.29 448.831C1529.16 458.604 1547.21 480.662 1555.26 499.265C1557.02 503.343 1557.81 507.728 1559.09 511.979C1562.65 523.797 1568.78 544.579 1562.62 556.045C1562.65 558.811 1562.98 562.003 1562.6 564.719C1560.66 564.026 1558.47 563.85 1556.43 563.526C1548.44 564.133 1542.34 567.283 1534.84 569.4C1535.16 573.879 1533.74 578.99 1531.01 582.58C1534.33 585.335 1536.22 589.426 1539.44 591.979C1541.13 593.311 1543.43 593.31 1545.06 594.499C1551.83 594.576 1558.57 594.574 1565.33 594.308C1565.76 601.855 1553.79 616.986 1548.79 622.578C1546.94 624.651 1545.11 626.552 1542.44 627.509C1542.52 627.194 1542.59 626.878 1542.67 626.563C1544.99 617.468 1561.44 609.698 1558.33 598.898C1556.52 597.675 1555.03 597.255 1552.84 597.597C1546.76 598.545 1530.88 631.424 1516.93 634.875C1513.83 640.37 1498.29 646.405 1492.22 648.28C1491.32 648.556 1490.5 648.682 1489.58 648.814Z"/>
	<path fill="#958F76" d="M1507.76 584.241C1517.77 578.856 1524.9 554.376 1529.1 544.458C1531.88 543.801 1534.11 544.858 1536.7 545.78C1543.38 547.9 1550.12 549.461 1553.63 556.205C1554.45 557.774 1554.81 559.351 1555.23 561.05C1555.49 562.088 1555.82 562.674 1556.43 563.526C1548.44 564.133 1542.34 567.283 1534.84 569.4C1535.16 573.879 1533.74 578.99 1531.01 582.58C1534.33 585.335 1536.22 589.426 1539.44 591.979C1541.13 593.311 1543.43 593.31 1545.06 594.499C1539.49 606.574 1512.31 631.909 1499.71 636.524C1499.55 636.584 1499.38 636.635 1499.22 636.69L1495.64 637.938C1485.42 640.385 1477.29 645.559 1466.34 646.607C1438.96 649.23 1408.86 639.043 1387.79 621.545C1374.76 610.731 1358.8 593.682 1357.44 575.972C1357.02 570.519 1358.45 564.921 1362.2 560.814C1365.96 556.699 1374.41 548.672 1380.13 548.555C1385.47 548.446 1385.13 551.827 1386.53 556.024C1390.33 567.435 1396.91 581.771 1406.08 589.85C1409.56 592.918 1413.72 594.863 1417.12 598.153C1417.58 600.172 1417.77 602.09 1419.41 603.512C1422.98 602.298 1425.74 601.476 1429.21 603.501C1431.27 604.702 1431.17 606.406 1431.5 608.496C1433.7 609.255 1439.69 606.615 1442.69 606.488C1447.9 609.231 1445.2 613.051 1447.08 617.493L1447.64 615.973L1447.71 613.186C1448.39 611.989 1449.34 609.962 1450.68 609.391C1455.75 607.228 1465.33 608.124 1471.16 606.927C1475.56 606.024 1480 603.618 1484.07 601.736C1485.34 603.664 1485.45 607.679 1485.83 610.006C1486.01 608.578 1486.25 607.158 1486.55 605.751C1488.28 597.839 1493.57 597.789 1499.48 593.84C1503.14 591.395 1506.89 588.634 1507.76 584.241Z"/>
	<path fill="#71695C" d="M1507.76 584.241C1509.62 578.45 1513.49 573.852 1516 568.309C1519.65 560.225 1521.85 548.436 1527.01 541.584C1529.63 541.736 1532.95 541.908 1535.3 543.125C1536.42 543.703 1536.36 544.631 1536.7 545.78C1534.11 544.858 1531.88 543.801 1529.1 544.458C1524.9 554.376 1517.77 578.856 1507.76 584.241Z"/>
	<path fill="#544C41" d="M1447.64 615.973C1447.32 612.048 1446.09 607.449 1446.45 603.567C1446.64 601.452 1447.27 599.611 1448.88 598.283L1449.93 599.878C1450.57 604.723 1448.95 608.572 1447.71 613.186L1447.64 615.973Z"/>
	<path fill="#0A0A0A" d="M1414.31 524.827C1436.91 524.07 1483.33 523.741 1504.72 527.285C1508.16 529.494 1510.08 533.189 1511.13 537.042C1512.43 541.824 1512.73 549.258 1510.24 553.581C1503.35 558.737 1496.13 558.505 1487.9 558.956C1473.07 560.168 1408.51 561.636 1398 555.005C1388.61 549.081 1396.14 537.299 1394.11 529.136C1394.07 528.978 1394.02 528.823 1393.98 528.666C1400.97 527.446 1407.13 525.392 1414.31 524.827Z"/>
	<path fill="#544C41" d="M1447.46 461.149L1449.67 461.615C1451.65 463.723 1451.92 465.89 1451.95 468.781C1452.01 473.249 1451.38 478.946 1448.22 482.128C1447.72 481.707 1447.29 481.354 1446.93 480.798C1444.26 476.673 1446.73 465.918 1447.46 461.149Z"/>
	<path fill="#544C41" d="M1482.71 471.451C1483.91 471.47 1484.73 471.908 1485.81 472.389C1487.17 474.327 1487.99 476.113 1487.59 478.549C1487.07 481.701 1486.11 482.238 1483.68 484.01C1483 484.813 1482.86 484.668 1481.87 484.875C1480.27 481.032 1481.67 475.352 1482.71 471.451Z"/>
	<path fill="#544C41" d="M1495.98 482.688C1497.6 482.699 1497.86 482.839 1499.26 483.674L1499.26 485.866C1497.79 488.464 1496.81 489.966 1494.05 491.419L1492.19 489.635C1492.42 486.57 1494.16 485.095 1495.98 482.688Z"/>
	<path fill="#4A3732" d="M1414.65 406.298C1471.56 381.241 1514.15 373.409 1576.09 374.565C1588.79 373.818 1642.24 377.911 1650.95 384.77C1651.48 385.186 1651.48 385.245 1651.8 385.725C1663.87 387.174 1680.62 397.406 1691.37 403.677C1693.63 405.009 1695.73 406.674 1698.45 406.348C1699.77 405.265 1701.13 404.21 1702.36 403.027C1704.11 405.826 1704.59 409.86 1705.32 413.078C1720.2 428.752 1750.51 453.902 1749.89 477.712C1749.32 499.628 1695.35 574.007 1679.59 593.243C1664.92 611.155 1648.04 629.818 1630.86 645.361C1629.15 646.9 1627.94 648.079 1625.62 648.59L1624.61 648.819C1628.66 641.299 1634.32 634.771 1638.44 627.206C1658.38 590.614 1675.35 553.085 1690.68 514.357C1692.67 509.315 1697.19 501.029 1697.35 495.731C1694.6 492.1 1690.82 489.079 1687.03 486.599C1675.41 478.979 1662.18 473.035 1649.75 466.825C1575.94 429.962 1499.18 416.759 1418.49 437.197C1398.09 442.364 1377.82 449.081 1358.89 458.329C1347.77 463.764 1337.03 470.871 1326.79 477.818C1316.28 484.949 1305.14 496.613 1292.52 499.231C1293.01 498.815 1293.43 498.409 1293.82 497.894C1310.77 475.427 1341.57 450.613 1365.05 435.206C1373.7 429.535 1383.75 425.062 1391.96 418.97C1392.14 418.837 1392.32 418.698 1392.5 418.562C1399.97 414.909 1407.31 410.291 1414.65 406.298Z"/>
	<path fill="#51433E" d="M1576.09 374.565C1588.79 373.818 1642.24 377.911 1650.95 384.77C1651.48 385.186 1651.48 385.245 1651.8 385.725C1643.51 384.626 1631.1 379.553 1623.33 380.212C1620.27 380.471 1617.42 382.221 1614.43 382.863C1610.42 383.724 1604.45 383.57 1601 381.209C1600.43 380.341 1599.87 379.395 1599.19 378.61C1596.51 375.498 1580.61 375.209 1576.09 374.565Z"/>
	<path fill="#51433E" d="M1392.5 418.562C1399.97 414.909 1407.31 410.291 1414.65 406.298C1414.39 407.22 1414.33 408.408 1413.52 408.924C1402.32 416.105 1417.81 422.184 1392.5 418.562Z"/>
	<path fill="#B5B5B6" d="M1575.18 547.892C1587.23 548.67 1609.14 561.135 1617.12 570.309C1618.54 571.941 1620.1 574.171 1620 576.407C1628.08 595.121 1612.68 618.948 1611.72 637.654C1610.82 647.643 1591.25 670.099 1583.24 676.752C1578.16 680.97 1571.81 685.857 1565.69 688.33L1565.62 690.542C1559.9 694.766 1552.45 696.572 1545.73 698.67C1545.69 698.822 1545.67 698.974 1545.63 699.125C1545.14 701.157 1541.94 705.567 1542.57 706.987C1550.69 706.854 1562.09 701.542 1568.68 697.012L1572.09 697.503C1568.76 702.264 1558.72 703.624 1553.84 707.751C1537.98 709.028 1521.22 710.354 1505.36 708.924C1494.49 710.117 1481.97 708.845 1470.95 708.677C1460.88 711.69 1400.28 704.273 1388.85 700.49L1388.11 698.592C1380.47 696.776 1371.91 696.608 1364.09 695.661C1350.05 693.961 1335.37 690.778 1321.25 691.032C1313.13 687.929 1281.69 685.464 1270.41 683.549C1270.64 682.259 1270.44 681.645 1269.91 680.499C1267.47 675.124 1265.84 669.481 1263.16 664.191C1267.3 660.103 1274.44 642.591 1278.88 635.576C1285.95 624.386 1295.63 610.44 1305.27 601.43C1311.94 595.204 1319.77 590.043 1326.67 583.872C1328.74 582.023 1330.69 581.205 1333.49 581.361C1333.63 581.493 1333.77 581.62 1333.9 581.756C1337.9 585.945 1345 604.002 1349.1 610.618C1370.28 644.796 1408.57 665.522 1448.28 667.275C1478.94 668.628 1511.1 658.051 1533.85 637.203C1536.4 634.862 1541.61 630.819 1542.44 627.509C1545.11 626.552 1546.94 624.651 1548.79 622.578C1553.79 616.986 1565.76 601.855 1565.33 594.308C1558.57 594.574 1551.83 594.576 1545.06 594.499C1543.43 593.31 1541.13 593.311 1539.44 591.979C1536.22 589.426 1534.33 585.335 1531.01 582.58C1533.74 578.99 1535.16 573.879 1534.84 569.4C1542.34 567.283 1548.44 564.133 1556.43 563.526C1558.47 563.85 1560.66 564.026 1562.6 564.719C1562.98 562.003 1562.65 558.811 1562.62 556.045C1563.5 556.849 1564.4 557.499 1565.37 558.188C1567.87 558.222 1570.2 558.149 1572.2 556.433C1574.58 554.393 1574.61 553.356 1574.88 550.422L1575.18 547.892Z"/>
	<path fill="#4C4D56" d="M1494.62 704.92C1514.85 702.855 1548.88 700.781 1565.69 688.33L1565.62 690.542C1559.9 694.766 1552.45 696.572 1545.73 698.67C1545.69 698.822 1545.67 698.974 1545.63 699.125C1545.14 701.157 1541.94 705.567 1542.57 706.987C1550.69 706.854 1562.09 701.542 1568.68 697.012L1572.09 697.503C1568.76 702.264 1558.72 703.624 1553.84 707.751C1537.98 709.028 1521.22 710.354 1505.36 708.924C1494.49 710.117 1481.97 708.845 1470.95 708.677L1471.12 707.068C1472.54 705.902 1473.93 705.644 1475.68 705.23L1494.62 704.92Z"/>
	<path fill="#787880" d="M1388.11 698.592C1417.62 702.19 1446.24 702.668 1475.68 705.23C1473.93 705.644 1472.54 705.902 1471.12 707.068L1470.95 708.677C1460.88 711.69 1400.28 704.273 1388.85 700.49L1388.11 698.592Z"/>
	<path fill="#4C4D56" d="M1562.62 556.045C1563.5 556.849 1564.4 557.499 1565.37 558.188C1567.87 558.222 1570.2 558.149 1572.2 556.433C1574.58 554.393 1574.61 553.356 1574.88 550.422C1576.84 555.551 1576.05 562.669 1573.89 567.662C1573.34 568.947 1572.66 570.171 1571.97 571.382C1570.23 568.31 1565.8 566.02 1562.6 564.719C1562.98 562.003 1562.65 558.811 1562.62 556.045Z"/>
	<path fill="#787880" d="M1272.76 549.605C1279.6 544.955 1285.95 534.499 1291.29 528.021C1301.9 515.119 1312.28 503.413 1325.73 493.344C1330.18 490.012 1343.41 482.262 1344.7 477.069C1344.67 477.334 1344.64 477.599 1344.6 477.864C1343.86 483.196 1340.69 488.064 1338.73 493.04C1333.99 505.037 1329.86 517.851 1328.86 530.792C1328.2 539.298 1328.93 548.215 1330.02 556.66C1330.63 561.366 1334.57 578.582 1333.49 581.361C1330.69 581.205 1328.74 582.023 1326.67 583.872C1319.77 590.043 1311.94 595.204 1305.27 601.43C1295.63 610.44 1285.95 624.386 1278.88 635.576C1274.44 642.591 1267.3 660.103 1263.16 664.191C1265.84 669.481 1267.47 675.124 1269.91 680.499C1270.44 681.645 1270.64 682.259 1270.41 683.549C1267.21 682.699 1262.96 683.135 1259.62 683.116C1248.84 669.818 1242.91 649.245 1226.11 641.775C1226.81 641.137 1227.37 640.599 1227.93 639.83C1230.26 636.615 1235.1 627.448 1234.34 623.549C1232.16 616.237 1253.67 577.07 1257.11 566.579L1257.21 568.37C1257.66 571.781 1255.66 576.07 1254.58 579.341L1255.71 579.329C1262.7 570.818 1264.93 557.932 1272.76 549.605Z"/>
	<path fill="#4E4B4E" d="M1257.21 568.37C1257.66 571.781 1255.66 576.07 1254.58 579.341L1255.71 579.329C1262.7 570.818 1264.93 557.932 1272.76 549.605C1272.9 551.164 1272.62 552.244 1271.93 553.648C1264.37 569.013 1255.2 583.797 1247.26 599.011C1243.56 606.094 1240.61 615.706 1236.02 621.962C1235.54 622.619 1234.97 623.059 1234.34 623.549C1232.16 616.237 1253.67 577.07 1257.11 566.579L1257.21 568.37Z"/>
	<path fill="#787880" d="M1539.69 453.919C1547.18 455.239 1554.92 458.51 1562.19 460.872C1576.13 465.404 1659.26 497.997 1664.06 507.446C1666.16 510.276 1666.57 511.921 1666.04 515.447C1664.76 523.866 1655.66 554.71 1650.78 559.935C1650.6 569.549 1620.61 629.713 1613.69 636.34C1613.05 636.953 1612.51 637.249 1611.72 637.654C1612.68 618.948 1628.08 595.121 1620 576.407C1620.1 574.171 1618.54 571.941 1617.12 570.309C1609.14 561.135 1587.23 548.67 1575.18 547.892C1577.26 541.029 1576.01 530.491 1575.12 523.323C1572.22 499.972 1558.53 468.646 1539.69 453.919Z"/>
	<path fill="#736661" d="M179.65 254.514C184.554 255.63 189.429 256.871 194.27 258.235C206.92 263.481 222.172 265.931 235.59 268.838C265.501 275.287 295.537 281.146 325.679 286.412C343.491 289.354 362.746 290.649 380.148 295.082C382.421 295.661 384.466 296.805 386.34 298.188C389.062 297.763 393.327 296.534 395.923 297.158C405.712 299.643 415.996 300.645 425.997 302.044C451.066 305.551 476.247 308.398 501.236 312.4C510.568 313.895 520.079 314.902 529.211 317.379C535.638 317.731 543.824 317.308 549.905 319.232C547.385 319.245 541.813 318.603 539.851 319.854C546.212 327.198 557.17 337.936 566.024 342.006C571.608 344.112 577.424 348.21 581.896 352.114C583.496 353.511 586.149 357.566 587.96 358.063L594.759 361.915C623.456 379.87 652.821 404.229 680.528 424.355C716.516 450.496 753.428 473.964 791.587 496.728C800.872 487.393 816.603 481.978 827.783 474.531C819.429 484.393 793.487 501.644 780.587 503.012C779.048 503.175 777.478 503.094 775.938 502.989L776.413 501.929L771.61 501.668C769.873 503.524 769.834 505.369 769.316 507.786C763.779 496.477 749.87 491.38 739.135 486.177C737.475 492.169 745.247 502.951 748.414 508.55C765.831 539.334 812.55 597.795 802.809 633.553C796.412 657.035 769.59 694.248 748.271 706.347C741.247 710.334 733.761 712.253 725.734 712.516C723.488 711.43 722.692 710.322 721.854 707.957C719.371 700.955 720.147 692.721 718.693 685.434C716.321 673.55 705.956 652.113 694.666 646.512C692.446 645.411 689.922 644.78 687.527 644.171C686.464 659.259 687.509 678.895 682.816 693.125C679.655 694.67 675.443 694.085 671.984 693.912C669.022 691.228 666.468 690.845 662.604 690.288C661.024 688.765 662.595 685.617 661.546 683.2C659.133 681.789 656.9 682.099 654.231 682.253C661.932 665.298 668.843 655.86 682.433 643.186C681.16 640.21 680.05 637.417 679.348 634.242C675.315 626.653 672.569 618.527 669.108 610.68C665.413 602.304 661.254 594.111 657.49 585.754C649.601 571.711 639.62 558.994 630.832 545.525C632.656 542.73 633.989 540.653 637.191 539.589C639.335 540.687 639.676 541.515 640.974 543.489C641.957 544.591 643.115 546.225 644.285 547.076C647.23 548.136 649.284 550.473 652.032 551.85C650.814 550.573 649.809 548.628 649.703 546.854C649.684 546.522 649.68 546.189 649.669 545.856C640.908 534.342 631.892 523.025 622.627 511.912C617.943 490.952 545.519 430.666 525.832 418.197C510.755 408.649 493.599 399.063 477.014 392.493C419.316 369.637 329.344 358.494 268.31 372.324C232.055 380.539 199.551 398.72 171.441 422.609C161.846 430.764 151.61 440.355 144.888 451.109C131.438 472.624 131.248 495.69 137.043 519.643C140.805 535.191 147.022 557.522 155.527 571.039C156.257 573.784 157.645 575.053 159.633 576.916C159.008 577.103 158.147 577.296 157.58 577.661C152.414 580.985 145.371 673.639 140.975 686.74C132.344 681.901 130.237 653.733 128.813 644.238C119.546 581.727 115.723 518.53 117.387 455.358C117.508 448.442 119.861 418.495 116.617 414.676C122.775 407.29 140.838 353.438 145.348 341.516C150.255 328.542 155.828 315.802 160.871 302.872C167.168 286.726 172.94 270.508 179.65 254.514Z"/>
	<path fill="#71695C" d="M395.923 297.158C405.712 299.643 415.996 300.645 425.997 302.044C451.066 305.551 476.247 308.398 501.236 312.4C510.568 313.895 520.079 314.902 529.211 317.379C535.638 317.731 543.824 317.308 549.905 319.232C547.385 319.245 541.813 318.603 539.851 319.854C546.212 327.198 557.17 337.936 566.024 342.006C571.608 344.112 577.424 348.21 581.896 352.114C583.496 353.511 586.149 357.566 587.96 358.063L594.759 361.915C623.456 379.87 652.821 404.229 680.528 424.355C716.516 450.496 753.428 473.964 791.587 496.728C800.872 487.393 816.603 481.978 827.783 474.531C819.429 484.393 793.487 501.644 780.587 503.012C779.048 503.175 777.478 503.094 775.938 502.989L776.413 501.929L771.61 501.668C769.873 503.524 769.834 505.369 769.316 507.786C763.779 496.477 749.87 491.38 739.135 486.177L733.059 482.178C705.149 467.433 677.591 452.331 649.45 438.014C640.315 433.366 631.556 428.027 622.165 423.891C596.515 412.374 571.329 399.851 546.665 386.351C525.581 377.662 505.227 364.343 485.226 353.258C478.386 349.467 472.519 345.373 465.176 342.454C465.677 341.239 466.584 340.667 467.563 339.83C461.721 337.302 455.875 333.024 450.316 329.824C443.557 325.934 436.523 322.545 429.772 318.646C421.921 314.113 414.416 308.957 406.473 304.591C403.671 303.051 395.013 300.381 393.896 298.447L395.923 297.158Z"/>
	<path fill="#544C41" d="M465.176 342.454C465.677 341.239 466.584 340.667 467.563 339.83C481.993 345.479 495.193 354.564 508.869 361.818C523.583 369.623 540.611 376.521 554.337 385.845C569.496 392.703 583.624 401.226 598.274 409.054C605.814 413.083 613.565 416.414 621.202 420.209C638.77 427.241 655.07 436.647 671.853 445.28C693.244 456.283 716.613 466.699 736.107 480.832L733.059 482.178C705.149 467.433 677.591 452.331 649.45 438.014C640.315 433.366 631.556 428.027 622.165 423.891C596.515 412.374 571.329 399.851 546.665 386.351C525.581 377.662 505.227 364.343 485.226 353.258C478.386 349.467 472.519 345.373 465.176 342.454Z"/>
	<path fill="#4E4B4E" d="M736.107 480.832C750.576 486.358 763.497 493.425 776.413 501.929L771.61 501.668C769.873 503.524 769.834 505.369 769.316 507.786C763.779 496.477 749.87 491.38 739.135 486.177L733.059 482.178L736.107 480.832Z"/>
	<path fill="#544C41" d="M529.211 317.379C535.638 317.731 543.824 317.308 549.905 319.232C547.385 319.245 541.813 318.603 539.851 319.854C546.212 327.198 557.17 337.936 566.024 342.006L565.459 345.442C556.056 340.048 537.126 325.074 529.211 317.379Z"/>
	<path fill="#4E4B4E" d="M566.024 342.006C571.608 344.112 577.424 348.21 581.896 352.114C583.496 353.511 586.149 357.566 587.96 358.063L594.759 361.915L592.217 363.86C587.228 363.427 570.424 348.959 565.459 345.442L566.024 342.006Z"/>
	<path fill="#4E4B4E" d="M386.34 298.188C389.062 297.763 393.327 296.534 395.923 297.158L393.896 298.447C395.013 300.381 403.671 303.051 406.473 304.591C414.416 308.957 421.921 314.113 429.772 318.646C436.523 322.545 443.557 325.934 450.316 329.824C455.875 333.024 461.721 337.302 467.563 339.83C466.584 340.667 465.677 341.239 465.176 342.454C458.255 339.713 389.753 301.345 386.34 298.188Z"/>
	<path fill="#4C4D56" d="M630.832 545.525C632.656 542.73 633.989 540.653 637.191 539.589C639.335 540.687 639.676 541.515 640.974 543.489C639.655 547.715 643.78 554.413 645.806 558.302C650.523 567.354 656.013 576.027 660.847 585.037L657.49 585.754C649.601 571.711 639.62 558.994 630.832 545.525Z"/>
	<path fill="#4A3732" d="M649.669 545.856C658.914 552.162 683.211 587.356 688.601 597.964C680.811 589.195 673.871 579.678 666.071 570.87C659.021 562.909 650.684 555.524 644.285 547.076C647.23 548.136 649.284 550.473 652.032 551.85C650.814 550.573 649.809 548.628 649.703 546.854C649.684 546.522 649.68 546.189 649.669 545.856Z"/>
	<path fill="#4E4B4E" d="M660.847 585.037C665.178 589.931 680.752 626.086 681.082 632.029L679.348 634.242C675.315 626.653 672.569 618.527 669.108 610.68C665.413 602.304 661.254 594.111 657.49 585.754L660.847 585.037Z"/>
	<path fill="#A48C85" d="M240.684 304.996C249.119 305.598 292.753 310.433 297.458 315.641L296.555 316.937C288.468 317.111 281.691 319.498 274.136 322.121C260.86 327.968 242.797 332.44 228.372 333.783C233.053 324.571 236.406 314.456 240.684 304.996Z"/>
	<path fill="#736661" d="M1666.7 284.791C1667.78 284.789 1670.49 284.474 1671.2 285.195C1673.84 287.879 1682.2 320.611 1682.07 325.115C1682.05 325.887 1681.9 326.097 1681.63 326.719C1683.46 332.597 1687.69 344.208 1685.88 350.167C1689.5 356.046 1697.21 395.519 1696.38 401.957L1694.11 403.317L1691.37 403.677C1680.62 397.406 1663.87 387.174 1651.8 385.725C1651.48 385.245 1651.48 385.186 1650.95 384.77C1642.24 377.911 1588.79 373.818 1576.09 374.565C1514.15 373.409 1471.56 381.241 1414.65 406.298C1407.31 410.291 1399.97 414.909 1392.5 418.562C1392.32 418.698 1392.14 418.837 1391.96 418.97C1383.75 425.062 1373.7 429.535 1365.05 435.206C1341.57 450.613 1310.77 475.427 1293.82 497.894C1293.43 498.409 1293.01 498.815 1292.52 499.231C1289.4 506.375 1277.45 520.884 1271.5 526.07C1272.28 528.422 1272.08 530.595 1272.75 532.92C1275.08 540.914 1263.18 559.546 1259.2 566.45C1258.66 567.374 1258.08 567.791 1257.21 568.37L1257.11 566.579C1253.67 577.07 1232.16 616.237 1234.34 623.549C1235.1 627.448 1230.26 636.615 1227.93 639.83C1227.37 640.599 1226.81 641.137 1226.11 641.775C1242.91 649.245 1248.84 669.818 1259.62 683.116C1262.96 683.135 1267.21 682.699 1270.41 683.549C1281.69 685.464 1313.13 687.929 1321.25 691.032C1320.76 692.158 1320.45 692.922 1319.69 693.896C1307.6 694.326 1295.74 695.911 1283.7 696.675C1268.87 697.617 1253.72 697.753 1238.87 697.652C1238.25 696.204 1237.6 694.404 1236.57 693.201C1234.36 690.622 1219.36 684.575 1216.15 684.433C1214.15 680.917 1209.57 677.581 1206.94 674.132C1199.2 663.999 1206.9 644.884 1200.72 634.483C1200.36 635.201 1200.01 635.816 1199.44 636.399C1189.57 646.606 1176.55 664.022 1176.22 678.515C1176.08 684.663 1177.8 690.985 1178.78 697.045C1179.54 701.793 1180.26 707.943 1178.65 712.56C1175.78 710.455 1169.9 709.889 1166.39 708.486C1154.54 703.742 1142.69 691.276 1135.23 681.091C1120.99 661.644 1114.54 645.349 1112.86 621.301C1112.39 614.455 1111.69 607.778 1112.98 600.968C1115.09 589.884 1120.91 577.209 1125.83 567.044C1129.57 559.324 1137.09 549.858 1138.38 541.344C1136.95 541.394 1136.69 541.327 1135.56 542.262C1128.36 548.243 1106.54 593.2 1105.6 603.232C1105.49 604.422 1105.37 604.229 1104.52 604.972L1103.56 603.91C1103.28 601.265 1103.68 599.028 1104.41 596.496C1108.81 581.222 1136.97 524.746 1149.91 517.693L1151.94 518.361C1153.18 515.949 1155.62 514.532 1157.4 512.516C1160.74 508.709 1167.55 500.436 1168.96 495.625L1167.99 494.449L1163.75 494.426C1173.97 490.444 1191.94 483.668 1199.33 475.793L1198.71 473.686C1191.56 475.28 1182.96 482.398 1175.96 485.745C1167.75 489.674 1153.37 496.738 1144.32 493.541C1143.67 488.182 1167.51 479.06 1170.54 471.738L1168.71 470.652C1180.7 465.984 1193.23 455.905 1204.25 449.022C1223.98 436.711 1243.33 423.955 1262.89 411.409C1276.46 402.699 1290.53 394.394 1303.49 384.801C1308.04 381.592 1315.43 378.834 1318.88 374.688C1328.47 373.444 1345.89 352.698 1358.04 348.171L1359.16 350.099C1368.11 345.715 1374.74 337.401 1384.42 333.695C1400.45 327.562 1428.61 327.28 1446.28 325.093C1462.86 323.041 1479.42 319.803 1496.06 318.426L1496.88 318.597C1501.26 319.48 1505.57 318.582 1509.84 319.518L1509.71 319.839C1508.12 319.977 1507.54 320.601 1506.25 321.501L1506.8 321.386C1503.43 323.36 1499.44 325.242 1496.46 327.742C1501.04 327.663 1506 323.64 1510.49 322.095L1511.25 324.863C1524.7 321.111 1536.69 312.828 1550.06 309.543C1563.46 306.252 1624.43 297.913 1631.96 293.118C1633.65 293.032 1634.9 292.645 1636.47 292.048C1643.45 291.581 1661.72 289.369 1666.7 284.791Z"/>
	<path fill="#71695C" d="M1359.16 350.099C1368.11 345.715 1374.74 337.401 1384.42 333.695C1400.45 327.562 1428.61 327.28 1446.28 325.093C1462.86 323.041 1479.42 319.803 1496.06 318.426L1496.88 318.597C1501.26 319.48 1505.57 318.582 1509.84 319.518L1509.71 319.839C1508.12 319.977 1507.54 320.601 1506.25 321.501L1506.8 321.386C1503.43 323.36 1499.44 325.242 1496.46 327.742C1494.23 331.349 1479.34 336.473 1475.02 338.328L1475.87 340.853C1473.5 345.696 1456.72 351.456 1451.3 353.314C1450.25 353.673 1449.27 353.856 1448.18 354.004C1428.54 365.444 1405.95 374.162 1384.36 381.129C1379.24 387.286 1361.69 393.444 1353.63 397.191C1341.75 402.713 1330.17 408.426 1318.71 414.78C1307.41 421.045 1294.36 430.122 1282.17 433.948C1279.98 436.44 1275.78 437.279 1272.84 438.901C1259.51 446.246 1211.36 474.925 1199.33 475.793L1198.71 473.686C1191.56 475.28 1182.96 482.398 1175.96 485.745C1167.75 489.674 1153.37 496.738 1144.32 493.541C1143.67 488.182 1167.51 479.06 1170.54 471.738L1168.71 470.652C1180.7 465.984 1193.23 455.905 1204.25 449.022C1223.98 436.711 1243.33 423.955 1262.89 411.409C1276.46 402.699 1290.53 394.394 1303.49 384.801C1308.04 381.592 1315.43 378.834 1318.88 374.688C1328.47 373.444 1345.89 352.698 1358.04 348.171L1359.16 350.099Z"/>
	<path fill="#544C41" d="M1281.9 430.613C1293.81 426.55 1305.91 418.333 1316.86 412.111C1338.04 400.076 1361.31 386.613 1384.15 378.197L1384.36 381.129C1379.24 387.286 1361.69 393.444 1353.63 397.191C1341.75 402.713 1330.17 408.426 1318.71 414.78C1307.41 421.045 1294.36 430.122 1282.17 433.948C1281.82 432.814 1281.9 431.786 1281.9 430.613Z"/>
	<path fill="#4E4B4E" d="M1198.71 473.686C1211.71 470.244 1245.43 448.89 1258.97 441.41C1266.37 437.326 1274.22 434.137 1281.9 430.613C1281.9 431.786 1281.82 432.814 1282.17 433.948C1279.98 436.44 1275.78 437.279 1272.84 438.901C1259.51 446.246 1211.36 474.925 1199.33 475.793L1198.71 473.686Z"/>
	<path fill="#4E4B4E" d="M1318.88 374.688C1328.47 373.444 1345.89 352.698 1358.04 348.171L1359.16 350.099C1358.89 350.92 1358.74 351.456 1358.15 352.106C1356.26 354.159 1313.49 385.36 1310.89 386.436C1308.48 387.43 1306.01 386.286 1303.92 385.072C1303.77 384.988 1303.63 384.891 1303.49 384.801C1308.04 381.592 1315.43 378.834 1318.88 374.688Z"/>
	<path fill="#51433E" d="M1445.73 351.997L1448.62 352.515L1448.18 354.004C1428.54 365.444 1405.95 374.162 1384.36 381.129L1384.15 378.197C1389.06 376.628 1393.57 374.054 1398.37 372.226C1413.42 366.487 1432.49 360.833 1445.73 351.997Z"/>
	<path fill="#544C41" d="M1475.02 338.328L1475.87 340.853C1473.5 345.696 1456.72 351.456 1451.3 353.314C1450.25 353.673 1449.27 353.856 1448.18 354.004L1448.62 352.515L1445.73 351.997C1452.23 349.932 1458.24 345.715 1464.43 342.841C1467.94 341.205 1471.59 340.215 1475.02 338.328Z"/>
	<path fill="#A48C85" d="M1694.11 403.317C1692.56 399.394 1686.37 392.98 1682.84 390.759C1681.81 390.113 1681.53 389.292 1681.28 388.132C1680.17 382.964 1682.15 353.884 1684.8 350.028L1685.88 350.167C1689.5 356.046 1697.21 395.519 1696.38 401.957L1694.11 403.317Z"/>
	<path fill="#2D2321" d="M1213.53 597.658C1220.96 592.802 1267.53 534.656 1271.5 526.07C1272.28 528.422 1272.08 530.595 1272.75 532.92C1275.08 540.914 1263.18 559.546 1259.2 566.45C1258.66 567.374 1258.08 567.791 1257.21 568.37L1257.11 566.579C1257.19 566.464 1257.28 566.352 1257.35 566.233C1261.18 560.233 1270.1 544.241 1271.73 537.931C1272.17 536.246 1271.71 534.324 1271.32 532.665C1271.29 532.878 1271.24 533.09 1271.21 533.303C1271.03 534.555 1270.84 535.784 1270.31 536.947C1267.76 542.454 1226.93 588.767 1220.58 594.315C1218.64 596.016 1215.96 596.869 1213.53 597.658Z"/>
	<path fill="#51433E" d="M1496.46 327.742C1501.04 327.663 1506 323.64 1510.49 322.095L1511.25 324.863C1502.88 332.844 1486.68 337.92 1475.87 340.853L1475.02 338.328C1479.34 336.473 1494.23 331.349 1496.46 327.742Z"/>
	<path fill="#A48C85" d="M1623.29 327.255C1625.78 326.985 1629.38 326.194 1631.75 327.028C1633.3 327.572 1633.79 329.077 1634.4 330.519C1637.77 338.385 1639.13 353.938 1636.11 361.814C1635.96 360.96 1635.67 360.135 1635.26 359.372C1632.43 354.022 1623.18 349.057 1617.6 347.262C1612.51 341.266 1601.57 339.081 1594.97 334.858L1594.8 333.435C1600.54 329.901 1616.09 328.668 1623.29 327.255Z"/>
	<path fill="#736661" d="M0 189.981L1.85616 189.737C3.31949 189.873 5.14414 190.238 6.58393 190.083C16.9893 193.796 27.006 198.791 37.213 203.038C62.4222 213.527 87.3691 223.755 113.409 232.023C115.387 241.406 113.964 252.865 113.659 262.516C113.058 281.564 111.785 302.31 113.717 321.216L112.89 323.099L111.834 320.416C109.224 320.943 107.67 323.838 106.226 326.017C102.466 331.692 100.401 338.101 96.8202 343.734C94.0436 348.101 90.2171 351.812 87.3368 356.153C76.4028 372.63 62.6155 398.005 58.725 417.522C55.7092 432.651 58.0003 451.327 58.5786 466.838C60.0296 513.114 63.6893 559.295 69.545 605.222C72.6555 630.534 77.0602 655.759 80.2278 681.116C85.955 726.963 89.2702 773.596 98.8681 818.894C104.802 846.897 108.24 873.881 117.546 901.144L110.922 902.767C96.9167 908.463 82.3098 913.201 68.5115 919.27C67.0927 918.904 65.6595 918.4 64.1909 918.385C64.6123 920.711 65.3697 923.331 65.3075 925.682C67.1511 937.25 68.1207 950.751 72.3729 961.66L71.771 963.77C67.5394 962.315 51.0791 935.798 47.1835 930.466L46.431 933.773C43.7261 929.707 41.4049 924.992 37.2636 922.271L35.4295 922.236C32.7146 926.066 34.2103 931.011 34.9067 935.322L32.922 935.942C31.5888 944.932 30.7875 952.403 32.4008 961.471C32.2606 965.165 31.9083 968.343 29.1328 970.948L27.1751 970.754C24.9629 968.631 25.4424 963.476 24.4367 960.493C20.073 947.55 12.4088 935.079 8.75166 922.084L7.48814 920.936C6.12914 922.224 6.03946 922.591 5.52538 924.314C5.27286 919.328 2.62665 914.858 0 910.762L0 894.83L0 514.007L0 476.37L0 206.555L0 189.981Z"/>
	<path fill="#71695C" d="M0 514.007C2.46608 523.251 0.452401 535.413 4.21886 543.828C7.23711 573.324 12.1081 602.424 17.0484 631.635C16.2111 638.497 19.3693 648.314 20.3407 655.381C27.1521 708.389 35.0799 761.247 44.1191 813.921C47.9144 835.734 52.7983 857.364 56.8245 879.137C58.3693 887.491 60.8796 912.018 64.1909 918.385C64.6123 920.711 65.3697 923.331 65.3075 925.682C67.1511 937.25 68.1207 950.751 72.3729 961.66L71.771 963.77C67.5394 962.315 51.0791 935.798 47.1835 930.466L46.431 933.773C43.7261 929.707 41.4049 924.992 37.2636 922.271L35.4295 922.236C32.7146 926.066 34.2103 931.011 34.9067 935.322L32.922 935.942C31.5888 944.932 30.7875 952.403 32.4008 961.471C32.2606 965.165 31.9083 968.343 29.1328 970.948L27.1751 970.754C24.9629 968.631 25.4424 963.476 24.4367 960.493C20.073 947.55 12.4088 935.079 8.75166 922.084L7.48814 920.936C6.12914 922.224 6.03946 922.591 5.52538 924.314C5.27286 919.328 2.62665 914.858 0 910.762L0 894.83L0 514.007Z"/>
	<path fill="#544C41" d="M32.922 935.942C32.4065 932.398 31.9405 928.848 31.5243 925.291C31.0746 921.215 30.5775 914.542 33.3998 911.218C33.9259 910.598 34.9913 910.753 35.7718 910.673C41.7019 913.823 44.5155 924.544 47.1835 930.466L46.431 933.773C43.7261 929.707 41.4049 924.992 37.2636 922.271L35.4295 922.236C32.7146 926.066 34.2103 931.011 34.9067 935.322L32.922 935.942Z"/>
	<path fill="#5B5945" d="M0 894.83C2.17996 902.303 9.62074 914.817 8.75166 922.084L7.48814 920.936C6.12914 922.224 6.03946 922.591 5.52538 924.314C5.27286 919.328 2.62665 914.858 0 910.762L0 894.83Z"/>
	<path fill="#51433E" d="M19.3041 627.576C28.1112 693.302 38.3156 758.835 49.9102 824.128C53.578 845.949 58.1377 867.386 62.4052 889.067C64.3456 898.925 65.1344 909.823 68.5115 919.27C67.0927 918.904 65.6595 918.4 64.1909 918.385C60.8796 912.018 58.3693 887.491 56.8245 879.137C52.7983 857.364 47.9144 835.734 44.1191 813.921C35.0799 761.247 27.1521 708.389 20.3407 655.381C19.3693 648.314 16.2111 638.497 17.0484 631.635C18.4508 630.2 18.845 629.528 19.3041 627.576Z"/>
	<path fill="#544C41" d="M4.21886 543.828C4.51814 543.203 4.78583 543.071 5.33597 542.674C5.41339 544.579 5.282 546.674 6.21222 548.378C6.99058 547.325 5.9608 545.316 7.30741 543.4C10.5844 563.955 13.4781 584.569 15.9867 605.232C16.9432 612.655 18.785 620.143 19.3041 627.576C18.845 629.528 18.4508 630.2 17.0484 631.635C12.1081 602.424 7.23711 573.324 4.21886 543.828Z"/>
	<path fill="#4E4B4E" d="M0 476.37C2.40235 484.475 8.09449 534.995 7.30741 543.4C5.9608 545.316 6.99058 547.325 6.21222 548.378C5.282 546.674 5.41339 544.579 5.33597 542.674C4.78583 543.071 4.51814 543.203 4.21886 543.828C0.452401 535.413 2.46608 523.251 0 514.007L0 476.37Z"/>
	<path fill="#4E4B4E" d="M0 189.981L1.85616 189.737C3.31949 189.873 5.14414 190.238 6.58393 190.083C2.22505 196.262 7.97357 201.703 0 206.555L0 189.981Z"/>
	<path fill="#736661" d="M1715.51 277.784C1737.91 275.511 1760.92 266.179 1782.25 259.263C1803.82 252.27 1827.86 246.45 1847.85 235.555C1850.65 237.925 1852.03 241.622 1852.6 245.175L1879.53 325.007C1882.06 332.497 1890.2 349.584 1890.15 356.6C1892.77 360.763 1897.12 373.433 1896.34 378.221C1901.77 389.19 1915.15 427.808 1913.6 438.676C1915.02 440.755 1915.43 442.957 1916.6 444.926C1918.9 449.393 1919.21 480.07 1917.61 485.437C1917.38 486.209 1917.1 486.947 1916.77 487.68C1918.99 493.099 1919.2 522.554 1917.21 527.563C1916.93 528.27 1916.9 528.289 1916.6 528.884C1911.29 539.02 1915 565.138 1907.79 572.264C1908.94 575.655 1895.72 654.023 1893.07 659.051C1892.59 659.965 1892.09 660.495 1891.36 661.221L1889.2 659.071C1890.16 663.765 1880.15 710.935 1877.14 715.44C1876.47 716.444 1875.62 717.3 1874.72 718.1C1875.14 717.089 1875.55 715.997 1875.62 714.892C1876.2 705.504 1875.44 695.933 1875.74 686.511C1876.11 674.818 1879.85 632.837 1875.77 624.588C1875.32 623.669 1874.05 622.443 1873.38 621.613C1874.39 634.912 1861.66 662.421 1856.67 675.908C1854.72 681.19 1842.83 707.518 1838.93 709.308C1837.71 704.529 1839.17 671.27 1839.09 664.044C1838.66 642.576 1837.82 621.118 1836.57 599.683C1835.96 588.055 1834.11 576.643 1832.98 565.076C1830.94 544.289 1829.08 523.678 1826.54 502.922C1824.61 487.188 1824.04 471.269 1821.87 455.58C1816.57 417.284 1808.22 380.192 1798.93 342.71C1795.64 329.461 1792.54 306.191 1782.28 296.925C1770.43 298.292 1758.89 302.817 1747.19 305.213C1736.1 307.483 1724.62 307.952 1713.69 310.733C1714.05 310.108 1714.21 309.894 1714.46 309.266C1716.2 304.841 1715.66 298.124 1713.72 293.883C1714.84 289.125 1716.15 282.622 1715.51 277.784Z"/>
	<path fill="#544C41" d="M1905.29 569.124C1907.09 570.249 1907.08 570.392 1907.79 572.264C1908.94 575.655 1895.72 654.023 1893.07 659.051C1892.59 659.965 1892.09 660.495 1891.36 661.221L1889.2 659.071C1889.98 657.574 1890.76 655.995 1891.07 654.321C1892.14 648.607 1892.27 642.664 1893.28 636.903C1895.24 625.747 1906.24 575.649 1905.29 569.124Z"/>
	<path fill="#4E4B4E" d="M1905.29 569.124C1910.7 557.164 1914.56 504.386 1916.77 487.68C1918.99 493.099 1919.2 522.554 1917.21 527.563C1916.93 528.27 1916.9 528.289 1916.6 528.884C1911.29 539.02 1915 565.138 1907.79 572.264C1907.08 570.392 1907.09 570.249 1905.29 569.124Z"/>
	<path fill="#71695C" d="M1907.79 572.264C1915 565.138 1911.29 539.02 1916.6 528.884C1917.7 531.232 1917.9 533.109 1917.96 535.648C1918.54 561.981 1918.03 588.433 1918.04 614.781L1918.04 768.589C1918.04 784.967 1919.79 865.185 1917.13 873.078C1917.07 873.263 1917 873.444 1916.93 873.627C1918.15 877.601 1918.54 880.781 1916.9 884.791C1918.68 889.502 1919 990.847 1917.2 995.156C1917 995.637 1916.94 995.733 1916.71 996.144C1908.49 1008.81 1883.33 1035.59 1869.66 1041.12C1855.39 1041.57 1828.93 1032.94 1818.27 1023.34C1816.58 1021.82 1815.02 1019.88 1814.43 1017.67L1812.25 1017.82C1812.87 1016.75 1813.33 1015.7 1813.73 1014.53C1816.65 1005.99 1830.78 949.653 1827.9 943.745C1829.7 945.65 1830.36 946.881 1830.81 949.47C1831.16 949.045 1831.27 948.921 1831.6 948.419C1833.54 945.458 1834.36 940.633 1833.57 937.201C1834.03 936.043 1834.5 934.864 1834.83 933.662C1835.61 930.798 1835.07 929.147 1833.72 926.68L1830.81 926.15C1831.28 925.614 1831.34 925.575 1831.72 925.04C1837.21 917.177 1841.78 890.589 1842.22 880.609C1842.4 876.676 1841.67 872.813 1840.92 868.969C1841.78 868.163 1842.36 867.437 1842.97 866.418C1845.87 861.583 1852.47 837.724 1851.2 832.355C1854.27 827.581 1857.05 817.508 1856.84 811.767C1859.16 807.76 1868.45 766.666 1867.9 763.187C1871.44 755.905 1876.76 725.938 1874.72 718.1C1875.62 717.3 1876.47 716.444 1877.14 715.44C1880.15 710.935 1890.16 663.765 1889.2 659.071L1891.36 661.221C1892.09 660.495 1892.59 659.965 1893.07 659.051C1895.72 654.023 1908.94 575.655 1907.79 572.264Z"/>
	<path fill="#736661" d="M1910.51 899.05C1914.3 895.999 1915.47 889.301 1916.9 884.791C1918.68 889.502 1919 990.847 1917.2 995.156C1917 995.637 1916.94 995.733 1916.71 996.144C1908.49 1008.81 1883.33 1035.59 1869.66 1041.12C1855.39 1041.57 1828.93 1032.94 1818.27 1023.34C1816.58 1021.82 1815.02 1019.88 1814.43 1017.67L1812.25 1017.82C1812.87 1016.75 1813.33 1015.7 1813.73 1014.53C1816.65 1005.99 1830.78 949.653 1827.9 943.745C1829.7 945.65 1830.36 946.881 1830.81 949.47C1831.72 952.406 1830.19 956.087 1831.75 958.621C1835.04 955.259 1838.63 947.67 1839.55 943.06L1841.02 944.353L1841.04 946.701C1841.43 946.491 1841.9 946.261 1842.25 945.973C1845.45 943.351 1863.85 916.709 1864.44 913.086C1866.67 917.749 1866.94 921.081 1865.44 926.04C1867.03 931.375 1867.62 942.525 1865.41 947.595C1868.04 946.426 1868.32 946.304 1869.76 943.837C1874.11 951.354 1870.28 987.302 1872.66 999.143C1872.98 999.119 1873.74 999.159 1873.99 998.97C1876.49 991.226 1880.61 983.331 1882.22 975.445L1884.83 974.767C1885.48 974.172 1886.07 973.53 1886.54 972.78C1890.16 967.008 1909.18 909.285 1910.72 902.236C1910.95 901.19 1910.76 900.073 1910.51 899.05Z"/>
	<path fill="#4E4B4E" d="M1865.41 947.595C1868.04 946.426 1868.32 946.304 1869.76 943.837C1874.11 951.354 1870.28 987.302 1872.66 999.143C1872.98 999.119 1873.74 999.159 1873.99 998.97C1876.49 991.226 1880.61 983.331 1882.22 975.445L1884.83 974.767C1886.6 979.102 1882.35 989.171 1880.53 993.531C1879.33 996.42 1878.12 999.019 1875.71 1001.1C1875.93 1002.09 1876.09 1002.72 1875.9 1003.73C1874.83 1009.58 1868.97 1020.41 1864.15 1023.81L1864.39 1023.24C1867.43 1016 1868.25 954.72 1865.41 947.595Z"/>
	<path fill="#4A3732" d="M1839.55 943.06L1841.02 944.353L1841.04 946.701C1841.53 949.895 1839.76 952.562 1837.94 955.062C1825.73 971.822 1825.24 981.021 1820.44 1000.35C1819.3 1004.96 1817.4 1009.32 1816.22 1013.9C1815.84 1015.36 1815.3 1016.44 1814.43 1017.67L1812.25 1017.82C1812.87 1016.75 1813.33 1015.7 1813.73 1014.53C1816.65 1005.99 1830.78 949.653 1827.9 943.745C1829.7 945.65 1830.36 946.881 1830.81 949.47C1831.72 952.406 1830.19 956.087 1831.75 958.621C1835.04 955.259 1838.63 947.67 1839.55 943.06Z"/>
	<path fill="#4E4B4E" d="M1874.72 718.1C1875.62 717.3 1876.47 716.444 1877.14 715.44C1880.15 710.935 1890.16 663.765 1889.2 659.071L1891.36 661.221C1893.34 665.686 1891.6 673.808 1890.9 678.607C1889.12 690.905 1885.61 703.03 1883.04 715.19C1880.04 729.369 1878.11 749.567 1872.25 762.438C1871.93 763.143 1871.48 763.647 1870.97 764.221C1871.23 765.056 1871.17 765.701 1871.14 766.566L1867.9 763.187C1871.44 755.905 1876.76 725.938 1874.72 718.1Z"/>
	<path fill="#51433E" d="M1851.2 832.355L1854.75 834.044C1855.39 842.975 1852.17 853.472 1850.4 862.274C1845.51 886.655 1839.05 911.086 1835.04 935.585L1833.57 937.201C1834.03 936.043 1834.5 934.864 1834.83 933.662C1835.61 930.798 1835.07 929.147 1833.72 926.68L1830.81 926.15C1831.28 925.614 1831.34 925.575 1831.72 925.04C1837.21 917.177 1841.78 890.589 1842.22 880.609C1842.4 876.676 1841.67 872.813 1840.92 868.969C1841.78 868.163 1842.36 867.437 1842.97 866.418C1845.87 861.583 1852.47 837.724 1851.2 832.355Z"/>
	<path fill="#51433E" d="M1908.46 896.859L1910.51 899.05C1910.76 900.073 1910.95 901.19 1910.72 902.236C1909.18 909.285 1890.16 967.008 1886.54 972.78C1886.07 973.53 1885.48 974.172 1884.83 974.767L1882.22 975.445C1882.34 975.341 1882.46 975.247 1882.57 975.134C1884.85 972.729 1908.42 902.513 1908.46 896.859Z"/>
	<path fill="#544C41" d="M1839.55 943.06C1845.48 935.84 1859.72 910.464 1867.14 908.226C1867.92 907.993 1868.69 908.702 1869.38 909.065C1871.14 912.991 1870.48 917.403 1869.13 921.362L1870.01 925.255L1869.19 926.545C1867.83 926.501 1866.75 926.458 1865.44 926.04C1866.94 921.081 1866.67 917.749 1864.44 913.086C1863.85 916.709 1845.45 943.351 1842.25 945.973C1841.9 946.261 1841.43 946.491 1841.04 946.701L1841.02 944.353L1839.55 943.06Z"/>
	<path fill="#544C41" d="M1867.9 763.187L1871.14 766.566C1871.17 765.701 1871.23 765.056 1870.97 764.221C1873.05 769.942 1865.33 801.301 1862.67 807.145C1861.7 809.268 1860.69 811.592 1858.79 813.027L1856.84 811.767C1859.16 807.76 1868.45 766.666 1867.9 763.187Z"/>
	<path fill="#5B5945" d="M1869.13 921.362C1872.32 925.925 1871.85 934.532 1871.04 940.087C1870.85 941.405 1870.35 942.65 1869.76 943.837C1868.32 946.304 1868.04 946.426 1865.41 947.595C1867.62 942.525 1867.03 931.375 1865.44 926.04C1866.75 926.458 1867.83 926.501 1869.19 926.545L1870.01 925.255L1869.13 921.362Z"/>
	<path fill="#544C41" d="M1916.93 873.627C1918.15 877.601 1918.54 880.781 1916.9 884.791C1915.47 889.301 1914.3 895.999 1910.51 899.05L1908.46 896.859C1913 891.592 1913.89 880.37 1916.93 873.627Z"/>
	<path fill="#755B53" d="M1708.97 411.116C1735.35 424.672 1762.64 447.131 1772.22 476.287C1781.68 505.064 1768.23 541.18 1755.07 566.562C1730.69 613.593 1692.35 657.693 1645.05 682.567C1632.25 689.298 1611.49 696.713 1597.5 701.17C1584.57 705.286 1567.37 708.77 1553.84 707.751C1558.72 703.624 1568.76 702.264 1572.09 697.503C1595.85 687.668 1611.15 669.953 1624.61 648.819L1625.62 648.59C1627.94 648.079 1629.15 646.9 1630.86 645.361C1648.04 629.818 1664.92 611.155 1679.59 593.243C1695.35 574.007 1749.32 499.628 1749.89 477.712C1750.51 453.902 1720.2 428.752 1705.32 413.078C1706.81 412.657 1707.75 412.012 1708.97 411.116Z"/>
	<path fill="#736661" d="M0 910.762C2.62665 914.858 5.27286 919.328 5.52538 924.314C6.03946 922.591 6.12914 922.224 7.48814 920.936L8.75166 922.084C12.4088 935.079 20.073 947.55 24.4367 960.493C25.4424 963.476 24.9629 968.631 27.1751 970.754L29.1328 970.948C31.9083 968.343 32.2606 965.165 32.4008 961.471C30.7875 952.403 31.5888 944.932 32.922 935.942L34.9067 935.322C34.2103 931.011 32.7146 926.066 35.4295 922.236L37.2636 922.271C41.4049 924.992 43.7261 929.707 46.431 933.773L47.1835 930.466C51.0791 935.798 67.5394 962.315 71.771 963.77L72.3729 961.66C68.1207 950.751 67.1511 937.25 65.3075 925.682C66.945 927.316 68.489 928.732 69.5217 930.839C71.9438 940.806 73.0704 950.995 75.2514 960.996C78.5612 980.067 80.8848 1004.77 86.8077 1022.78C92.749 1039.33 96.3318 1056.3 101.56 1073.02L90.8273 1073.07C77.2664 1072.58 9.35307 1074.9 3.03065 1072.5C2.09738 1072.14 0.860715 1071.01 0 1070.42L0 992.111L0 984.457L0 910.762Z"/>
	<path fill="#71695C" d="M0 992.111C2.25869 994.902 4.51031 997.674 6.93863 1000.32L9.62765 998.066C18.4916 1007.21 26.188 1017.38 35.277 1026.51C49.2122 1030.07 52.7389 1028.37 66.1349 1026.44L68.5267 1027.62C73.2344 1025.46 77.6841 1023.54 82.7407 1022.29L84.1882 1023.59L86.8077 1022.78C92.749 1039.33 96.3318 1056.3 101.56 1073.02L90.8273 1073.07C77.2664 1072.58 9.35307 1074.9 3.03065 1072.5C2.09738 1072.14 0.860715 1071.01 0 1070.42L0 992.111Z"/>
	<path fill="#544C41" d="M6.93863 1000.32L9.62765 998.066C18.4916 1007.21 26.188 1017.38 35.277 1026.51C49.2122 1030.07 52.7389 1028.37 66.1349 1026.44L68.5267 1027.62C61.0372 1032.11 51.8337 1033.29 43.2943 1031.8C26.6769 1028.92 15.9801 1013.28 6.93863 1000.32Z"/>
	<path fill="#544C41" d="M86.8077 1022.78C92.749 1039.33 96.3318 1056.3 101.56 1073.02L90.8273 1073.07C93.1208 1072.44 94.6907 1072.3 96.437 1070.57C92.7577 1058.14 84.7284 1035.8 84.1882 1023.59L86.8077 1022.78Z"/>
	<path fill="#51433E" d="M65.3075 925.682C66.945 927.316 68.489 928.732 69.5217 930.839C71.9438 940.806 73.0704 950.995 75.2514 960.996C78.5612 980.067 80.8848 1004.77 86.8077 1022.78L84.1882 1023.59L82.7407 1022.29C77.6841 1023.54 73.2344 1025.46 68.5267 1027.62L66.1349 1026.44C71.1966 1023.4 76.0851 1021.2 81.6075 1019.16C78.6779 992 76.8681 981.389 62.2886 957.921C57.1985 949.728 52.1094 941.576 46.431 933.773L47.1835 930.466C51.0791 935.798 67.5394 962.315 71.771 963.77L72.3729 961.66C68.1207 950.751 67.1511 937.25 65.3075 925.682Z"/>
	<path fill="#544C41" d="M5.52538 924.314C6.03946 922.591 6.12914 922.224 7.48814 920.936L8.75166 922.084C12.4088 935.079 20.073 947.55 24.4367 960.493C25.4424 963.476 24.9629 968.631 27.1751 970.754L29.1328 970.948C31.9083 968.343 32.2606 965.165 32.4008 961.471C33.1527 965.175 34.2738 971.678 32.3044 974.968C30.6978 975.57 30.4363 975.899 28.8153 975.065C27.7006 974.491 26.9066 973.417 26.121 972.467L24.7054 972.851C17.6486 965.066 16.6444 947.776 12.4693 938.182C10.3925 933.41 7.46888 929.341 5.52538 924.314Z"/>
	<path fill="#51433E" d="M32.922 935.942L34.9067 935.322C33.7812 950.402 34.7786 966.079 35.6555 981.191C35.9194 985.738 36.9119 990.484 36.786 995.02C36.7351 996.855 36.6602 998.605 35.5273 1000.07C34.9393 999.192 34.6369 998.445 34.3392 997.451C31.8013 988.977 27.8825 981.08 24.7054 972.851L26.121 972.467C26.9066 973.417 27.7006 974.491 28.8153 975.065C30.4363 975.899 30.6978 975.57 32.3044 974.968C34.2738 971.678 33.1527 965.175 32.4008 961.471C30.7875 952.403 31.5888 944.932 32.922 935.942Z"/>
	<path fill="#4E4B4E" d="M0 984.457C2.96479 988.966 5.81481 994.243 9.62765 998.066L6.93863 1000.32C4.51031 997.674 2.25869 994.902 0 992.111L0 984.457Z"/>
	<path fill="#736661" d="M110.922 902.767C114.729 903.637 120.988 904.069 123.792 906.833C123.676 907.899 123.599 908.472 123.14 909.463L118.924 910.72C124.574 933.146 153.816 1065.91 161.099 1073.05L101.56 1073.02C96.3318 1056.3 92.749 1039.33 86.8077 1022.78C80.8848 1004.77 78.5612 980.067 75.2514 960.996C73.0704 950.995 71.9438 940.806 69.5217 930.839C68.489 928.732 66.945 927.316 65.3075 925.682C65.3697 923.331 64.6123 920.711 64.1909 918.385C65.6595 918.4 67.0927 918.904 68.5115 919.27C82.3098 913.201 96.9167 908.463 110.922 902.767Z"/>
	<path fill="#2D2321" d="M110.922 902.767C114.729 903.637 120.988 904.069 123.792 906.833C123.676 907.899 123.599 908.472 123.14 909.463L118.924 910.72C106.111 916.239 79.316 923.581 69.5217 930.839C68.489 928.732 66.945 927.316 65.3075 925.682C65.3697 923.331 64.6123 920.711 64.1909 918.385C65.6595 918.4 67.0927 918.904 68.5115 919.27C82.3098 913.201 96.9167 908.463 110.922 902.767Z"/>
	<path fill="#71695C" d="M1869.66 1041.12C1883.33 1035.59 1908.49 1008.81 1916.71 996.144C1917.12 998.025 1917.12 998.971 1916.67 1000.84C1918.77 1005.53 1919.18 1064.59 1917.08 1069.87C1917.03 1070.01 1916.96 1070.14 1916.9 1070.28C1915.47 1072.24 1915.22 1072.58 1912.66 1072.88C1899.97 1074.4 1885.57 1073.07 1872.71 1073.05C1849.31 1073.03 1825.7 1073.69 1802.33 1072.89C1803.98 1068.62 1804.58 1063.35 1803.5 1058.87L1802.82 1060.33L1799.71 1059.86C1805.22 1052.33 1810.03 1027.78 1812.25 1017.82L1814.43 1017.67C1815.02 1019.88 1816.58 1021.82 1818.27 1023.34C1828.93 1032.94 1855.39 1041.57 1869.66 1041.12Z"/>
	<path fill="#51433E" d="M1869.66 1041.12C1883.33 1035.59 1908.49 1008.81 1916.71 996.144C1917.12 998.025 1917.12 998.971 1916.67 1000.84C1906.86 1014.7 1886.65 1037.06 1870.9 1043.91C1850.47 1047.1 1830.3 1035.36 1813.76 1024.53C1814.75 1028.6 1806.61 1053.92 1804.08 1057.97C1803.89 1058.27 1803.69 1058.57 1803.5 1058.87L1802.82 1060.33L1799.71 1059.86C1805.22 1052.33 1810.03 1027.78 1812.25 1017.82L1814.43 1017.67C1815.02 1019.88 1816.58 1021.82 1818.27 1023.34C1828.93 1032.94 1855.39 1041.57 1869.66 1041.12Z"/>
	<path fill="#736661" d="M1811.99 936.222C1816.66 936.863 1821.07 938.919 1825.22 941.089C1826.6 941.999 1827.26 942.188 1827.9 943.745C1830.78 949.653 1816.65 1005.99 1813.73 1014.53C1813.33 1015.7 1812.87 1016.75 1812.25 1017.82C1810.03 1027.78 1805.22 1052.33 1799.71 1059.86L1802.82 1060.33L1803.5 1058.87C1804.58 1063.35 1803.98 1068.62 1802.33 1072.89L1793.34 1072.91C1779.1 1073.53 1764.52 1073.17 1750.25 1072.91C1752.05 1072.73 1753.71 1072.27 1755.45 1071.78C1766.12 1050.09 1775.05 1027.38 1784.8 1005.27L1801.57 966.244C1804.64 959.144 1808.38 952.042 1810.91 944.743C1811.84 942.069 1812.72 939.033 1811.99 936.222Z"/>
	<path fill="#4E4B4E" d="M1799.71 1059.86L1802.82 1060.33L1803.5 1058.87C1804.58 1063.35 1803.98 1068.62 1802.33 1072.89L1793.34 1072.91C1794.13 1072.66 1794.13 1072.7 1794.93 1072.21C1797.61 1070.52 1799.01 1062.93 1799.71 1059.86Z"/>
	<path fill="#4A3732" d="M1596.54 866.98C1608.15 867.613 1620.13 870.498 1631.59 872.521C1684.27 881.817 1735 896.221 1785.49 913.844C1794.93 917.138 1805.58 919.786 1814.53 924.091L1816.62 924.289C1819.9 925.13 1824.41 925.727 1826.79 928.181C1828.41 928.645 1829.42 929.037 1831.06 928.37L1830.81 926.15L1833.72 926.68C1835.07 929.147 1835.61 930.798 1834.83 933.662C1834.5 934.864 1834.03 936.043 1833.57 937.201C1834.36 940.633 1833.54 945.458 1831.6 948.419C1831.27 948.921 1831.16 949.045 1830.81 949.47C1830.36 946.881 1829.7 945.65 1827.9 943.745C1827.26 942.188 1826.6 941.999 1825.22 941.089C1821.07 938.919 1816.66 936.863 1811.99 936.222L1810.48 935.135C1777.62 921.265 1743.17 911.009 1708.99 900.96C1694.09 896.581 1679.35 891.666 1664.33 887.721C1641.54 881.731 1617.14 877.705 1594.98 869.932L1596.54 866.98Z"/>
	<path fill="#2D2321" d="M1814.53 924.091L1816.62 924.289C1819.9 925.13 1824.41 925.727 1826.79 928.181C1828.41 928.645 1829.42 929.037 1831.06 928.37L1830.81 926.15L1833.72 926.68C1835.07 929.147 1835.61 930.798 1834.83 933.662C1834.5 934.864 1834.03 936.043 1833.57 937.201C1834.36 940.633 1833.54 945.458 1831.6 948.419C1831.27 948.921 1831.16 949.045 1830.81 949.47C1830.36 946.881 1829.7 945.65 1827.9 943.745C1827.26 942.188 1826.6 941.999 1825.22 941.089C1821.07 938.919 1816.66 936.863 1811.99 936.222L1810.48 935.135L1811.92 933.122C1813.21 933.508 1813.82 934.081 1814.75 934.999L1815.09 935.345C1818.88 934.543 1820.1 930.264 1823.5 928.515C1824.28 928.118 1823.65 928.493 1824.51 927.927C1822.01 927.178 1817.07 926.629 1815.24 924.851C1814.99 924.61 1814.77 924.345 1814.53 924.091Z"/>
	<path fill="#0A0A0A" d="M1916.9 1070.28L1916.36 1074L0 1074L0 1070.42C0.860715 1071.01 2.09738 1072.14 3.03065 1072.5C9.35307 1074.9 77.2664 1072.58 90.8273 1073.07L101.56 1073.02L161.099 1073.05L243.325 1073C256.878 1072.99 270.666 1072.44 284.196 1073.04C292.356 1073.04 300.841 1073.54 308.96 1072.96L1152.45 1073.01L1442.92 1073C1493.85 1073 1544.82 1073.48 1595.74 1072.93C1601.77 1073.2 1610.25 1074.37 1616.07 1072.92L1705.86 1073.01C1720.55 1073.01 1735.61 1073.67 1750.25 1072.91C1764.52 1073.17 1779.1 1073.53 1793.34 1072.91L1802.33 1072.89C1825.7 1073.69 1849.31 1073.03 1872.71 1073.05C1885.57 1073.07 1899.97 1074.4 1912.66 1072.88C1915.22 1072.58 1915.47 1072.24 1916.9 1070.28Z"/>
	<path fill="#4A3732" d="M220.959 874.731C236.852 868.787 302.512 858.344 320.551 857.413L316.552 859.242C319.539 859.264 322.691 859.036 325.498 860.192C303.773 862.599 279.316 874.014 259.889 874.625C224.071 882.952 188.299 890.56 152.929 900.692C143.006 903.534 132.855 905.974 123.14 909.463C123.599 908.472 123.676 907.899 123.792 906.833C120.988 904.069 114.729 903.637 110.922 902.767L117.546 901.144C151.706 889.761 185.526 881.284 220.959 874.731Z"/>
	<path fill="#755B53" d="M1163.75 494.426C1160.7 497.231 1154.37 498.66 1150.29 498.998C1137.74 500.036 1125.3 491.429 1116.2 483.566C1111.19 479.23 1098.96 468.509 1098.48 461.934C1100.63 461.562 1116.1 485.185 1128.8 487.393C1142 489.69 1158.27 477.965 1168.71 470.652L1170.54 471.738C1167.51 479.06 1143.67 488.182 1144.32 493.541C1153.37 496.738 1167.75 489.674 1175.96 485.745C1182.96 482.398 1191.56 475.28 1198.71 473.686L1199.33 475.793C1191.94 483.668 1173.97 490.444 1163.75 494.426Z"/>
	<path fill="#736661" d="M1840.92 868.969C1841.67 872.813 1842.4 876.676 1842.22 880.609C1841.78 890.589 1837.21 917.177 1831.72 925.04C1831.34 925.575 1831.28 925.614 1830.81 926.15L1831.06 928.37C1829.42 929.037 1828.41 928.645 1826.79 928.181C1824.41 925.727 1819.9 925.13 1816.62 924.289L1818.58 923.187C1821.87 916.532 1839.94 874.012 1840.92 868.969Z"/>
	<path fill="#51433E" d="M284.196 1073.04C307.67 1067.06 330.408 1056.51 352.769 1047.31C365.909 1041.9 379.35 1037.17 392.671 1032.23C398.322 1030.13 404.033 1026.81 409.669 1025.12C412.001 1024.42 413.916 1024.26 416.347 1024.59C413.424 1028.97 365.733 1044.43 355.534 1048.88C343.656 1054.06 318.665 1065.53 308.96 1072.96C300.841 1073.54 292.356 1073.04 284.196 1073.04Z"/>
	<path fill="#736661" d="M468.109 697.645C492.854 695.219 517.92 695.328 542.746 694.157C564.312 693.139 586.211 690.709 607.782 691.027L607.841 692.968C581.14 695.808 555.06 696.019 528.292 696.911C509.878 697.525 491.164 698.877 472.756 700.016C469.95 699.701 469.911 699.795 468.109 697.645Z"/>
	<defs>
		<linearGradient id="gradient_0" gradientUnits="userSpaceOnUse" x1="631.09772" y1="695.97272" x2="658.42383" y2="683.4707">
			<stop offset="0" stop-color="#474248"/>
			<stop offset="1" stop-color="#69605B"/>
		</linearGradient>
	</defs>
	<path fill="url(#gradient_0)" d="M654.231 682.253C656.9 682.099 659.133 681.789 661.546 683.2C662.595 685.617 661.024 688.765 662.604 690.288C666.468 690.845 669.022 691.228 671.984 693.912C650.583 694.158 629.225 692.132 607.841 692.968L607.782 691.027C612.093 691.11 616.794 690.076 621.085 689.516C631.753 689.159 645.289 688.436 654.231 682.253Z"/>
	<path fill="#4A3732" d="M1571.25 1059.93C1563.79 1054.64 1552.85 1050.65 1544.43 1047.1C1526.83 1039.7 1508.95 1032.89 1491.44 1025.28L1492.05 1024.62C1505.35 1030.75 1569.41 1047.62 1574.84 1056.21L1573.92 1057.14L1574.2 1058.58L1571.25 1059.93Z"/>
	<path fill="#755B53" d="M1568.55 866.921C1551.83 865.445 1534.93 861.44 1518.29 858.973C1505.37 857.058 1477.22 856.597 1466.93 851.932L1467.7 851.253C1474.54 850.807 1567.44 862.133 1569.47 863.232C1569.16 864.424 1568.7 865.704 1568.55 866.921Z"/>
	<path fill="#755B53" d="M769.316 507.786C769.834 505.369 769.873 503.524 771.61 501.668L776.413 501.929L775.938 502.989L773.358 503.252C773.443 508.834 785.853 525.506 788.842 532.178C790.689 536.3 795.032 555.095 795.231 559.79L794.445 560.537C789.013 556.248 790.594 547.648 788.297 541.686C784.436 531.661 770.831 516.014 769.316 507.786Z"/>
	<path fill="#2D2321" d="M1574.84 1056.21C1581.15 1058.07 1611.33 1070.1 1616.07 1072.92C1610.25 1074.37 1601.77 1073.2 1595.74 1072.93L1595.33 1071.57C1587.82 1066.83 1579.42 1063.36 1571.25 1059.93L1574.2 1058.58L1573.92 1057.14L1574.84 1056.21Z"/>
	<path fill="#51433E" d="M389.969 848.774L390.439 851.069C377.753 851.841 364.763 853.777 352.249 855.967C344.174 857.38 333.57 860.608 325.498 860.192C322.691 859.036 319.539 859.264 316.552 859.242L320.551 857.413C329.665 852.493 375.962 850.803 389.969 848.774Z"/>
	<path fill="#787880" d="M426.929 700.372C434.937 695.859 458.333 697.562 468.109 697.645C469.911 699.795 469.95 699.701 472.756 700.016C455.371 704.014 438.438 703.601 420.742 703.282C423.085 702.595 424.877 701.689 426.929 700.372Z"/>
	<path fill="#755B53" d="M1321.25 691.032C1335.37 690.778 1350.05 693.961 1364.09 695.661C1371.91 696.608 1380.47 696.776 1388.11 698.592L1388.85 700.49C1370.1 702.049 1339.94 694.783 1319.69 693.896C1320.45 692.922 1320.76 692.158 1321.25 691.032Z"/>
	<path fill="#755B53" d="M389.969 848.774C395.694 847.374 426.263 845.537 430.701 848.435C430.827 848.518 430.932 848.63 431.048 848.727C429.967 850.244 427.961 850.346 426.167 850.657C415.853 852.445 400.817 852.38 390.439 851.069L389.969 848.774Z"/>
	<path fill="#51433E" d="M1569.47 863.232C1575.47 863.702 1592.28 863.498 1596.54 866.98L1594.98 869.932L1594.45 870.999C1586.12 870.901 1576.82 868.349 1568.55 866.921C1568.7 865.704 1569.16 864.424 1569.47 863.232Z"/>
	<path fill="#755B53" d="M1216.15 684.433C1219.36 684.575 1234.36 690.622 1236.57 693.201C1237.6 694.404 1238.25 696.204 1238.87 697.652C1238.36 697.85 1237.73 697.96 1237.2 698.052C1230.08 699.289 1221.86 688.523 1216.15 684.433Z"/>
	<path fill="#71695C" d="M0 0L59.0653 0L109.34 0L146.749 0L157.764 0L224.332 0L281.704 0L236.661 103.672C229.74 119.609 222.204 135.325 215.654 151.418C205.323 176.797 196.47 202.7 186.841 228.338C184.996 233.25 176.364 249.525 177.799 253.483L179.65 254.514C172.94 270.508 167.168 286.726 160.871 302.872C155.828 315.802 150.255 328.542 145.348 341.516C140.838 353.438 122.775 407.29 116.617 414.676C113.25 394.887 110.314 342.6 112.89 323.099L113.717 321.216C111.785 302.31 113.058 281.564 113.659 262.516C113.964 252.865 115.387 241.406 113.409 232.023C87.3691 223.755 62.4222 213.527 37.213 203.038C27.006 198.791 16.9893 193.796 6.58393 190.083C5.14414 190.238 3.31949 189.873 1.85616 189.737L0 189.981L0 106.018L0 99.4553L0 0Z"/>
	<path fill="#0A0A0A" d="M0 0L59.0653 0L109.34 0L146.749 0C139.308 53.7968 129.07 106.93 122.775 160.945C120.578 179.793 117.338 200.03 117.892 218.972C117.326 224.44 116.433 227.357 113.409 232.023C87.3691 223.755 62.4222 213.527 37.213 203.038C27.006 198.791 16.9893 193.796 6.58393 190.083C5.14414 190.238 3.31949 189.873 1.85616 189.737L0 189.981L0 106.018L0 99.4553L0 0Z"/>
	<path fill="#71695C" d="M0 0L59.0653 0L109.34 0C102.512 14.5941 93.1207 28.6162 85.1171 42.6297L31.3861 136.415C24.6072 148.258 9.29375 182.997 1.85616 189.737L0 189.981L0 106.018L0 99.4553L0 0Z"/>
	<path fill="#958F76" d="M0 0L59.0653 0C52.9903 7.56846 49.004 16.0688 44.0672 24.329C39.2412 32.4039 33.6611 40.1972 29.5944 48.6886C18.2444 64.7071 11.0316 83.3101 0 99.4553L0 0Z"/>
	<path fill="#7E7660" d="M29.5944 48.6886C27.436 59.9381 9.48958 98.2237 1.34856 104.934C1.18532 105.069 1.02651 105.209 0.864396 105.345C0.584494 105.579 0.292427 105.799 0 106.018L0 99.4553C11.0316 83.3101 18.2444 64.7071 29.5944 48.6886Z"/>
	<path fill="#958F76" d="M157.764 0L224.332 0C218.133 12.05 213.192 25.1401 207.628 37.529C192.784 70.5822 178.556 103.598 164.935 137.177C161.668 145.23 158.238 153.257 155.253 161.418C152.966 167.673 151.313 174.209 148.402 180.208L147.198 180.371C146.319 175.767 147.766 170.661 147.675 165.949C147.561 160.018 146.683 154.195 146.839 148.227C146.932 144.662 147.851 141.16 148.025 137.564C148.291 132.04 147.622 126.492 147.979 120.973C148.702 109.77 150.438 98.3904 151.499 87.184C154.253 58.0936 156.758 29.2208 157.764 0Z"/>
	<path fill="#4E4B4E" d="M117.892 218.972C119.328 237.948 116.828 257.028 116.396 275.986C116.094 289.231 118.037 306.767 115.414 319.431L113.717 321.216C111.785 302.31 113.058 281.564 113.659 262.516C113.964 252.865 115.387 241.406 113.409 232.023C116.433 227.357 117.326 224.44 117.892 218.972Z"/>
	<path fill="#71695C" d="M1759.43 0L1869.92 0L1916.36 0C1917.22 1.36946 1917.7 2.59511 1917.84 4.20499C1918.76 14.629 1919.32 73.024 1917.6 80.5897C1917.46 81.1936 1917.25 81.7847 1917.02 82.3586C1919.83 91.3571 1918.02 166.309 1918.03 183.158C1918.04 267.449 1919.36 351.969 1917.97 436.237C1917.93 439.04 1918.11 441.933 1916.83 444.503C1916.76 444.647 1916.68 444.785 1916.6 444.926C1915.43 442.957 1915.02 440.755 1913.6 438.676C1915.15 427.808 1901.77 389.19 1896.34 378.221C1897.12 373.433 1892.77 360.763 1890.15 356.6C1890.2 349.584 1882.06 332.497 1879.53 325.007L1852.6 245.175L1853.5 243.321C1853.2 230.975 1770.93 12.6944 1759.43 0Z"/>
	<path fill="#958F76" d="M1869.92 0L1916.36 0C1917.22 1.36946 1917.7 2.59511 1917.84 4.20499C1918.76 14.629 1919.32 73.024 1917.6 80.5897C1917.46 81.1936 1917.25 81.7847 1917.02 82.3586C1914.53 74.1639 1874.96 3.42904 1869.92 0Z"/>
	<path fill="#544C41" d="M1853.5 243.321C1857.49 247.238 1859.62 254.408 1861.64 259.527C1864.78 267.471 1892.8 347.811 1892.77 352.145C1892.77 352.676 1892.61 353.366 1892.52 353.86C1898.7 359.048 1898.65 368.153 1899.56 375.629C1898.64 376.667 1897.46 377.406 1896.34 378.221C1897.12 373.433 1892.77 360.763 1890.15 356.6C1890.2 349.584 1882.06 332.497 1879.53 325.007L1852.6 245.175L1853.5 243.321Z"/>
	<path fill="#4E4B4E" d="M1899.56 375.629C1905.32 381.799 1914.94 425.547 1915.9 435.744C1915.22 437.032 1914.75 437.721 1913.6 438.676C1915.15 427.808 1901.77 389.19 1896.34 378.221C1897.46 377.406 1898.64 376.667 1899.56 375.629Z"/>
</svg>
