<?xml version="1.0" encoding="utf-8" ?>
<svg xmlns="http://www.w3.org/2000/svg" xmlns:xlink="http://www.w3.org/1999/xlink" width="1024" height="1024">
	<path fill="#FEFEFE" d="M0 0L1024 0L1024 1024L0 1024L0 0Z"/>
	<path fill="#072F55" d="M539.744 145.642C558.144 148.699 580.037 155.432 594.15 168.194C593.857 162.153 593.102 156.739 591.498 150.903C604.222 162.287 611.991 178.195 613.145 195.229C613.171 195.623 613.19 196.017 613.202 196.411C615.72 191.489 617.744 186.471 619.746 181.325C620.805 192.316 620.28 202.16 616.729 212.737C615.432 216.602 613.525 220.411 612.451 224.317C611.599 227.417 612.082 231.069 609.936 233.691C608.205 235.807 605.072 237.089 602.673 238.305C603.578 248.383 603.773 259.012 605.388 268.959C604.063 271.816 602.523 274.589 600.565 277.068C596.67 278.616 592.604 279.752 588.742 281.335C586.457 284.547 584.58 287.119 580.429 287.859C576.243 288.605 568.939 285.02 565.874 288.409C563.948 290.538 563.992 294.609 563.844 297.341C564.056 297.353 564.269 297.362 564.481 297.377C567.67 297.594 585.342 302.914 588.162 304.285C589.16 304.77 589.762 305.39 590.569 306.1C590.882 306.374 591.226 306.612 591.554 306.868L592.238 307.409C592.303 306.594 592.234 305.966 592.128 305.161C596.689 301.776 606.612 300.323 612.235 298.253C616.407 296.717 620.389 294.702 624.535 293.097C632.386 290.057 640.359 287.468 648.056 284.024L648.116 272.812C650.476 272.134 652.847 271.496 655.23 270.9C657.203 272.018 659.161 273.188 661.177 274.227C660.503 271.86 659.872 269.471 659.112 267.13C661.255 264.627 663.53 260.746 667.01 260.364C667.779 260.28 668.314 260.435 669.026 260.697C669.994 261.746 670.198 262.664 670.528 264.001L670.755 264.027C671.389 262.638 671.521 262.16 672.779 261.231C674.32 261.338 675.251 261.366 676.515 262.377C676.83 263.32 677.151 264.254 677.51 265.182L677.966 265.387C679.313 264.334 679.875 263.677 681.589 263.414C683.514 264.574 683.916 266.33 685.371 267.839C688.613 271.202 691.946 273.381 693.259 278.214C693.912 280.623 693.663 283.02 692.395 285.185C689.144 290.736 677.919 299.306 671.965 301.942C668.106 301.199 664.369 299.873 660.859 302.256C654.825 306.353 650.42 313.049 644.619 317.619C639.058 321.999 632.505 323.94 626.833 327.815C619.603 332.753 614.207 340.212 606.838 345.079C602.427 347.993 597.243 347.806 592.545 349.797C587.111 352.1 582.416 356.064 576.897 358.504C574.816 364.993 571.654 369.396 567.138 374.446C569.164 390.918 559.625 409.748 565.493 426.392C568.165 433.969 574.318 444.667 578.301 451.99C579.982 455.082 582.707 458.917 583.529 462.301C583.829 463.537 583.749 464.368 583.048 465.477C581.542 467.861 577.498 468.286 574.973 468.795C580.319 474.012 584.116 480.855 589.422 486.308C607.202 504.579 626.799 520.948 641.572 541.975C642.199 539.886 643.092 533.587 644.816 532.662C649.247 530.282 673.187 531.401 679.556 531.385C713.321 531.216 747.087 531.249 780.851 531.483L806.174 531.454C806.915 513.137 804.999 494.131 801.63 476.135C789.822 413.813 757.718 357.151 710.327 314.99C703.611 309.086 696.918 303.34 689.537 298.278L696.627 291.683C706.436 298.334 715.788 306.763 724.257 315.049C772.57 361.419 803.916 422.667 813.27 488.975C815.05 502.424 815.485 515.842 815.622 529.39C836.529 521.996 857.786 515.301 878.839 508.317C873.515 515.206 866.269 521.371 860.169 527.625C845.122 543.1 829.969 558.471 814.709 573.737C811.369 593.333 810.996 618.992 799.141 635.568C794.831 641.594 788.074 645.451 784.007 651.465C780.506 656.643 777.702 662.443 774.483 667.816C768.463 677.734 762.173 687.486 755.622 697.062C754.323 693.628 752.755 690.419 751.075 687.157C757.748 676.709 765.012 666.286 770.795 655.336C757.19 660.224 742.949 658.938 728.959 656.673C736.976 673.089 744.409 689.895 751.762 706.618C756.69 717.825 761.442 730.402 768.053 740.69C769.521 740.813 771.051 740.904 772.494 741.207C774.631 741.657 776.476 742.699 777.575 744.628C778.972 747.079 778.044 750.531 777.43 753.05C784.577 756.491 791.775 759.838 798.81 763.505C805.176 766.822 811.734 770.924 818.495 773.306C823.345 775.015 828.749 772.222 833.483 774.448C838.459 776.788 834.73 778.65 835.891 781.99C836.607 782.428 837.036 782.651 837.896 782.715C839.138 782.807 840.397 782.841 841.643 782.91C842.902 785.804 844.562 789.874 843.154 792.984C842.522 794.38 841.455 794.814 840.08 795.23C827.96 798.896 756.656 808.058 748.771 803.543C744.299 800.982 742.452 796.161 741.209 791.446C745.988 778.436 750.036 781.359 746.861 764.761C745.89 763.941 744.936 763.1 744 762.24C742.468 760.812 740.942 758.985 741.112 756.745C741.299 754.286 743.309 752.786 744.993 751.256C733.087 734.405 710.203 715.263 694.66 701.466C671.247 701.419 647.64 702.832 624.227 703.525C618.862 708.635 613.905 714.063 608.321 718.964C591.953 733.33 573.315 745.482 554.714 756.727C541.594 764.659 527.764 771.693 514.954 780.068C515.632 780.06 516.31 780.041 516.987 780.011C580.74 777.446 644.297 751.112 687.909 703.814C691.393 708.129 695.351 711.99 699.331 715.842C699.081 716.115 698.828 716.386 698.574 716.655C652.886 764.9 584.863 796.166 518.362 797.88C458.949 799.013 400.88 780.136 353.491 744.283C341.936 735.655 331.457 726.004 321.014 716.103C325.861 714.58 330.682 712.988 335.727 712.261C342.41 711.299 349.732 711.845 356.497 711.856L394.98 711.995C397.789 716.409 401.497 720.511 404.996 724.402C424.197 745.754 448.602 761.164 474.803 772.457C465.817 752.018 455.525 731.872 445.34 712.002L457.053 711.995C468.671 734.008 479.328 756.814 490.162 779.233C499.037 772.783 509.658 767.545 519.212 762.113C548.983 745.185 580.588 728.533 604.995 704.103C598.381 704.707 591.564 704.531 584.917 704.685L550.798 705.533C542.024 712.91 533.059 720.057 523.912 726.967C516.675 719.937 508.766 713.414 501.032 706.935L378.969 706.691L348.478 706.467C342.028 706.417 334.488 705.552 328.239 707.041C314.055 710.419 280.65 729.344 268.261 738.125C266.044 739.696 260.821 742.932 260.355 745.711C260.83 746.332 261.5 747.069 261.82 747.777C262.121 748.446 262.323 749.091 262.06 749.792C260.39 754.248 253.641 753.304 250.023 755.194C248.126 758.383 252.278 760 252.44 763.156C251.423 764.037 250.689 764.689 250.088 765.933C250.204 771.154 250.358 777.733 252.561 782.524C255.692 789.336 264.348 789.947 270.589 792.387C272.782 794.985 273.761 797.294 274.725 800.496C274.335 802.225 273.95 804.226 272.923 805.707C271.256 808.112 268.092 809.429 265.31 809.945C260.409 810.854 239.652 811.2 234.736 810.305C232.417 809.883 230.363 808.901 228.476 807.5C223.486 803.796 205.854 771.202 202.627 763.909C201.02 760.276 199.685 756.419 199.048 752.487C198.353 748.201 198.213 744.431 200.94 740.83C201.701 739.824 202.581 738.95 203.613 738.221C211.481 732.661 220.749 738.62 229.607 731.273C232.356 728.992 233.92 725.664 236.415 723.183C237.257 722.346 238.031 722.131 239.173 721.975C241.102 722.422 242.161 723.695 243.545 725.039C265.814 708.259 283.275 683.656 299.472 661.343C284.556 661.506 269.638 661.522 254.722 661.391C259.994 671.135 266.175 680.009 272.248 689.245L266.808 695.775C257.588 686.379 250.507 673.049 244.16 661.632C229.386 661.462 214.609 661.595 199.84 662.029C203.518 633.296 207.289 604.454 210.405 575.658C187.701 553.192 166.987 528.673 143.386 507.079C164.984 515.025 186.653 522.776 208.39 530.331L208.409 526.215C209.585 447.299 241.814 372.026 298.111 316.712C358.228 257.754 435.196 230.443 518.622 231.135C517.982 233.677 517.612 236.132 517.315 238.73L516.749 238.726C508.755 238.717 500.558 239.435 492.582 240.04C421.313 245.448 353.764 273.839 302.987 324.787C247.883 379.414 217.092 453.925 217.557 531.515C226.171 531.448 234.786 531.44 243.4 531.491L243.367 527.702C243.059 457.06 273.53 390.751 323.128 341.068C359.781 304.353 407.186 280.935 457.678 270.368C471.342 267.508 484.996 265.208 498.995 265.196C496.871 265.855 494.989 266.761 493.006 267.751C485.368 271.309 481.732 278.279 476.47 284.414C465.518 286.77 454.435 288.405 443.634 291.45C394.434 305.32 353.299 332.909 320.169 371.628C355.557 354.44 406.388 340.136 444.872 332.856C440.719 337.215 437.115 341.164 434.31 346.508C404.58 353.24 375.335 361.962 346.775 372.614C337.791 375.984 328.979 379.887 320.158 383.665C315.571 385.629 310.783 387.976 306.002 389.405C300.806 413.94 297.387 438.819 295.773 463.847C319.146 488.014 344.345 512.166 371.802 531.692C395.564 531.289 419.33 531.221 443.094 531.488C443.112 515.256 444.603 500.003 454.307 486.382C457.729 481.579 461.858 477.258 465.157 472.377C468.11 468.007 469.221 462.232 472.862 458.417C474.798 456.388 477.288 455.45 479.866 454.507C475.806 450.873 464.275 442.865 463.883 437.42C463.795 436.19 464.486 435.016 465.448 434.286C467.622 432.636 471.032 432.499 473.674 432.146C473.73 431.974 473.785 431.801 473.843 431.629C475.101 427.931 477.07 426.947 480.465 425.287C480.886 425.082 481.309 424.881 481.733 424.684C481.824 423.576 481.836 422.591 481.777 421.482C481.69 419.856 482.001 419.015 483.087 417.801C485.309 415.316 487.977 414.2 487.573 410.36C487.383 408.547 486.631 407.824 485.496 406.556C483.688 404.537 482.646 402.482 482.923 399.702C483.081 398.12 483.532 396.46 483.479 394.872C483.324 390.22 477.446 376.022 475.847 370.065C474.43 373.824 471.265 392.566 470.397 393.674C469.192 395.213 465.676 396.749 463.952 397.804C461.118 399.539 455.604 403.061 455.895 406.816C456.02 406.965 456.147 407.113 456.271 407.263C457.381 408.613 458.23 409.554 457.989 411.418C457.551 414.805 455.262 416.795 453.536 419.509C450.65 424.046 445.455 433.838 445.539 439.158C445.568 441.035 446.3 442.795 447.41 444.287C450.528 448.476 455.022 452.243 458.75 455.928C457.412 460.557 452.717 469.079 448.506 471.517C446.702 472.562 444.925 472.735 442.928 472.171C439.461 471.192 436.339 468.292 433.635 466.002C431.453 466.298 429.254 466.547 427.088 466.946C427.527 468.833 427.894 471.29 428.931 472.937C430.024 474.672 436.449 481.197 436.409 482.514C436.405 482.644 435.911 483.59 435.783 483.804C434.667 485.686 432.126 486.608 430.108 487.083C425.815 488.091 421.698 487.7 417.36 487.35C414.753 493.035 413.652 496.106 407.491 498.343C405.962 498.898 403.798 499.237 402.453 500.067C401.788 502.536 400.89 503.461 398.662 504.694C395.466 506.461 391.322 507.29 387.73 507.902C385.872 507.095 383.801 506.386 382.036 505.416C380.016 504.468 377.768 503.85 375.653 503.131C376.483 502.558 377.135 501.967 377.866 501.279L377.846 500.587C370.027 500.679 362.458 504.932 356.269 505.518C354.923 505.127 353.988 504.693 352.929 503.753C344.549 496.316 341.416 484.547 335.941 475.196C333.212 470.534 329.486 466.312 327.378 461.318C325.81 457.601 325.079 453.793 324.926 449.775C324.646 442.361 324.135 433.442 329.681 427.736C333.839 423.457 343.898 417.368 349.846 417.321C350.031 417.319 350.215 417.327 350.399 417.33C353.579 414.002 355.561 409.212 358.562 405.611C362.464 400.928 366.864 397.781 373.117 397.298C385.672 396.328 394.189 405.788 402.844 413.432C410.909 412.993 417.208 415.347 423.578 420.106C424.175 427.851 424.606 436.198 422.568 443.776C421.49 447.784 419.922 451.705 419.025 455.756C418.055 460.138 419.885 473.445 422.927 477.172C423.819 478.266 424.14 478.357 425.442 478.569C425.465 475.929 424.216 473.132 423.429 470.63C419.91 459.435 422.341 455.281 425.776 444.869C427.739 438.922 427.894 419.751 425.82 413.837C424.644 410.485 421.991 407.95 420.655 404.737C420.141 403.501 420.336 402.971 420.874 401.813C422.517 400.416 424.558 400.109 426.601 399.588C425.782 397.308 424.411 394.174 425.329 391.762C426.146 389.615 428.319 388.827 430.233 387.926C430.49 369.796 433.87 349.691 447.584 336.499C450.92 333.289 455.992 331.575 458.66 327.71C462.799 321.715 463.454 313.225 466.955 306.688C471.282 298.61 477.653 293.252 482.554 285.958C482.637 285.834 482.717 285.708 482.799 285.583C482.961 285.397 483.128 285.214 483.287 285.025C485.055 282.919 486.06 279.666 487.35 277.208C490.684 270.851 499.61 267.79 505.808 264.819C506.102 264.844 506.396 264.872 506.69 264.893C507.863 264.977 507.391 264.991 508.43 264.848C508.721 261.435 504.239 256.726 508.141 253.841C510.341 252.214 514.884 252.126 517.61 251.773C522.992 246.533 523.464 241.133 524.784 234.266C525.178 232.215 525.955 230.069 526.078 227.989C526.149 226.802 525.956 226.393 525.143 225.512C521.066 221.098 499.427 230.264 498.476 215.068C498.254 211.525 499.804 208.424 502.24 205.922C503.74 204.381 505.513 203.054 507.244 201.786C503.79 201.119 500.753 200.545 497.22 201.147C490.403 202.309 483.947 206.07 477.778 209.072C467.736 213.958 457.235 219.495 446.444 222.478C433.325 226.104 418.622 225.987 405.074 226.305L419.165 216.974C415.092 213.285 410.866 209.642 407.259 205.487C414.379 208.059 421.917 211.438 429.285 213.116C444.898 216.671 461.987 206.099 475.901 200.228C481.731 197.767 488.799 194.825 495.174 194.358C503.209 193.77 520.001 202.708 524.14 201.319C523.938 200.353 523.617 199.643 523.157 198.772C524.352 197.35 526.682 196.737 528.377 196.052C521.699 192.894 515.201 191.811 507.95 190.633C516.455 185.759 525.119 182.166 534.51 179.402C529.572 174.969 523.837 172.968 517.417 171.671C529.321 166.301 540.888 164.222 553.909 165.62C549.384 158.823 544.66 152.161 539.744 145.642Z"/>
	<path fill="#194164" d="M382.036 505.416C385.588 503.499 391.03 503.51 395.049 502.623C397.639 502.052 400.016 501.093 402.453 500.067C401.788 502.536 400.89 503.461 398.662 504.694C395.466 506.461 391.322 507.29 387.73 507.902C385.872 507.095 383.801 506.386 382.036 505.416Z"/>
	<path fill="#FEFEFE" d="M289.301 554.989L311.402 554.979C307.281 581.547 302.228 607.961 298.293 634.564C293.366 634.385 288.083 633.788 283.189 634.367C273.01 621.642 262.938 608.271 253.887 594.721C253.307 599.999 248.323 632.774 246.874 634.499C239.576 634.483 232.274 634.61 224.976 634.682C227.524 621.788 229.372 608.696 231.449 595.717C233.596 582.297 235.973 568.869 237.655 555.381L252.24 555.475C262.603 568.885 272.377 583.118 282.243 596.912C283.413 582.989 286.805 568.741 289.301 554.989Z"/>
	<path fill="#EB8847" d="M292.119 558.142C297.363 558.422 302.713 558.275 307.969 558.314C303.664 582.703 299.568 607.129 295.681 631.588L285.332 631.538C272.85 618.509 263.826 602.285 252.369 588.386C252.342 588.48 252.316 588.574 252.288 588.667C249.232 598.857 248.026 610.736 246.12 621.304C245.555 624.438 245.362 628.752 244.103 631.625L243.048 631.824L228.685 631.643L240.494 558.487L250.878 558.504C262.238 573.357 272.459 589.149 283.673 604.132C285.504 597.565 286.253 590.528 287.317 583.8C288.643 575.198 290.244 566.641 292.119 558.142Z"/>
	<path fill="#FEFEFE" d="M410.553 555.083C417.958 555.087 425.364 555.147 432.768 555.261C429.09 574.871 426.083 594.64 422.812 614.323C421.772 620.575 421.707 627.918 419.788 633.88L418.875 634.274L403.798 634.041C394.856 621.002 385.305 608.276 376.745 594.995C374.55 608.168 372.207 621.317 369.717 634.437C362.245 634.222 354.724 634.45 347.248 634.508C348.868 628.091 349.59 621.356 350.755 614.837C353.023 602.815 355.186 590.774 357.245 578.715C358.517 570.942 359.421 562.788 361.536 555.194L375.325 555.212C385.099 566.225 395.144 582.078 403.725 594.399C405.76 581.272 408.31 568.181 410.553 555.083Z"/>
	<path fill="#EB8847" d="M363.8 558.073C367.224 558.355 370.715 558.277 374.152 558.318C385.046 572.176 393.735 587.786 405.331 601.034C409.027 587.246 410.8 572.458 413.282 558.377L428.717 558.464C427.184 577.15 422.702 596.388 419.559 614.933C418.839 619.177 418.454 626.879 417.079 630.559L416.06 630.93L405.561 630.891C401.448 625.596 397.76 619.911 393.854 614.456C390.767 610.144 387.43 606.003 384.42 601.639C381.303 597.122 378.435 592.486 375.089 588.125C371.647 602.529 369.972 617.301 367.257 631.849L351.391 631.777C352.579 624.878 353.422 617.915 354.629 611.01C357.712 593.374 361.142 575.78 363.8 558.073Z"/>
	<path fill="#FEFEFE" d="M510.725 554.981L532.748 554.931C530.469 565.348 528.729 575.917 526.888 586.419C525.874 592.205 524.129 598.69 524.197 604.57C524.218 606.35 524.83 608.199 525.728 609.725C527.253 612.316 529.795 614.287 532.759 614.902C536.407 615.66 540.348 615.007 543.407 612.851C546.458 610.7 548.524 607.515 549.887 604.085C552.527 597.444 553.12 589.673 554.245 582.642C555.688 573.419 557.204 564.208 558.794 555.01L581.205 554.978C580.771 560.534 579.524 566.125 578.57 571.615C574.539 590.322 575.79 614.648 558.989 627.316C550.501 633.717 538.377 636.223 527.94 634.736C519.942 633.596 512.065 629.528 507.327 622.853C504.435 618.779 502.865 614.002 502.467 609.041C501.565 597.815 508.5 567.193 510.725 554.981Z"/>
	<path fill="#EB8847" d="M512.955 558.027L528.748 558.09C527.626 571.291 520.857 593.295 521.646 605.135C521.82 607.742 522.575 610.268 524.015 612.459C525.983 615.452 529.085 617.233 532.554 617.912C536.767 618.735 540.968 618.057 544.523 615.596C554.63 608.601 555.424 593.07 557.234 582.065C558.492 574.073 559.843 566.095 561.287 558.134L577.79 558.111C576.686 562.08 576.188 566.323 575.49 570.387C574.355 577.062 573.298 583.75 572.319 590.45C570.325 603.699 568.595 616.47 557.04 625.02C549.026 630.951 537.718 633.299 527.926 631.802C520.933 630.733 513.915 627.345 509.791 621.434C507.36 617.95 506.051 613.889 505.593 609.689C504.313 597.939 510.682 570.581 512.955 558.027Z"/>
	<path fill="#FEFEFE" d="M773.69 554.736L794.961 554.862L794.85 555.7C793.728 564.016 792.074 572.276 790.747 580.565C788.111 597.028 787.196 617.044 772.692 627.942C764.433 634.148 753.491 636.441 743.349 634.94C735.321 633.752 727.763 630.227 722.965 623.431C715.601 613.002 718.452 601.102 720.624 589.568C721.932 578.015 724.56 566.396 726.274 554.863C733.652 554.788 741.042 554.905 748.421 554.928C746.756 565.826 744.269 576.641 742.267 587.487C741.26 592.942 739.899 598.787 739.943 604.346C739.963 606.753 740.546 609.314 741.908 611.331C743.525 613.725 745.998 614.751 748.761 615.237C752.257 615.853 755.697 615.157 758.566 613.036C761.352 610.978 763.169 608.002 764.424 604.823C766.535 599.478 767.196 593.29 768.195 587.643L773.69 554.736Z"/>
	<path fill="#EB8847" d="M729.929 557.734L744.982 557.85C742.964 569.215 736.817 594.605 737.228 604.967C737.345 607.914 738.042 610.856 739.694 613.338C741.447 615.972 744.044 617.649 747.154 618.205C751.713 619.02 756.733 618.104 760.468 615.308C763.501 613.037 765.622 609.814 767.002 606.32C769.4 600.243 769.882 593.395 770.999 587C772.696 577.287 774.563 567.618 776.181 557.888L791.454 557.985C790.6 562.589 789.949 567.25 789.2 571.873C787.578 581.573 786.467 591.44 784.493 601.068C782.348 611.525 778.358 620.907 769.087 626.88C761.01 632.084 750.365 633.71 741.031 631.644C734.433 630.183 728.175 626.906 724.561 620.983C722.303 617.213 721.064 612.922 720.965 608.529C720.668 599.233 723.582 589.21 725.153 580.04C726.384 572.857 727.046 565.355 728.86 558.305L729.929 557.734Z"/>
	<path fill="#FEFEFE" d="M681.804 554.165C682.003 554.132 682.2 554.091 682.4 554.067C693.136 552.746 704.967 555.898 713.191 562.981C709.251 567.96 705.359 572.977 701.515 578.03C696.219 574.717 691.491 571.615 684.96 571.457C682.138 571.388 678.563 572.068 676.524 574.202C675.889 574.867 675.445 575.887 675.544 576.813C676.166 582.65 687.448 583.896 691.973 585.449C695.277 586.583 698.522 588.128 701.292 590.271C705.904 593.822 708.86 599.108 709.472 604.897C710.197 611.327 707.9 617.764 703.855 622.727C696.87 631.297 687.013 633.852 676.497 634.997C675.438 634.992 674.396 634.94 673.341 634.852C662.954 633.986 651.631 630.653 644.671 622.449C649.012 617.496 653.244 612.44 657.515 607.427C663.923 612.404 670.384 616.862 678.954 616.388C681.272 616.26 684.661 615.472 686.102 613.461C686.871 612.388 687.014 611.116 686.876 609.842C686.266 604.214 674.244 602.595 669.771 601.112C666.748 600.109 663.78 598.791 661.17 596.948C657.464 594.33 654.837 590.76 654.11 586.22C653.067 579.709 654.813 572.235 658.766 567.016C664.402 559.576 672.67 555.387 681.804 554.165Z"/>
	<path fill="#EB8847" d="M686.612 556.716C695.417 557.002 701.639 559.227 709.27 563.56C706.23 566.963 703.597 570.552 700.945 574.254C697.864 572.157 694.318 570.392 690.68 569.517C686.145 568.426 680.66 568.143 676.575 570.81C674.748 572.003 673.142 573.923 672.835 576.142C671.338 586.96 695.265 585.597 703.431 596.575C706.401 600.568 707.009 605.556 706.205 610.375C705.136 616.786 701.734 622.248 696.477 626.028C688.239 631.951 678.034 632.862 668.281 631.267C660.824 629.698 654.407 626.688 647.765 623.022C651.255 619.121 654.945 615.29 657.981 611.02C662.658 615.278 667.247 618.292 673.685 619.247C677.966 619.883 682.924 619.981 686.484 617.158C688.405 615.635 691.021 612.602 690.997 609.987C690.926 601.92 669.608 600.113 662.539 594.341C659.127 591.555 656.866 587.791 656.527 583.351C656.108 577.856 658.533 571.141 662.183 566.963C668.521 559.707 677.357 557.251 686.612 556.716Z"/>
	<path fill="#FEFEFE" d="M454.182 555.039L499.809 554.816C497.136 571.103 494.7 587.783 491.277 603.911C489.079 614.264 484.612 624.588 475.301 630.447C466.827 635.779 456.904 635.792 447.46 633.616C438.944 630.213 434.872 624.266 431.331 616.262C437.681 613.243 444.023 610.335 450.283 607.124C450.759 608.323 451.247 609.514 451.835 610.664C452.918 612.779 454.436 614.598 456.806 615.255C458.936 615.846 461.139 615.593 462.996 614.361C465.339 612.805 466.841 610.222 467.834 607.653C470.687 600.272 472.728 582.959 474.389 573.994L450.819 574.029C452.266 567.816 453.098 561.333 454.182 555.039Z"/>
	<path fill="#EB8847" d="M456.679 558.175L496.044 558.233C491.949 574.913 492.07 595.279 486.375 611.256C483.557 619.162 477.958 626.379 470.164 629.856C462.63 633.216 454.244 632.644 446.71 629.728C441.117 626.761 438.326 623.01 435.341 617.64C439.804 615.648 444.156 613.486 448.511 611.273C448.908 612.009 449.312 612.744 449.767 613.447C451.411 615.989 453.629 617.773 456.647 618.345C459.663 618.916 462.569 618.575 465.096 616.745C467.853 614.749 469.644 611.621 470.846 608.501C474.24 599.684 476.163 580.471 477.538 570.604C469.809 570.617 462.081 570.671 454.353 570.764C455.474 566.708 455.978 562.329 456.679 558.175Z"/>
	<path fill="#FEFEFE" d="M589.406 555.07C610.666 555.066 631.979 554.888 653.233 555.41C652.107 561.265 650.917 567.102 650.226 573.029L628.503 573.02C625.815 587.174 623.546 601.434 620.931 615.609C619.839 621.739 618.631 627.849 617.309 633.934C610.119 633.895 602.93 633.915 595.741 633.996L602.445 596.377C603.807 588.9 604.952 581.335 606.842 573.969L585.645 574C586.645 567.642 587.899 561.327 589.406 555.07Z"/>
	<path fill="#EB8847" d="M591.714 558.123C598.419 558.554 605.275 558.274 612.002 558.306L648.987 558.512C648.399 562.348 647.859 566.193 647.368 570.043L626.27 569.99C624.94 574.903 624.274 580.178 623.358 585.195C621.589 594.746 619.873 604.307 618.211 613.878C616.804 619.378 616.163 625.379 615.168 630.99L599.227 630.924C601.236 617.533 603.962 604.193 606.417 590.875C607.633 584.276 609.15 577.569 609.711 570.888L589.371 570.741C590.095 566.524 590.876 562.318 591.714 558.123Z"/>
	<path fill="#FEFEFE" d="M325.179 555.195L347.596 555.138C343.514 581.663 338.374 608.001 334.154 634.5L311.776 634.452C315.933 607.991 320.698 581.604 325.179 555.195Z"/>
	<path fill="#EB8847" d="M328.051 558.35C333.425 558.553 338.866 558.414 344.247 558.427C341.887 572.432 339.445 586.422 336.92 600.398C334.987 610.861 332.762 621.34 331.306 631.879C326.032 631.735 320.744 631.732 315.468 631.665C316.999 624.038 317.968 616.211 319.211 608.527C321.869 591.752 324.816 575.024 328.051 558.35Z"/>
	<path fill="#EB8847" d="M371.664 430.3C376.886 429.303 382.971 430.642 388.361 430.626C390.162 432.676 391.817 434.85 393.313 437.131C394.916 439.59 407.585 461.545 407.645 462.568C403.999 467.305 388.746 469.53 382.811 472.017C382.61 472.101 382.411 472.19 382.211 472.277C380.75 473.203 379.357 474.283 377.947 475.289C368.967 470.638 358.896 467.458 348.975 465.612C349.94 462.273 359.434 435.276 360.685 433.641C362.797 430.881 368.492 430.711 371.664 430.3Z"/>
	<path fill="#072F55" d="M376.664 438.589C378.098 438.45 379.544 438.477 380.972 438.672C383.565 439.027 388.26 439.711 389.884 441.882L389.65 442.718C384.921 443.831 379.51 441.596 374.806 442.901C372.988 443.406 370.526 445.469 369.746 447.153C369.389 447.924 369.691 448.051 370.025 448.74C374.276 449.82 379.766 449.93 384.15 449.844C384.22 449.26 384.276 448.673 384.389 448.095C384.672 446.642 384.677 446.442 385.825 445.623C386.646 445.639 387.355 445.666 388.134 445.957C391.859 447.347 394.175 450.864 395.605 454.375L397.357 460.744C394.141 462.278 390.731 464.133 387.281 465.053C381.431 466.615 372.591 465.468 366.773 463.964C364.982 463.501 363.133 463.095 362.132 461.411C361.473 455.843 365.282 447.634 368.183 442.963C370.16 439.78 373.292 439.408 376.664 438.589Z"/>
	<path fill="#EB8847" d="M377.191 452.54C379.071 452.396 381.19 452.323 383.041 452.707C385.009 453.116 387.709 454.355 388.628 456.286C389.162 457.408 389.084 458.583 388.472 459.655C387.101 462.057 383.408 462.995 380.958 463.633C376.27 463.132 372.134 461.245 367.828 459.469C370.687 456.455 373.577 454.488 377.191 452.54Z"/>
	<path fill="#FEFEFE" d="M294.827 477.282C298.269 480.033 301.335 483.558 304.45 486.678C309.972 492.208 315.486 497.7 321.177 503.058C326.468 508.039 331.724 513.125 337.24 517.857C342.511 522.379 348.157 526.619 353.14 531.451C334.373 531.391 315.605 531.449 296.839 531.623C294.336 513.943 293.836 495.1 294.827 477.282Z"/>
	<path fill="#FEFEFE" d="M505.961 649.641C510.155 649.521 514.322 650.251 517.918 652.534C521.281 654.653 523.647 658.039 524.482 661.925C525.576 666.809 524.207 671.802 521.538 675.946C517.565 682.114 511.782 685.017 504.816 686.456C500.333 686.586 496.327 686.179 492.436 683.668C489.072 681.498 486.713 678.075 485.881 674.159C484.773 669.015 486.226 663.515 489.236 659.264C493.271 653.567 499.218 650.647 505.961 649.641Z"/>
	<path fill="#072F55" d="M505.17 658.087C506.993 658.147 508.876 658.253 510.523 659.109C512.506 660.14 513.98 661.911 514.524 664.088C515.195 666.771 514.533 669.706 513.13 672.039C511.101 675.411 508.542 676.611 504.843 677.53C503.34 677.528 501.777 677.593 500.372 676.982C498.535 676.182 496.999 674.652 496.26 672.786C495.192 670.089 495.67 666.916 496.96 664.384C498.774 660.823 501.446 659.189 505.17 658.087Z"/>
	<path fill="#FEFEFE" d="M538.721 650.366C545.066 650.407 552.219 649.811 558.429 651.162C561.4 651.808 564.507 653.198 566.142 655.899C567.859 658.735 567.481 662.267 566.54 665.298C565.137 669.814 561.938 672.315 557.875 674.376C559.952 678.206 561.928 682.037 563.738 686.001L554.875 686.047L553.542 685.916C551.341 683.918 549.893 678.291 548.833 675.503L543.032 675.488C542.319 678.963 541.536 682.424 540.684 685.869L531.534 685.76C533.687 673.899 535.766 662.061 538.721 650.366Z"/>
	<path fill="#072F55" d="M546.651 658.433C549.366 658.589 553.631 658.487 556.011 659.846C557.237 660.546 557.436 661.12 557.854 662.42C557.573 664.058 557.075 664.944 556.121 666.294C552.719 667.501 548.862 667.059 545.316 666.942L546.651 658.433Z"/>
	<path fill="#FEFEFE" d="M579.419 650.552L605.909 650.591L604.445 658.901C598.77 658.742 593.068 658.815 587.39 658.784L586.473 664.042L602.247 663.998L600.215 672.091C595.433 672.046 590.042 671.433 585.335 672.133L584.65 673.109C584.289 674.535 584.079 675.874 583.943 677.337L584.401 677.87C589.783 678.502 595.942 677.701 601.438 677.62C600.582 680.413 599.874 683.172 599.284 686.034L572.472 685.931C574.668 674.114 577.317 662.391 579.419 650.552Z"/>
	<path fill="#FEFEFE" d="M429.47 649.652C435.525 649.224 440.048 650.761 445.015 654.009C443.442 656.209 442.019 658.466 440.605 660.77C439.257 659.964 437.916 659.048 436.496 658.374C434.51 657.432 430.785 656.78 428.747 657.911C427.53 658.587 427.469 658.875 427.17 660.125C429.014 664.317 437.55 664.597 441.244 668.026C442.488 669.182 443.317 670.627 443.334 672.355C443.367 675.628 440.784 679.805 438.594 682.091C435.369 685.455 430.748 685.938 426.365 686.072C420.916 685.28 416.949 683.472 412.424 680.494L417.516 673.75C419.925 675.43 422.381 677.022 425.258 677.776C427.431 678.345 429.759 678.503 431.734 677.249C432.869 676.528 433.201 676.075 433.506 674.791C431.457 671.291 424.469 671.453 420.999 669.166C418.834 667.74 417.783 665.666 417.282 663.163C416.734 660.548 417.306 657.824 418.858 655.649C421.41 652.003 425.252 650.443 429.47 649.652Z"/>
	<path fill="#FEFEFE" d="M669.997 666.22C673.715 666.016 677.467 666.076 681.191 666.046C681.911 669.601 682.902 673.042 683.929 676.519C670.292 677.297 656.525 677.1 642.861 677.393L627.548 677.498L631.03 667.056C644.022 666.924 657.012 666.645 669.997 666.22Z"/>
	<path fill="#FEFEFE" d="M452.425 650.572L482.543 650.512C481.875 653.309 481.008 656.066 480.204 658.827C477.172 658.538 474.019 658.651 470.969 658.619L466.95 677.389L465.149 685.783C462.021 685.56 458.786 685.732 455.647 685.755C457.41 676.705 459.279 667.676 461.253 658.67L450.464 658.666C450.956 655.925 451.702 653.259 452.425 650.572Z"/>
	<path fill="#FEFEFE" d="M588.544 206.589C591.011 206.262 593.338 206.185 595.736 206.971C602.836 209.299 607.776 215.648 611.021 222.066C610.663 224.785 610.348 227.509 610.075 230.237L601.836 234.258L601.38 233.996C601.991 233.025 602.237 232.091 602.556 231C602.272 229.746 602.227 229.739 601.229 228.917C600.394 229.679 600.558 231.143 600.44 232.258C600.136 231.533 599.843 230.815 599.451 230.132C596.515 225.026 588.084 220.492 582.59 218.795C583.936 213.555 583.777 209.986 588.544 206.589Z"/>
	<path fill="#FEFEFE" d="M338.016 666.821C355.252 667.091 372.515 666.89 389.756 666.934C389.068 669.802 388.484 672.704 387.851 675.586L336.055 675.601L338.016 666.821Z"/>
	<path fill="#FEFEFE" d="M569.137 223.093C580.483 223.547 587.385 228.693 595.67 235.853C594.45 237.49 593.111 238.982 591.745 240.496C590.354 241.32 589.117 241.837 587.493 242.022C582.213 242.622 575.18 241.389 570.915 238.033C568.822 236.386 567.086 233.942 566.892 231.22C566.699 228.511 567.434 225.218 569.137 223.093Z"/>
	<path fill="#072F55" d="M582.623 231.838L581.855 232.371L581.411 231.899C582.36 231.02 583.441 230.797 584.75 230.74C586.11 230.68 587.002 231.015 587.965 231.974C589.066 233.071 589.885 235.303 589.688 236.842C589.517 238.172 588.691 239.113 587.621 239.838C585.753 241.103 582.676 241.059 580.614 240.376C578.969 239.831 577.476 238.732 576.888 237.037C576.125 234.84 577.215 232.708 578.329 230.879C578.564 233.014 577.527 235.017 577.845 237.335C578.844 238.606 579.243 238.549 580.756 238.975L581.443 238.567C581.418 237.706 581.339 236.752 581.454 235.899C581.615 234.697 582.128 233.845 583.165 233.189C583.804 232.785 584.446 232.38 585.178 232.596C586.114 234.666 584.258 237.054 585.097 238.846C586.378 238 586.903 237.535 587.66 236.137C587.681 234.965 587.607 234.114 586.773 233.19C585.63 231.925 584.18 232.012 582.623 231.838Z"/>
	<path fill="#FEFEFE" d="M579.372 482.29C583.234 484.799 589.61 492.688 593.309 496.477C606.431 509.921 634.215 535.001 641.205 551.12C636.596 547.255 632.806 541.962 628.91 537.385C625.2 533.026 621.3 528.949 617.249 524.912C614.243 521.461 610.987 518.234 607.785 514.967C610.773 521.834 613.197 528.932 615.032 536.192C609.615 527.111 608.088 515.288 600.581 507.774C600.259 510.018 600.034 512.21 599.188 514.33L598.958 513.896L599.451 514.062L599.162 514.314C598.501 512.861 598.703 510.485 598.27 508.844L597.589 508.829C595.568 510.667 594.311 513.796 592.795 516.103C594.225 511.683 595.495 507.213 596.603 502.702C591.713 497.762 587.41 492.214 582.524 487.228C582.342 489.556 582.209 491.906 581.233 494.052L580.669 494.017C581.133 489.877 580.316 486.278 579.372 482.29Z"/>
	<path fill="#FEFEFE" d="M513.024 205.092C514.043 205.018 515.072 204.93 516.094 204.906C517.294 204.877 518.384 204.901 519.241 205.857C520.314 207.054 520.337 208.267 520.227 209.773C520.054 212.146 520.036 214.514 520 216.892L508.793 218.651C508.317 218.608 508.21 218.611 507.677 218.491C505.254 217.95 502.943 217.309 501.621 215.069C501.365 213.633 501.484 212.683 502.274 211.45C504.697 207.667 508.868 206.095 513.024 205.092Z"/>
	<path fill="#EB8847" d="M347.051 432.939C348.165 433.013 348.27 432.816 349.125 433.617C349.151 433.963 349.198 434.397 349.182 434.755C348.96 439.585 345.154 451.261 341.192 454.263C340.517 454.775 339.805 454.493 339.008 454.434C337.88 453.739 336.515 452.903 335.803 451.744C333.4 447.834 335.582 441.279 336.45 437.181C340.113 435.962 343.564 434.597 347.051 432.939Z"/>
	<path fill="#EB8847" d="M350.725 477.546C355.678 478.605 360.508 479.861 365.511 480.746C366.983 483.842 369.906 487.371 369.788 490.915L368.892 491.579L357.763 493.663C357.617 493.526 357.47 493.39 357.326 493.251C352.74 488.847 350.85 483.794 350.725 477.546Z"/>
	<path fill="#EB8847" d="M403.675 478.017C404.882 477.972 405.722 477.95 406.856 478.414C408.016 478.888 407.608 478.525 408.118 479.705C407.988 480.271 407.999 480.338 407.705 480.947C404.776 487.014 397.215 490.989 391.141 492.771C389.524 492.928 389.216 493.146 387.806 492.241C386.219 488.843 387.669 484.408 388.304 480.878C393.856 480.609 398.351 479.676 403.675 478.017Z"/>
	<path fill="#EB8847" d="M401.21 426.889C405.617 426.805 411.184 430.033 415.464 431.421C415.501 437.555 415.667 443.714 415.259 449.838C414.445 449.777 414.104 449.637 413.41 449.153C409.448 446.393 402.085 431.847 401.21 426.889Z"/>
	<path fill="#EB8847" d="M373.245 410.928C376.523 411.22 382.871 413.993 385.499 416.038C386.453 416.78 386.776 417.177 386.9 418.408C385.635 419.891 380.144 420.774 378.079 421.361C375.792 421.751 373.295 422.078 370.967 421.989C369.293 421.925 367.33 421.579 366.208 420.225C365.685 419.594 365.71 418.935 365.82 418.144C366.241 415.137 370.997 412.489 373.245 410.928Z"/>
	<path fill="#FEFEFE" d="M531.232 270.929C538.516 273.553 557.439 292.576 562.413 299.134C559.801 298.485 557.326 297.804 554.818 296.808C549.149 293.442 544.042 288.682 538.904 284.527C540.638 285.473 543.51 287.438 545.501 286.931C545.154 283.924 533.904 273.993 531.232 270.929Z"/>
	<path fill="#FEFEFE" d="M560.883 393.099L560.896 393.614C561.134 400.414 559.39 407.117 559.564 413.931C559.635 416.734 561.368 421.654 560.09 423.98C559.336 425.353 557.512 428.174 556.029 428.611C559.249 422.882 558.317 418.358 557.728 412.108C555.874 417.194 553.993 420.502 550.027 424.153C544.767 427.826 540.261 430.614 534.167 432.662C554.664 418.839 553.986 416.179 560.883 393.099Z"/>
	<path fill="#FEFEFE" d="M556.478 359.941C557.087 360.967 557.021 360.474 556.792 361.703C555.327 369.576 545.077 377.19 539.028 381.476L538.698 380.954C543.65 373.408 551.329 367.462 556.478 359.941Z"/>
	<path fill="#FEFEFE" d="M530.503 299.385C530.663 299.405 530.826 299.412 530.984 299.447C532.378 299.747 537.965 302.443 538.685 303.578L538.022 305.219C538.569 305.38 545.803 301.404 547.157 300.823C543.449 305.482 538.182 308.376 533.25 311.579C529.593 313.677 525.458 314.998 521.512 316.454C527.557 312.881 533.896 310.096 536.713 303.232C534.415 302.101 532.544 300.933 530.503 299.385Z"/>
	<path fill="#FEFEFE" d="M565.743 435.421C567.321 437.046 572.805 450.137 574.496 453.508C575.07 454.654 575.875 455.895 575.479 457.135L573.709 455.963C572.408 454.716 571.529 451.7 570.785 449.959L570.004 449.678L568.754 450.841L568.412 450.518C568.623 448.116 568.654 446.896 567.407 444.746C566.728 445.037 566.095 445.258 565.393 445.475C564.937 442.455 566.222 439.252 565.819 435.994L565.743 435.421Z"/>
	<path fill="#FEFEFE" d="M570.625 358.78L572.422 359.071L572.579 360.008C571.078 365.172 566.348 369.405 562.339 372.741L560.81 373.041C560.939 371.872 563.649 369.536 564.509 368.461C566.895 365.479 568.681 362.057 570.625 358.78Z"/>
	<path fill="#EB8847" d="M621.765 408.635C624.364 402.251 627.195 389.694 634.187 386.724C635.635 386.109 637.181 386.147 638.613 386.795C644.19 389.32 647.659 398.664 650.106 403.839C656.633 399.924 664.079 395.866 671.401 393.588C697.026 398.607 721.353 405.863 745.027 416.947C749.403 418.996 756.139 421.484 758.844 425.621C761.919 430.325 763.473 436.893 765.352 442.192C776.138 472.603 780.137 499.335 780.851 531.483C747.087 531.249 713.321 531.216 679.556 531.385C702.847 495.597 717.812 462.448 719.557 419.096C708.709 418.079 698.195 417.409 687.465 419.81L684.136 428.245C689.424 429.145 697.64 431.044 701.057 435.483C702.252 437.034 702.636 438.862 702.261 440.775C700.484 449.857 686.925 456.994 680.803 463.337C683.926 469.494 689.302 478.135 687.112 485.268C686.526 487.176 685.317 488.636 683.499 489.478C677.32 492.342 666.882 488.924 660.774 487.101C658.295 493.25 654.273 507.676 647.619 509.944C646.063 510.474 644.806 510.237 643.441 509.395C636.4 505.052 631.846 494.35 627.222 487.681C623.11 488.967 612.256 494.48 608.437 492.487C605.16 490.778 600.077 486.938 599.034 483.217C596.841 475.398 609.315 468.152 599.714 462.162C594.888 459.152 585.856 453.959 584.584 447.795C584.242 446.138 584.668 444.62 585.637 443.257C589.366 438.011 597.685 435.415 602.885 431.737C599.656 426.305 593.395 418.22 595.091 411.596C595.483 410.004 596.516 408.645 597.945 407.841C604.163 404.367 615.18 407.334 621.765 408.635Z"/>
	<path fill="#072F55" d="M635.305 419.154C651.664 416.646 666.95 427.897 669.419 444.262C671.888 460.626 660.601 475.886 644.231 478.317C627.915 480.74 612.716 469.498 610.255 453.188C607.795 436.877 619 421.652 635.305 419.154Z"/>
	<path fill="#EB8847" d="M635.761 428.674C646.594 426.473 657.16 433.471 659.361 444.304C661.563 455.138 654.565 465.704 643.732 467.906C632.898 470.108 622.331 463.11 620.129 452.276C617.928 441.442 624.926 430.874 635.761 428.674Z"/>
	<path fill="#072F55" d="M637.237 435.47C641.874 434.584 646.629 436.258 649.689 439.852C652.749 443.447 653.642 448.408 652.027 452.844C650.412 457.28 646.539 460.506 641.884 461.293C634.794 462.49 628.061 457.757 626.787 450.68C625.514 443.603 630.174 436.819 637.237 435.47Z"/>
	<path fill="#EB8847" d="M661.22 308.842C661.402 308.881 661.589 308.905 661.768 308.959C667.252 310.604 673.113 316.461 677.614 320.02C706.554 342.909 730.403 369.54 748.318 401.947C729.699 393.11 709.915 386.954 690.02 381.731C683.05 379.546 675.633 378.201 668.485 376.736C653.286 373.705 638.013 371.06 622.68 368.804C615.755 367.781 589.467 365.906 585.102 363.688C583.965 363.11 583.697 362.722 583.362 361.528C590.879 354.069 601.6 354.486 610.22 349.595C617.236 345.615 622.438 339.164 628.687 334.189C633.525 330.338 639.475 328.012 644.66 324.676C650.973 320.615 656.094 314.25 661.22 308.842Z"/>
	<path fill="#072F55" d="M298.403 726.432C300.392 726.682 316.819 743.94 319.36 746.27C325.863 752.233 332.962 757.601 340.009 762.898C391.312 801.465 454.713 824.074 519.272 821.19C591.612 817.959 668.28 786.506 717.559 732.551C719.756 734.5 721.806 736.687 723.892 738.757C722.381 740.585 720.724 742.308 719.123 744.058C714.058 749.127 708.984 754.262 703.637 759.034C690.644 770.627 675.692 780.685 660.67 789.441C609.509 819.261 552.018 833.869 492.77 830.306C416.111 825.695 341.583 787.828 290.777 730.532C293.329 729.183 295.871 727.816 298.403 726.432Z"/>
	<path fill="#EB8847" d="M605.67 279.916C611.389 280.779 618.725 284.399 623.749 287.313C612.461 291.862 601.668 298.051 589.294 299.233C586.095 298.579 572.763 295.695 571.171 293.466C574.473 291.605 579.889 293.75 583.596 293.119C587.591 292.438 589.685 288.627 591.868 285.604C597.44 284.555 601.153 283.438 605.67 279.916Z"/>
	<path fill="#072F55" d="M609.138 244.173C619.116 247.394 628.862 251.295 638.307 255.848C642.916 258.018 647.416 260.805 652.148 262.65C653.123 263.031 653.129 263.01 653.881 263.859C652.793 264.541 651.343 264.886 650.127 265.317C647.844 266.073 646.737 267.199 645.157 268.953C633.356 263.317 621.327 258.199 609.504 252.613L609.138 244.173Z"/>
</svg>
