<svg width="96" height="80" viewBox="0 0 96 80" fill="none" xmlns="http://www.w3.org/2000/svg">
<g clip-path="url(#clip0_71_190)">
<path d="M0 -8H96V88H0V-8Z" fill="#7A0E1F"/>
<path d="M50.601 5.65394C52.326 5.94053 54.3785 6.57175 55.7016 7.76819C55.6741 7.20184 55.6033 6.69428 55.4529 6.14716C56.6458 7.21441 57.3742 8.70578 57.4823 10.3027C57.4848 10.3397 57.4866 10.3766 57.4877 10.4135C57.7237 9.95209 57.9135 9.48166 58.1012 8.99922C58.2005 10.0296 58.1512 10.9525 57.8183 11.9441C57.6967 12.3064 57.518 12.6635 57.4173 13.0297C57.3374 13.3203 57.3827 13.6627 57.1815 13.9085C57.0192 14.1069 56.7255 14.2271 56.5006 14.3411C56.5854 15.2859 56.6037 16.2824 56.7551 17.2149C56.6309 17.4828 56.4865 17.7427 56.303 17.9751C55.9378 18.1202 55.5566 18.2267 55.1946 18.3752C54.9803 18.6763 54.8044 18.9174 54.4152 18.9868C54.0228 19.0567 53.338 18.7206 53.0507 19.0383C52.8701 19.2379 52.8742 19.6196 52.8604 19.8757C52.8802 19.8768 52.9002 19.8777 52.9201 19.8791C53.2191 19.8994 54.8758 20.3982 55.1402 20.5267C55.2337 20.5722 55.2902 20.6303 55.3658 20.6969C55.3952 20.7226 55.4274 20.7449 55.4582 20.7689L55.5223 20.8196C55.5284 20.7432 55.5219 20.6843 55.512 20.6088C55.9396 20.2915 56.8699 20.1553 57.397 19.9612C57.7882 19.8172 58.1615 19.6283 58.5502 19.4778C59.2862 19.1928 60.0337 18.9501 60.7552 18.6272L60.7609 17.5761C60.9821 17.5126 61.2044 17.4527 61.4278 17.3969C61.6128 17.5017 61.7963 17.6114 61.9853 17.7088C61.9222 17.4869 61.863 17.2629 61.7917 17.0434C61.9927 16.8088 62.2059 16.4449 62.5322 16.4091C62.6043 16.4012 62.6544 16.4158 62.7212 16.4403C62.8119 16.5387 62.8311 16.6248 62.862 16.7501L62.8833 16.7525C62.9427 16.6223 62.9551 16.5775 63.073 16.4904C63.2175 16.5004 63.3048 16.5031 63.4233 16.5978C63.4528 16.6863 63.4829 16.7738 63.5166 16.8608L63.5593 16.88C63.6856 16.7813 63.7383 16.7197 63.899 16.6951C64.0794 16.8038 64.1171 16.9684 64.2535 17.1099C64.5575 17.4252 64.8699 17.6295 64.993 18.0826C65.0542 18.3084 65.0309 18.5331 64.912 18.7361C64.6072 19.2565 63.5549 20.0599 62.9967 20.3071C62.6349 20.2374 62.2846 20.1131 61.9555 20.3365C61.3898 20.7206 60.9769 21.3483 60.433 21.7768C59.9117 22.1874 59.2973 22.3694 58.7656 22.7327C58.0878 23.1956 57.5819 23.8949 56.8911 24.3512C56.4775 24.6243 55.9915 24.6068 55.5511 24.7935C55.0417 25.0094 54.6015 25.381 54.0841 25.6097C53.889 26.2181 53.5926 26.6309 53.1692 27.1043C53.3591 28.6486 52.4648 30.4139 53.015 31.9742C53.2655 32.6846 53.8423 33.6875 54.2157 34.3741C54.3733 34.6639 54.6288 35.0235 54.7058 35.3407C54.734 35.4566 54.7265 35.5345 54.6607 35.6385C54.5196 35.862 54.1404 35.9018 53.9037 35.9495C54.4049 36.4386 54.7609 37.0802 55.2583 37.5914C56.9252 39.3043 58.7624 40.8389 60.1474 42.8102C60.2062 42.6143 60.2899 42.0238 60.4515 41.9371C60.8669 41.7139 63.1113 41.8188 63.7084 41.8173C66.8738 41.8015 70.0394 41.8046 73.2048 41.8265L75.5788 41.8238C75.6483 40.1066 75.4687 38.3248 75.1528 36.6377C74.0458 30.795 71.0361 25.4829 66.5932 21.5303C65.9635 20.9768 65.3361 20.4381 64.6441 19.9636L65.3088 19.3453C66.2284 19.9688 67.1051 20.759 67.8991 21.5358C72.4284 25.883 75.3671 31.625 76.2441 37.8414C76.4109 39.1023 76.4517 40.3602 76.4646 41.6303C78.4246 40.9371 80.4174 40.3095 82.3912 39.6547C81.892 40.3006 81.2127 40.8785 80.6408 41.4648C79.2302 42.9156 77.8096 44.3567 76.379 45.7878C76.0658 47.625 76.0309 50.0305 74.9195 51.5845C74.5154 52.1494 73.8819 52.511 73.5007 53.0748C73.1724 53.5603 72.9096 54.104 72.6078 54.6077C72.0434 55.5376 71.4537 56.4518 70.8396 57.3496C70.7178 57.0276 70.5708 56.7268 70.4133 56.421C71.0389 55.4415 71.7199 54.4643 72.262 53.4377C70.9866 53.896 69.6515 53.7754 68.3399 53.5631C69.0915 55.1021 69.7883 56.6777 70.4777 58.2454C70.9397 59.2961 71.3852 60.4752 72.005 61.4397C72.1426 61.4512 72.286 61.4597 72.4213 61.4881C72.6217 61.5303 72.7946 61.628 72.8977 61.8089C73.0286 62.0387 72.9416 62.3623 72.8841 62.5984C73.5541 62.921 74.2289 63.2348 74.8884 63.5786C75.4852 63.8896 76.1001 64.2741 76.7339 64.4974C77.1886 64.6577 77.6952 64.3958 78.139 64.6045C78.6055 64.8239 78.2559 64.9984 78.3648 65.3116C78.4319 65.3526 78.4721 65.3735 78.5527 65.3795C78.6692 65.3882 78.7872 65.3913 78.904 65.3978C79.0221 65.6691 79.1777 66.0507 79.0457 66.3423C78.9864 66.4731 78.8864 66.5138 78.7575 66.5528C77.6212 66.8965 70.9365 67.7554 70.1973 67.3322C69.778 67.0921 69.6049 66.6401 69.4883 66.1981C69.9364 64.9784 70.3159 65.2524 70.0182 63.6963C69.9272 63.6195 69.8377 63.5406 69.75 63.46C69.6064 63.3261 69.4633 63.1548 69.4792 62.9448C69.4968 62.7143 69.6852 62.5737 69.8431 62.4303C68.7269 60.8505 66.5815 59.0559 65.1244 57.7624C62.9294 57.758 60.7162 57.8905 58.5213 57.9555C58.0183 58.4345 57.5536 58.9434 57.0301 59.4029C55.4956 60.7497 53.7483 61.8889 52.0044 62.9432C50.7744 63.6868 49.4779 64.3462 48.2769 65.1314C48.3405 65.1306 48.4041 65.1288 48.4675 65.126C54.4444 64.8856 60.4028 62.4167 64.4915 57.9826C64.8181 58.3871 65.1892 58.7491 65.5623 59.1102C65.5388 59.1358 65.5151 59.1612 65.4913 59.1864C61.2081 63.7094 54.8309 66.6406 48.5964 66.8013C43.0265 66.9075 37.5825 65.1377 33.1398 61.7765C32.0565 60.9677 31.0741 60.0629 30.0951 59.1347C30.5495 58.9919 31.0014 58.8426 31.4744 58.7745C32.1009 58.6843 32.7874 58.7355 33.4216 58.7365L37.0294 58.7495C37.2927 59.1633 37.6403 59.5479 37.9684 59.9127C39.7685 61.9144 42.0564 63.3591 44.5128 64.4178C43.6703 62.5017 42.7055 60.613 41.7506 58.7502L42.8487 58.7495C43.9379 60.8133 44.937 62.9513 45.9527 65.0531C46.7847 64.4484 47.7804 63.9573 48.6761 63.4481C51.4672 61.8611 54.4301 60.3 56.7183 58.0097C56.0982 58.0663 55.4591 58.0498 54.836 58.0642L51.6373 58.1437C50.8147 58.8353 49.9743 59.5053 49.1167 60.1532C48.4383 59.4941 47.6968 58.8826 46.9717 58.2752L35.5283 58.2523L32.6698 58.2313C32.0651 58.2266 31.3582 58.1455 30.7724 58.2851C29.4427 58.6018 26.3109 60.376 25.1495 61.1992C24.9416 61.3465 24.452 61.6499 24.4083 61.9104C24.4528 61.9686 24.5156 62.0377 24.5456 62.1041C24.5738 62.1668 24.5928 62.2273 24.5681 62.293C24.4116 62.7108 23.7788 62.6222 23.4397 62.7994C23.2618 63.0984 23.6511 63.25 23.6662 63.5459C23.5709 63.6285 23.5021 63.6896 23.4457 63.8062C23.4566 64.2957 23.4711 64.9125 23.6776 65.3616C23.9711 66.0002 24.7826 66.0575 25.3677 66.2863C25.5733 66.5298 25.6651 66.7463 25.7555 67.0465C25.7189 67.2086 25.6828 67.3962 25.5865 67.535C25.4302 67.7605 25.1336 67.884 24.8728 67.9323C24.4133 68.0176 22.4674 68.05 22.0065 67.9661C21.7891 67.9265 21.5965 67.8345 21.4196 67.7031C20.9518 67.3559 19.2988 64.3002 18.9963 63.6165C18.8456 63.2759 18.7205 62.9143 18.6607 62.5457C18.5956 62.1438 18.5825 61.7904 18.8381 61.4528C18.9095 61.3585 18.992 61.2766 19.0887 61.2082C19.8263 60.687 20.6952 61.2456 21.5257 60.5568C21.7834 60.343 21.93 60.031 22.1639 59.7984C22.2428 59.7199 22.3154 59.6998 22.4225 59.6852C22.6033 59.7271 22.7026 59.8464 22.8323 59.9724C24.9201 58.3993 26.557 56.0928 28.0755 54.0009C26.6771 54.0162 25.2786 54.0177 23.8802 54.0054C24.3744 54.9189 24.9539 55.7508 25.5232 56.6167L25.0132 57.2289C24.1489 56.348 23.485 55.0983 22.89 54.028C21.5049 54.0121 20.1196 54.0245 18.735 54.0652C19.0798 51.3715 19.4333 48.6676 19.7255 45.9679C17.597 43.8617 15.655 41.5631 13.4424 39.5387C15.4672 40.2836 17.4987 41.0102 19.5366 41.7185L19.5383 41.3327C19.6486 33.9343 22.6701 26.8774 27.9479 21.6917C33.5839 16.1644 40.7996 13.604 48.6208 13.6689C48.5608 13.9072 48.5261 14.1374 48.4983 14.3809L48.4452 14.3806C47.6958 14.3797 46.9273 14.447 46.1796 14.5037C39.4981 15.0107 33.1654 17.6724 28.405 22.4488C23.239 27.5701 20.3524 34.5555 20.396 41.8295C21.2035 41.8233 22.0112 41.8225 22.8187 41.8273L22.8157 41.4721C22.7868 34.8494 25.6434 28.6329 30.2932 23.9751C33.7295 20.5331 38.1737 18.3377 42.9073 17.347C44.1883 17.0789 45.4684 16.8633 46.7808 16.8621C46.5817 16.9239 46.4052 17.0088 46.2193 17.1017C45.5032 17.4352 45.1624 18.0887 44.6691 18.6638C43.6423 18.8847 42.6033 19.038 41.5907 19.3234C36.9782 20.6237 33.1218 23.2102 30.0158 26.8401C33.3335 25.2287 38.0989 23.8877 41.7067 23.2052C41.3174 23.6139 40.9795 23.9841 40.7166 24.4851C37.9294 25.1162 35.1877 25.9339 32.5102 26.9326C31.6679 27.2485 30.8418 27.6144 30.0148 27.9686C29.5848 28.1527 29.1359 28.3727 28.6877 28.5067C28.2006 30.8069 27.88 33.1393 27.7287 35.4857C29.9199 37.7513 32.2823 40.0156 34.8564 41.8461C37.0841 41.8083 39.3122 41.802 41.5401 41.827C41.5417 40.3052 41.6815 38.8753 42.5913 37.5983C42.9121 37.148 43.2992 36.7429 43.6085 36.2853C43.8853 35.8757 43.9895 35.3342 44.3308 34.9766C44.5123 34.7864 44.7457 34.6984 44.9874 34.61C44.6068 34.2693 43.5258 33.5186 43.489 33.0081C43.4808 32.8928 43.5456 32.7827 43.6357 32.7143C43.8396 32.5596 44.1592 32.5468 44.4069 32.5137C44.4122 32.4976 44.4173 32.4813 44.4228 32.4652C44.5407 32.1185 44.7253 32.0263 45.0436 31.8707C45.0831 31.8514 45.1227 31.8326 45.1625 31.8141C45.171 31.7102 45.1721 31.6179 45.1666 31.5139C45.1584 31.3615 45.1876 31.2827 45.2894 31.1688C45.4977 30.9359 45.7478 30.8312 45.71 30.4712C45.6922 30.3013 45.6217 30.2335 45.5152 30.1146C45.3457 29.9253 45.2481 29.7327 45.274 29.4721C45.2888 29.3237 45.3311 29.1681 45.3262 29.0193C45.3116 28.5831 44.7606 27.2521 44.6107 26.6936C44.4778 27.046 44.1811 28.8031 44.0997 28.9069C43.9867 29.0512 43.6571 29.1952 43.4955 29.2941C43.2298 29.4568 42.7129 29.787 42.7402 30.139C42.7519 30.153 42.7638 30.1668 42.7754 30.1809C42.8795 30.3075 42.9591 30.3957 42.9365 30.5704C42.8954 30.888 42.6808 31.0745 42.519 31.329C42.2484 31.7543 41.7614 32.6723 41.7693 33.1711C41.772 33.347 41.8406 33.512 41.9447 33.6519C42.237 34.0446 42.6583 34.3978 43.0078 34.7432C42.8824 35.1772 42.4422 35.9762 42.0474 36.2047C41.8783 36.3027 41.7117 36.3189 41.5245 36.266C41.1995 36.1742 40.9068 35.9024 40.6533 35.6877C40.4487 35.7154 40.2426 35.7388 40.0395 35.7762C40.0807 35.9531 40.1151 36.1834 40.2123 36.3378C40.3147 36.5005 40.9171 37.1122 40.9133 37.2357C40.913 37.2479 40.8666 37.3366 40.8547 37.3566C40.75 37.5331 40.5118 37.6195 40.3226 37.664C39.9202 37.7585 39.5342 37.7219 39.1275 37.6891C38.8831 38.222 38.7799 38.5099 38.2023 38.7197C38.0589 38.7717 37.8561 38.8035 37.73 38.8813C37.6676 39.1127 37.5834 39.1995 37.3746 39.3151C37.0749 39.4807 36.6864 39.5584 36.3497 39.6158C36.1755 39.5402 35.9813 39.4737 35.8159 39.3827C35.6265 39.2939 35.4157 39.2359 35.2175 39.1685C35.2953 39.1148 35.3564 39.0594 35.4249 38.9949L35.4231 38.93C34.69 38.9387 33.9804 39.3374 33.4002 39.3923C33.274 39.3557 33.1864 39.315 33.0871 39.2268C32.3015 38.5296 32.0077 37.4263 31.4945 36.5496C31.2386 36.1126 30.8893 35.7167 30.6917 35.2486C30.5447 34.9001 30.4762 34.5431 30.4618 34.1664C30.4356 33.4713 30.3877 32.6352 30.9076 32.1002C31.2974 31.6991 32.2404 31.1283 32.7981 31.1238C32.8154 31.1237 32.8327 31.1244 32.8499 31.1247C33.148 30.8127 33.3338 30.3636 33.6152 30.026C33.981 29.587 34.3935 29.292 34.9797 29.2467C36.1567 29.1558 36.9552 30.0426 37.7666 30.7592C38.5227 30.7181 39.1132 30.9388 39.7104 31.3849C39.7664 32.111 39.8068 32.8936 39.6157 33.604C39.5147 33.9797 39.3677 34.3473 39.2836 34.7271C39.1926 35.1379 39.3642 36.3855 39.6494 36.7349C39.733 36.8374 39.7631 36.846 39.8852 36.8658C39.8873 36.6183 39.7702 36.3561 39.6965 36.1216C39.3666 35.072 39.5945 34.6826 39.9165 33.7065C40.1005 33.1489 40.1151 31.3517 39.9206 30.7972C39.8104 30.483 39.5617 30.2453 39.4364 29.9441C39.3882 29.8282 39.4065 29.7785 39.4569 29.67C39.611 29.539 39.8023 29.5102 39.9938 29.4614C39.9171 29.2476 39.7885 28.9538 39.8746 28.7277C39.9512 28.5264 40.1549 28.4525 40.3343 28.3681C40.3584 26.6684 40.6753 24.7835 41.961 23.5468C42.2737 23.2458 42.7492 23.0852 42.9994 22.7228C43.3874 22.1608 43.4488 21.3648 43.777 20.752C44.1827 19.9947 44.78 19.4924 45.2394 18.8086C45.2472 18.7969 45.2547 18.7851 45.2624 18.7734C45.2776 18.756 45.2932 18.7388 45.3082 18.7211C45.4739 18.5237 45.5681 18.2187 45.6891 17.9882C46.0016 17.3923 46.8384 17.1053 47.4195 16.8268C47.4471 16.8291 47.4746 16.8317 47.5022 16.8337C47.6122 16.8416 47.5679 16.8429 47.6653 16.8295C47.6926 16.5095 47.2724 16.0681 47.6382 15.7976C47.8445 15.6451 48.2704 15.6368 48.5259 15.6037C49.0305 15.1125 49.0747 14.6062 49.1985 13.9624C49.2354 13.7702 49.3083 13.569 49.3198 13.374C49.3265 13.2627 49.3084 13.2243 49.2322 13.1417C48.8499 12.7279 46.8213 13.5872 46.7321 12.1626C46.7113 11.8305 46.8566 11.5397 47.085 11.3052C47.2256 11.1607 47.3918 11.0363 47.5541 10.9174C47.2303 10.8549 46.9456 10.8011 46.6144 10.8575C45.9753 10.9665 45.37 11.3191 44.7917 11.6005C43.8502 12.0586 42.8658 12.5777 41.8541 12.8573C40.6242 13.1972 39.2458 13.1863 37.9757 13.2161L39.2967 12.3413C38.9149 11.9955 38.5187 11.6539 38.1805 11.2644C38.848 11.5055 39.5547 11.8223 40.2455 11.9796C41.7092 12.3129 43.3113 11.3218 44.6157 10.7714C45.1623 10.5407 45.8249 10.2648 46.4226 10.2211C47.1758 10.1659 48.7501 11.0039 49.1381 10.8737C49.1192 10.7831 49.0891 10.7165 49.046 10.6349C49.158 10.5016 49.3764 10.4441 49.5353 10.3799C48.9093 10.0838 48.3001 9.98228 47.6203 9.87184C48.4177 9.4149 49.2299 9.07806 50.1103 8.81894C49.6474 8.40334 49.1097 8.21575 48.5078 8.09416C49.6238 7.59072 50.7082 7.39581 51.929 7.52687C51.5047 6.88965 51.0619 6.26509 50.601 5.65394Z" fill="#072F55"/>
<path d="M35.8159 39.3827C36.1489 39.203 36.6591 39.2041 37.0358 39.1209C37.2787 39.0674 37.5015 38.9775 37.73 38.8813C37.6676 39.1127 37.5834 39.1995 37.3746 39.3151C37.0749 39.4807 36.6864 39.5584 36.3497 39.6158C36.1755 39.5402 35.9813 39.4737 35.8159 39.3827Z" fill="#194164"/>
<path d="M27.122 44.0302L29.1939 44.0293C28.8076 46.52 28.3339 48.9963 27.965 51.4904C27.5031 51.4736 27.0078 51.4176 26.549 51.4719C25.5947 50.2789 24.6504 49.0254 23.8019 47.7551C23.7475 48.2499 23.2803 51.3226 23.1444 51.4843C22.4602 51.4828 21.7757 51.4947 21.0915 51.5014C21.3304 50.2926 21.5036 49.0652 21.6983 47.8485C21.8996 46.5903 22.1225 45.3315 22.2802 44.067L23.6475 44.0758C24.619 45.333 25.5353 46.6673 26.4603 47.9605C26.57 46.6552 26.888 45.3195 27.122 44.0302Z" fill="#FEFEFE"/>
<path d="M27.3862 44.3258C27.8778 44.3521 28.3793 44.3383 28.8721 44.3419C28.4685 46.6284 28.0845 48.9184 27.7201 51.2114L26.7499 51.2067C25.5797 49.9852 24.7337 48.4642 23.6596 47.1612C23.6571 47.17 23.6546 47.1788 23.652 47.1875C23.3655 48.1428 23.2524 49.2565 23.0737 50.2473C23.0208 50.5411 23.0027 50.9455 22.8847 51.2148L22.7857 51.2335L21.4392 51.2165L22.5463 44.3582L23.5198 44.3598C24.5848 45.7522 25.543 47.2327 26.5943 48.6374C26.766 48.0217 26.8362 47.362 26.936 46.7313C27.0603 45.9248 27.2104 45.1226 27.3862 44.3258Z" fill="#EB8847"/>
<path d="M38.4893 44.039C39.1836 44.0394 39.8779 44.045 40.572 44.0557C40.2272 45.8942 39.9453 47.7475 39.6386 49.5928C39.5411 50.1789 39.535 50.8673 39.3551 51.4263L39.2695 51.4632L37.8561 51.4413C37.0177 50.2189 36.1223 49.0259 35.3198 47.7808C35.1141 49.0157 34.8944 50.2485 34.661 51.4785C33.9605 51.4583 33.2554 51.4797 32.5545 51.4851C32.7064 50.8835 32.7741 50.2521 32.8833 49.641C33.0959 48.5139 33.2987 47.3851 33.4917 46.2545C33.611 45.5258 33.6957 44.7614 33.894 44.0494L35.1867 44.0511C36.103 45.0836 37.0447 46.5698 37.8492 47.7249C38.04 46.4942 38.2791 45.267 38.4893 44.039Z" fill="#FEFEFE"/>
<path d="M34.1062 44.3193C34.4272 44.3458 34.7545 44.3385 35.0768 44.3423C36.0981 45.6415 36.9127 47.1049 37.9998 48.3469C38.3463 47.0543 38.5125 45.6679 38.7452 44.3478L40.1922 44.356C40.0485 46.1078 39.6283 47.9114 39.3337 49.65C39.2662 50.0478 39.2301 50.7699 39.1012 51.1149L39.0056 51.1497L38.0213 51.146C37.6358 50.6496 37.29 50.1167 36.9238 49.6052C36.6344 49.201 36.3216 48.8128 36.0394 48.4037C35.7472 47.9802 35.4783 47.5456 35.1646 47.1367C34.8419 48.4871 34.6849 49.872 34.4303 51.2358L32.9429 51.2291C33.0543 50.5823 33.1333 49.9295 33.2465 49.2822C33.5355 47.6288 33.8571 45.9794 34.1062 44.3193Z" fill="#EB8847"/>
<path d="M47.8805 44.0295L49.9451 44.0248C49.7315 45.0014 49.5683 45.9922 49.3957 46.9768C49.3007 47.5192 49.1371 48.1272 49.1435 48.6784C49.1454 48.8453 49.2028 49.0187 49.287 49.1617C49.43 49.4046 49.6683 49.5894 49.9462 49.6471C50.2882 49.7181 50.6576 49.6569 50.9444 49.4548C51.2304 49.2531 51.4241 48.9545 51.5519 48.633C51.7994 48.0104 51.855 47.2819 51.9605 46.6227C52.0957 45.758 52.2379 44.8945 52.3869 44.0322L54.488 44.0292C54.4473 44.5501 54.3304 45.0742 54.2409 45.5889C53.863 47.3427 53.9803 49.6233 52.4052 50.8109C51.6095 51.411 50.4728 51.6459 49.4944 51.5065C48.7446 51.3996 48.0061 51.0183 47.5619 50.3925C47.2908 50.0105 47.1436 49.5627 47.1063 49.0976C47.0217 48.0452 47.6719 45.1743 47.8805 44.0295Z" fill="#FEFEFE"/>
<path d="M48.0895 44.315L49.5701 44.3209C49.4649 45.5585 48.8303 47.6214 48.9043 48.7314C48.9206 48.9758 48.9914 49.2126 49.1264 49.418C49.3109 49.6986 49.6017 49.8656 49.9269 49.9293C50.3219 50.0064 50.7157 49.9428 51.049 49.7121C51.9966 49.0563 52.071 47.6003 52.2407 46.5686C52.3586 45.8193 52.4853 45.0714 52.6206 44.3251L54.1678 44.3229C54.0643 44.695 54.0176 45.0928 53.9522 45.4738C53.8458 46.0996 53.7467 46.7266 53.6549 47.3547C53.468 48.5968 53.3058 49.7941 52.2225 50.5956C51.4712 51.1517 50.4111 51.3718 49.4931 51.2314C48.8375 51.1312 48.1795 50.8136 47.7929 50.2594C47.565 49.9328 47.4423 49.5521 47.3993 49.1583C47.2793 48.0568 47.8764 45.492 48.0895 44.315Z" fill="#EB8847"/>
<path d="M72.5334 44.0065L74.5276 44.0183L74.5172 44.0969C74.412 44.8765 74.2569 45.6509 74.1325 46.428C73.8854 47.9714 73.7996 49.8479 72.4399 50.8696C71.6656 51.4514 70.6398 51.6663 69.689 51.5256C68.9363 51.4142 68.2278 51.0838 67.778 50.4467C67.0876 49.4689 67.3549 48.3533 67.5585 47.272C67.6811 46.1889 67.9275 45.0996 68.0882 44.0184C68.7799 44.0114 69.4727 44.0223 70.1645 44.0245C70.0084 45.0462 69.7752 46.0601 69.5875 47.0769C69.4931 47.5883 69.3655 48.1363 69.3696 48.6574C69.3715 48.8831 69.4262 49.1232 69.5539 49.3123C69.7055 49.5367 69.9373 49.6329 70.1963 49.6785C70.5241 49.7362 70.8466 49.671 71.1156 49.4721C71.3767 49.2792 71.5471 49.0002 71.6647 48.7022C71.8626 48.2011 71.9246 47.6209 72.0183 47.0915L72.5334 44.0065Z" fill="#FEFEFE"/>
<path d="M68.4308 44.2876L69.8421 44.2984C69.6529 45.3639 69.0766 47.7442 69.1151 48.7157C69.1261 48.9919 69.1914 49.2677 69.3463 49.5004C69.5107 49.7474 69.7541 49.9046 70.0457 49.9567C70.4731 50.0331 70.9437 49.9472 71.2939 49.6851C71.5782 49.4722 71.7771 49.1701 71.9064 48.8425C72.1312 48.2728 72.1764 47.6308 72.2812 47.0312C72.4403 46.1207 72.6153 45.2142 72.767 44.302L74.1988 44.3111C74.1187 44.7427 74.0577 45.1797 73.9875 45.6131C73.8354 46.5225 73.7313 47.4475 73.5462 48.3501C73.3451 49.3305 72.9711 50.21 72.1019 50.77C71.3447 51.2579 70.3467 51.4103 69.4717 51.2166C68.8531 51.0797 68.2664 50.7724 67.9276 50.2171C67.7159 49.8637 67.5998 49.4614 67.5905 49.0496C67.5626 48.1781 67.8358 47.2384 67.9831 46.3787C68.0985 45.7053 68.1606 45.002 68.3306 44.3411L68.4308 44.2876Z" fill="#EB8847"/>
<path d="M63.9191 43.953C63.9378 43.9499 63.9562 43.946 63.975 43.9438C64.9815 43.8199 66.0906 44.1154 66.8616 44.7795C66.4923 45.2462 66.1274 45.7166 65.767 46.1903C65.2705 45.8797 64.8273 45.5889 64.215 45.5741C63.9504 45.5676 63.6153 45.6314 63.4241 45.8314C63.3646 45.8938 63.323 45.9894 63.3322 46.0762C63.3906 46.6234 64.4482 46.7402 64.8725 46.8858C65.1822 46.9922 65.4864 47.137 65.7461 47.3379C66.1785 47.6708 66.4556 48.1664 66.513 48.7091C66.581 49.3119 66.3656 49.9154 65.9864 50.3807C65.3315 51.1841 64.4075 51.4236 63.4216 51.531C63.3223 51.5305 63.2246 51.5256 63.1257 51.5174C62.1519 51.4362 61.0904 51.1237 60.4379 50.3546C60.8449 49.8902 61.2416 49.4162 61.642 48.9463C62.2428 49.4129 62.8485 49.8308 63.6519 49.7864C63.8692 49.7744 64.187 49.7005 64.3221 49.512C64.3941 49.4114 64.4075 49.2921 64.3946 49.1727C64.3374 48.6451 63.2104 48.4933 62.791 48.3542C62.5076 48.2602 62.2294 48.1367 61.9847 47.9639C61.6372 47.7184 61.391 47.3837 61.3228 46.9581C61.225 46.3477 61.3887 45.647 61.7593 45.1577C62.2877 44.4602 63.0628 44.0675 63.9191 43.953Z" fill="#FEFEFE"/>
<path d="M64.3699 44.1921C65.1953 44.2189 65.7787 44.4275 66.4941 44.8337C66.2091 45.1528 65.9622 45.4893 65.7136 45.8363C65.4248 45.6397 65.0923 45.4743 64.7513 45.3922C64.3261 45.2899 63.8119 45.2634 63.4289 45.5134C63.2576 45.6253 63.1071 45.8053 63.0783 46.0133C62.9379 47.0275 65.1811 46.8997 65.9467 47.9289C66.2251 48.3032 66.2821 48.7709 66.2067 49.2227C66.1065 49.8237 65.7876 50.3357 65.2947 50.6901C64.5224 51.2454 63.5657 51.3308 62.6513 51.1813C61.9523 51.0342 61.3507 50.752 60.728 50.4083C61.0552 50.0426 61.4011 49.6834 61.6857 49.2831C62.1242 49.6823 62.5544 49.9649 63.158 50.0544C63.5593 50.114 64.0241 50.1232 64.3579 49.8586C64.538 49.7158 64.7832 49.4314 64.781 49.1863C64.7743 48.43 62.7758 48.2606 62.113 47.7195C61.7932 47.4583 61.5812 47.1054 61.5494 46.6892C61.5101 46.174 61.7375 45.5445 62.0797 45.1528C62.6738 44.4725 63.5022 44.2423 64.3699 44.1921Z" fill="#EB8847"/>
<path d="M42.5796 44.0349L46.8571 44.014C46.6065 45.5409 46.3781 47.1047 46.0572 48.6167C45.8512 49.5872 45.4324 50.5551 44.5595 51.1044C43.765 51.6043 42.8347 51.6055 41.9494 51.4015C41.151 51.0825 40.7692 50.5249 40.4373 49.7746C41.0326 49.4915 41.6271 49.2189 42.214 48.9179C42.2586 49.0303 42.3044 49.1419 42.3595 49.2497C42.4611 49.448 42.6034 49.6186 42.8256 49.6802C43.0252 49.7356 43.2318 49.7118 43.4059 49.5963C43.6255 49.4505 43.7663 49.2083 43.8594 48.9675C44.1269 48.2755 44.3182 46.6524 44.474 45.8119L42.2643 45.8152C42.3999 45.2327 42.4779 44.625 42.5796 44.0349Z" fill="#FEFEFE"/>
<path d="M42.8137 44.3289L46.5041 44.3343C46.1202 45.8981 46.1316 47.8074 45.5977 49.3052C45.3335 50.0464 44.8086 50.723 44.0779 51.049C43.3716 51.364 42.5854 51.3104 41.8791 51.037C41.3547 50.7588 41.0931 50.4072 40.8132 49.9037C41.2316 49.717 41.6396 49.5143 42.0479 49.3068C42.0851 49.3758 42.123 49.4447 42.1657 49.5107C42.3198 49.749 42.5277 49.9162 42.8107 49.9698C43.0934 50.0234 43.3658 49.9914 43.6027 49.8198C43.8612 49.6327 44.0291 49.3395 44.1418 49.047C44.46 48.2204 44.6403 46.4192 44.7692 45.4941C44.0446 45.4953 43.3201 45.5004 42.5956 45.5091C42.7007 45.1289 42.7479 44.7183 42.8137 44.3289Z" fill="#EB8847"/>
<path d="M55.2568 44.0378C57.2499 44.0374 59.248 44.0208 61.2406 44.0697C61.135 44.6186 61.0235 45.1658 60.9587 45.7215L58.9222 45.7206C58.6702 47.0476 58.4574 48.3844 58.2123 49.7133C58.1099 50.288 57.9967 50.8608 57.8727 51.4313C57.1987 51.4277 56.5247 51.4295 55.8507 51.4371L56.4792 47.9103C56.6069 47.2094 56.7142 46.5002 56.8914 45.8096L54.9042 45.8125C54.998 45.2164 55.1155 44.6244 55.2568 44.0378Z" fill="#FEFEFE"/>
<path d="M55.4732 44.324C56.1018 44.3644 56.7445 44.3382 57.3752 44.3412L60.8425 44.3605C60.7874 44.7201 60.7368 45.0806 60.6907 45.4415L58.7128 45.4366C58.5881 45.8972 58.5257 46.3917 58.4398 46.862C58.274 47.7574 58.1131 48.6538 57.9573 49.5511C57.8254 50.0667 57.7653 50.6293 57.672 51.1553L56.1775 51.1491C56.3659 49.8937 56.6214 48.6431 56.8516 47.3945C56.9656 46.7759 57.1078 46.1471 57.1604 45.5207L55.2535 45.507C55.3214 45.1116 55.3946 44.7173 55.4732 44.324Z" fill="#EB8847"/>
<path d="M30.4855 44.0495L32.5871 44.0442C32.2044 46.5309 31.7226 49.0001 31.3269 51.4844L29.229 51.4799C29.6187 48.9992 30.0654 46.5254 30.4855 44.0495Z" fill="#FEFEFE"/>
<path d="M30.7548 44.3453C31.2586 44.3643 31.7687 44.3513 32.2732 44.3525C32.0519 45.6655 31.823 46.9771 31.5863 48.2873C31.405 49.2682 31.1964 50.2506 31.0599 51.2387C30.5655 51.2252 30.0698 51.2249 29.5751 51.2186C29.7187 50.5036 29.8095 49.7698 29.926 49.0494C30.1752 47.4768 30.4515 45.9085 30.7548 44.3453Z" fill="#EB8847"/>
<path d="M34.8435 32.3406C35.3331 32.2471 35.9035 32.3727 36.4088 32.3712C36.5777 32.5634 36.7328 32.7672 36.8731 32.981C37.0234 33.2116 38.2111 35.2698 38.2167 35.3657C37.8749 35.8098 36.4449 36.0184 35.8885 36.2516C35.8697 36.2595 35.851 36.2678 35.8323 36.276C35.6953 36.3628 35.5647 36.464 35.4325 36.5583C34.5907 36.1223 33.6465 35.8242 32.7164 35.6511C32.8069 35.3381 33.6969 32.8071 33.8142 32.6538C34.0122 32.3951 34.5461 32.3791 34.8435 32.3406Z" fill="#EB8847"/>
<path d="M35.3123 33.1177C35.4467 33.1047 35.5823 33.1072 35.7161 33.1255C35.9592 33.1588 36.3994 33.2229 36.5516 33.4264L36.5297 33.5048C36.0863 33.6092 35.5791 33.3996 35.1381 33.522C34.9676 33.5693 34.7368 33.7627 34.6637 33.9206C34.6302 33.9929 34.6585 34.0048 34.6898 34.0694C35.0884 34.1706 35.6031 34.1809 36.0141 34.1729C36.0206 34.1181 36.0259 34.0631 36.0365 34.0089C36.063 33.8727 36.0635 33.8539 36.1711 33.7772C36.2481 33.7787 36.3145 33.7812 36.3876 33.8085C36.7368 33.9388 36.9539 34.2685 37.088 34.5977L37.2522 35.1947C36.9507 35.3386 36.631 35.5125 36.3076 35.5987C35.7592 35.7452 34.9304 35.6376 34.385 35.4966C34.2171 35.4532 34.0437 35.4152 33.9499 35.2573C33.8881 34.7353 34.2452 33.9657 34.5172 33.5278C34.7025 33.2294 34.9961 33.1945 35.3123 33.1177Z" fill="#072F55"/>
<path d="M35.3617 34.4256C35.5379 34.4121 35.7366 34.4053 35.9101 34.4413C36.0946 34.4796 36.3477 34.5958 36.4339 34.7768C36.4839 34.882 36.4766 34.9922 36.4192 35.0927C36.2907 35.3178 35.9445 35.4058 35.7148 35.4656C35.2753 35.4186 34.8876 35.2417 34.4839 35.0752C34.7519 34.7927 35.0228 34.6083 35.3617 34.4256Z" fill="#EB8847"/>
<path d="M27.64 36.7452C27.9627 37.0031 28.2502 37.3336 28.5422 37.6261C29.0599 38.1445 29.5768 38.6594 30.1103 39.1617C30.6064 39.6287 31.0991 40.1055 31.6163 40.5491C32.1104 40.973 32.6397 41.3705 33.1069 41.8235C31.3475 41.8179 29.588 41.8233 27.8287 41.8397C27.594 40.1822 27.5471 38.4156 27.64 36.7452Z" fill="#FEFEFE"/>
<path d="M47.4338 52.9039C47.827 52.8926 48.2177 52.961 48.5548 53.1751C48.8701 53.3737 49.0919 53.6912 49.1702 54.0555C49.2727 54.5134 49.1444 54.9814 48.8942 55.3699C48.5217 55.9482 47.9796 56.2204 47.3265 56.3553C46.9062 56.3674 46.5307 56.3293 46.1659 56.0939C45.8505 55.8904 45.6293 55.5695 45.5513 55.2024C45.4475 54.7202 45.5837 54.2045 45.8659 53.806C46.2442 53.2719 46.8017 52.9982 47.4338 52.9039Z" fill="#FEFEFE"/>
<path d="M47.3597 53.6957C47.5306 53.7013 47.7071 53.7112 47.8615 53.7915C48.0474 53.8881 48.1856 54.0542 48.2366 54.2582C48.2995 54.5098 48.2375 54.7849 48.1059 55.0037C47.9157 55.3198 47.6758 55.4323 47.329 55.5184C47.1881 55.5183 47.0416 55.5243 46.9099 55.4671C46.7377 55.3921 46.5937 55.2486 46.5244 55.0737C46.4243 54.8208 46.4691 54.5234 46.59 54.286C46.7601 53.9522 47.0106 53.799 47.3597 53.6957Z" fill="#072F55"/>
<path d="M50.5051 52.9718C51.0999 52.9757 51.7705 52.9198 52.3527 53.0464C52.6313 53.107 52.9225 53.2373 53.0758 53.4905C53.2368 53.7564 53.2013 54.0875 53.1131 54.3717C52.9816 54.7951 52.6817 55.0295 52.3008 55.2227C52.4955 55.5818 52.6807 55.941 52.8504 56.3126L52.0195 56.3169L51.8946 56.3046C51.6882 56.1173 51.5525 55.5898 51.4531 55.3284L50.9093 55.327C50.8424 55.6528 50.769 55.9773 50.6891 56.3002L49.8313 56.29C50.0332 55.178 50.2281 54.0682 50.5051 52.9718Z" fill="#FEFEFE"/>
<path d="M51.2485 53.7281C51.5031 53.7427 51.9029 53.7332 52.126 53.8606C52.241 53.9262 52.2596 53.98 52.2988 54.1019C52.2725 54.2554 52.2258 54.3385 52.1363 54.4651C51.8174 54.5782 51.4558 54.5368 51.1234 54.5258L51.2485 53.7281Z" fill="#072F55"/>
<path d="M54.3205 52.9893L56.804 52.9929L56.6667 53.772C56.1347 53.7571 55.6001 53.7639 55.0678 53.761L54.9818 54.2539L56.4607 54.2498L56.2702 55.0085C55.8218 55.0043 55.3164 54.9468 54.8752 55.0125L54.8109 55.104C54.7771 55.2377 54.7574 55.3632 54.7447 55.5003L54.7876 55.5503C55.2922 55.6096 55.8696 55.5345 56.3848 55.5269C56.3046 55.7887 56.2382 56.0474 56.1829 56.3157L53.6693 56.306C53.8751 55.1982 54.1235 54.0992 54.3205 52.9893Z" fill="#FEFEFE"/>
<path d="M40.2628 52.9049C40.8305 52.8647 41.2545 53.0088 41.7202 53.3133C41.5727 53.5196 41.4393 53.7312 41.3067 53.9472C41.1803 53.8716 41.0546 53.7858 40.9215 53.7226C40.7353 53.6343 40.3861 53.5731 40.195 53.6792C40.0809 53.7425 40.0752 53.7695 40.0472 53.8867C40.2201 54.2797 41.0203 54.306 41.3666 54.6274C41.4832 54.7358 41.561 54.8713 41.5626 55.0333C41.5657 55.3401 41.3235 55.7317 41.1182 55.946C40.8158 56.2614 40.3826 56.3067 39.9717 56.3193C39.4609 56.245 39.089 56.0755 38.6647 55.7963L39.1421 55.1641C39.368 55.3216 39.5982 55.4708 39.8679 55.5415C40.0717 55.5948 40.2899 55.6097 40.4751 55.4921C40.5815 55.4245 40.6126 55.382 40.6412 55.2617C40.4491 54.9335 39.794 54.9487 39.4687 54.7343C39.2657 54.6006 39.1672 54.4062 39.1202 54.1715C39.0688 53.9264 39.1224 53.671 39.2679 53.4671C39.5072 53.1253 39.8674 52.979 40.2628 52.9049Z" fill="#FEFEFE"/>
<path d="M62.8122 54.4581C63.1608 54.439 63.5125 54.4446 63.8616 54.4418C63.9291 54.7751 64.0221 55.0977 64.1183 55.4236C62.8399 55.4966 61.5492 55.4781 60.2682 55.5056L58.8326 55.5154L59.1591 54.5365C60.3771 54.5241 61.5949 54.498 62.8122 54.4581Z" fill="#FEFEFE"/>
<path d="M42.4148 52.9911L45.2384 52.9855C45.1758 53.2477 45.0945 53.5062 45.0191 53.765C44.7349 53.7379 44.4393 53.7485 44.1533 53.7455L43.7766 55.5052L43.6077 56.2922C43.3145 56.2713 43.0112 56.2874 42.7169 56.2895C42.8822 55.4411 43.0574 54.5946 43.2425 53.7503L42.231 53.7499C42.2771 53.493 42.3471 53.243 42.4148 52.9911Z" fill="#FEFEFE"/>
<path d="M55.176 11.3677C55.4073 11.3371 55.6254 11.3298 55.8503 11.4035C56.5159 11.6218 56.979 12.217 57.2832 12.8187C57.2497 13.0736 57.2201 13.329 57.1945 13.5847L56.4221 13.9617L56.3794 13.9371C56.4367 13.8461 56.4597 13.7585 56.4896 13.6562C56.463 13.5387 56.4588 13.538 56.3652 13.461C56.2869 13.5324 56.3023 13.6697 56.2912 13.7742C56.2627 13.7062 56.2353 13.6389 56.1985 13.5749C55.9233 13.0962 55.1329 12.6711 54.6178 12.512C54.744 12.0208 54.7291 11.6862 55.176 11.3677Z" fill="#FEFEFE"/>
<path d="M31.689 54.5145C33.3049 54.5398 34.9233 54.5209 36.5396 54.5251C36.4751 54.7939 36.4204 55.066 36.361 55.3362L31.5052 55.3376L31.689 54.5145Z" fill="#FEFEFE"/>
<path d="M53.3566 12.915C54.4203 12.9575 55.0673 13.44 55.8441 14.1112C55.7297 14.2647 55.6042 14.4046 55.4761 14.5465C55.3457 14.6238 55.2297 14.6722 55.0775 14.6896C54.5825 14.7458 53.9231 14.6302 53.5233 14.3156C53.3271 14.1612 53.1643 13.9321 53.1461 13.6769C53.128 13.4229 53.1969 13.1142 53.3566 12.915Z" fill="#FEFEFE"/>
<path d="M54.6209 13.7348L54.5489 13.7848L54.5073 13.7405C54.5962 13.6581 54.6976 13.6372 54.8203 13.6319C54.9478 13.6263 55.0314 13.6577 55.1217 13.7476C55.2249 13.8504 55.3017 14.0597 55.2832 14.2039C55.2672 14.3286 55.1898 14.4168 55.0895 14.4848C54.9143 14.6034 54.6259 14.5993 54.4326 14.5353C54.2783 14.4842 54.1384 14.3811 54.0832 14.2222C54.0117 14.0163 54.1139 13.8164 54.2183 13.6449C54.2404 13.8451 54.1432 14.0328 54.173 14.2502C54.2666 14.3693 54.304 14.364 54.4459 14.4039L54.5103 14.3657C54.5079 14.2849 54.5005 14.1955 54.5113 14.1155C54.5264 14.0028 54.5745 13.923 54.6717 13.8615C54.7316 13.8236 54.7918 13.7856 54.8604 13.8059C54.9482 13.9999 54.7742 14.2238 54.8528 14.3918C54.9729 14.3125 55.0222 14.2689 55.0931 14.1378C55.0951 14.028 55.0882 13.9482 55.01 13.8616C54.9028 13.743 54.7669 13.7511 54.6209 13.7348Z" fill="#072F55"/>
<path d="M54.3161 37.2147C54.6782 37.4499 55.2759 38.1895 55.6227 38.5447C56.8529 39.8051 59.4577 42.1563 60.113 43.6675C59.6809 43.3052 59.3256 42.8089 58.9603 42.3798C58.6125 41.9712 58.2469 41.589 57.8671 41.2105C57.5853 40.887 57.28 40.5844 56.9798 40.2781C57.26 40.9219 57.4872 41.5874 57.6592 42.268C57.1514 41.4167 57.0082 40.3082 56.3045 39.6038C56.2743 39.8142 56.2532 40.0197 56.1739 40.2184L56.1523 40.1777L56.1985 40.1933L56.1714 40.2169C56.1095 40.0807 56.1284 39.858 56.0878 39.7041L56.024 39.7027C55.8345 39.875 55.7167 40.1684 55.5745 40.3847C55.7086 39.9703 55.8277 39.5512 55.9315 39.1283C55.4731 38.6652 55.0697 38.1451 54.6116 37.6776C54.5946 37.8959 54.5821 38.1162 54.4906 38.3174L54.4377 38.3141C54.4812 37.926 54.4046 37.5886 54.3161 37.2147Z" fill="#FEFEFE"/>
<path d="M48.096 11.2274C48.1915 11.2204 48.288 11.2122 48.3838 11.2099C48.4963 11.2072 48.5985 11.2095 48.6788 11.2991C48.7794 11.4113 48.7816 11.525 48.7713 11.6662C48.7551 11.8887 48.7534 12.1107 48.75 12.3336L47.6993 12.4985C47.6547 12.4945 47.6447 12.4948 47.5947 12.4835C47.3676 12.4328 47.1509 12.3727 47.027 12.1627C47.003 12.0281 47.0141 11.939 47.0882 11.8234C47.3153 11.4688 47.7064 11.3214 48.096 11.2274Z" fill="#FEFEFE"/>
<path d="M32.536 32.588C32.6405 32.595 32.6503 32.5765 32.7305 32.6516C32.7329 32.684 32.7373 32.7247 32.7358 32.7583C32.715 33.2111 32.3582 34.3057 31.9868 34.5872C31.9235 34.6352 31.8567 34.6087 31.782 34.6032C31.6763 34.538 31.5483 34.4597 31.4815 34.351C31.2563 33.9844 31.4608 33.3699 31.5422 32.9857C31.8856 32.8714 32.2091 32.7435 32.536 32.588Z" fill="#EB8847"/>
<path d="M32.8805 36.7699C33.3448 36.8692 33.7976 36.987 34.2667 37.0699C34.4047 37.3602 34.6787 37.691 34.6676 38.0233L34.5836 38.0855L33.5403 38.2809C33.5266 38.2681 33.5128 38.2553 33.4993 38.2423C33.0694 37.8294 32.8922 37.3557 32.8805 36.7699Z" fill="#EB8847"/>
<path d="M37.8445 36.8141C37.9577 36.8099 38.0364 36.8078 38.1427 36.8513C38.2515 36.8958 38.2133 36.8617 38.2611 36.9723C38.2489 37.0254 38.2499 37.0317 38.2223 37.0888C37.9477 37.6576 37.2389 38.0302 36.6695 38.1973C36.5179 38.212 36.489 38.2324 36.3568 38.1476C36.208 37.829 36.344 37.4133 36.4035 37.0823C36.924 37.0571 37.3454 36.9696 37.8445 36.8141Z" fill="#EB8847"/>
<path d="M37.6134 32.0208C38.0266 32.013 38.5485 32.3156 38.9498 32.4457C38.9532 33.0208 38.9688 33.5982 38.9305 34.1723C38.8542 34.1666 38.8223 34.1535 38.7572 34.1081C38.3858 33.8493 37.6955 32.4857 37.6134 32.0208Z" fill="#EB8847"/>
<path d="M34.9917 30.5245C35.299 30.5519 35.8941 30.8118 36.1405 31.0036C36.23 31.0731 36.2602 31.1103 36.2719 31.2257C36.1533 31.3648 35.6385 31.4476 35.4449 31.5026C35.2305 31.5392 34.9964 31.5698 34.7782 31.5615C34.6212 31.5555 34.4372 31.523 34.332 31.3961C34.283 31.3369 34.2853 31.2752 34.2956 31.201C34.3351 30.9191 34.781 30.6708 34.9917 30.5245Z" fill="#EB8847"/>
<path d="M49.803 17.3996C50.4859 17.6456 52.2599 19.429 52.7262 20.0438C52.4813 19.983 52.2493 19.9191 52.0142 19.8258C51.4827 19.5102 51.0039 19.0639 50.5223 18.6744C50.6848 18.7631 50.9541 18.9473 51.1407 18.8998C51.1082 18.6179 50.0535 17.6868 49.803 17.3996Z" fill="#FEFEFE"/>
<path d="M52.5828 28.853L52.584 28.9013C52.6063 29.5388 52.4428 30.1672 52.4591 30.806C52.4658 31.0688 52.6283 31.5301 52.5084 31.7481C52.4378 31.8768 52.2667 32.1413 52.1277 32.1823C52.4296 31.6452 52.3422 31.2211 52.287 30.6351C52.1132 31.1119 51.9368 31.4221 51.565 31.7643C51.0719 32.1087 50.6495 32.3701 50.0782 32.5621C51.9997 31.2662 51.9362 31.0168 52.5828 28.853Z" fill="#FEFEFE"/>
<path d="M52.1698 25.7445C52.2269 25.8407 52.2207 25.7944 52.1992 25.9097C52.0619 26.6477 51.101 27.3616 50.5339 27.7634L50.5029 27.7144C50.9672 27.007 51.6871 26.4496 52.1698 25.7445Z" fill="#FEFEFE"/>
<path d="M49.7347 20.0673C49.7497 20.0692 49.7649 20.0699 49.7798 20.0732C49.9104 20.1013 50.4342 20.354 50.5017 20.4604L50.4396 20.6143C50.4908 20.6294 51.169 20.2566 51.296 20.2022C50.9483 20.6389 50.4546 20.9103 49.9922 21.2105C49.6493 21.4072 49.2617 21.5311 48.8918 21.6676C49.4585 21.3326 50.0528 21.0715 50.3168 20.428C50.1014 20.322 49.926 20.2125 49.7347 20.0673Z" fill="#FEFEFE"/>
<path d="M53.0384 32.8207C53.1863 32.9731 53.7005 34.2003 53.859 34.5164C53.9128 34.6238 53.9883 34.7402 53.9512 34.8564L53.7852 34.7465C53.6632 34.6296 53.5808 34.3469 53.5111 34.1837L53.4379 34.1573L53.3207 34.2663L53.2886 34.2361C53.3084 34.0109 53.3113 33.8965 53.1944 33.6949C53.1307 33.7222 53.0714 33.7429 53.0056 33.7633C52.9628 33.4802 53.0833 33.1799 53.0455 32.8744L53.0384 32.8207Z" fill="#FEFEFE"/>
<path d="M53.4961 25.6356L53.6646 25.6629L53.6793 25.7507C53.5386 26.2349 53.0951 26.6317 52.7193 26.9445L52.5759 26.9726C52.588 26.863 52.8421 26.644 52.9227 26.5432C53.1464 26.2637 53.3138 25.9428 53.4961 25.6356Z" fill="#FEFEFE"/>
<path d="M58.2905 30.3095C58.5341 29.711 58.7995 28.5338 59.455 28.2554C59.5908 28.1977 59.7357 28.2013 59.87 28.262C60.3928 28.4988 60.718 29.3747 60.9474 29.8599C61.5594 29.4929 62.2574 29.1124 62.9438 28.8989C65.3462 29.3694 67.6268 30.0497 69.8463 31.0888C70.2565 31.2809 70.888 31.5141 71.1416 31.902C71.4299 32.343 71.5756 32.9587 71.7518 33.4555C72.7629 36.3065 73.1378 38.8127 73.2048 41.8265C70.0394 41.8046 66.8739 41.8015 63.7084 41.8173C65.8919 38.4622 67.2949 35.3545 67.4585 31.2903C66.4415 31.1949 65.4558 31.1321 64.4499 31.3572L64.1378 32.148C64.6335 32.2323 65.4038 32.4104 65.7241 32.8265C65.8361 32.9719 65.8721 33.1433 65.837 33.3227C65.6704 34.1741 64.3992 34.8432 63.8253 35.4378C64.1181 36.0151 64.6221 36.8252 64.4168 37.4939C64.3618 37.6728 64.2485 37.8096 64.078 37.8886C63.4988 38.1571 62.5202 37.8366 61.9476 37.6657C61.7152 38.2422 61.3381 39.5946 60.7143 39.8073C60.5684 39.8569 60.4506 39.8347 60.3226 39.7558C59.6625 39.3486 59.2356 38.3453 58.8021 37.7201C58.4166 37.8407 57.399 38.3575 57.041 38.1707C56.7338 38.0104 56.2572 37.6504 56.1594 37.3016C55.9538 36.5686 57.1233 35.8892 56.2232 35.3277C55.7708 35.0455 54.924 34.5587 54.8048 33.9808C54.7727 33.8254 54.8126 33.6831 54.9035 33.5553C55.2531 33.0635 56.033 32.8202 56.5205 32.4753C56.2178 31.9661 55.6308 31.2081 55.7898 30.5871C55.8265 30.4379 55.9234 30.3105 56.0573 30.2351C56.6403 29.9094 57.6731 30.1876 58.2905 30.3095Z" fill="#EB8847"/>
<path d="M59.5598 31.2957C61.0935 31.0606 62.5266 32.1153 62.758 33.6496C62.9895 35.1837 61.9313 36.6143 60.3967 36.8422C58.867 37.0694 57.4421 36.0154 57.2114 34.4864C56.9808 32.9572 58.0312 31.5299 59.5598 31.2957Z" fill="#072F55"/>
<path d="M59.6026 32.1882C60.6182 31.9818 61.6087 32.6379 61.8151 33.6535C62.0215 34.6692 61.3655 35.6598 60.3499 35.8662C59.3342 36.0726 58.3435 35.4166 58.1371 34.4009C57.9307 33.3852 58.5868 32.3944 59.6026 32.1882Z" fill="#EB8847"/>
<path d="M59.741 32.8253C60.1757 32.7423 60.6215 32.8992 60.9084 33.2361C61.1952 33.5732 61.2789 34.0383 61.1275 34.4541C60.9761 34.87 60.613 35.1724 60.1766 35.2462C59.5119 35.3584 58.8807 34.9147 58.7613 34.2513C58.6419 33.5878 59.0788 32.9518 59.741 32.8253Z" fill="#072F55"/>
<path d="M61.9894 20.9539C62.0064 20.9576 62.024 20.9598 62.0407 20.9649C62.5549 21.1191 63.1043 21.6682 63.5263 22.0019C66.2394 24.1477 68.4753 26.6444 70.1548 29.6825C68.4093 28.8541 66.5545 28.2769 64.6894 27.7873C64.0359 27.5824 63.3406 27.4563 62.6705 27.319C61.2456 27.0348 59.8137 26.7869 58.3762 26.5754C57.727 26.4795 55.2625 26.3037 54.8533 26.0957C54.7467 26.0416 54.7216 26.0052 54.6902 25.8933C55.3949 25.194 56.4 25.2331 57.2081 24.7745C57.8659 24.4014 58.3536 23.7966 58.9394 23.3302C59.393 22.9692 59.9508 22.7511 60.4369 22.4384C61.0287 22.0577 61.5088 21.4609 61.9894 20.9539Z" fill="#EB8847"/>
<path d="M27.9753 60.103C28.1618 60.1264 29.7018 61.7444 29.94 61.9628C30.5497 62.5218 31.2152 63.0251 31.8758 63.5217C36.6855 67.1373 42.6293 69.2569 48.6817 68.9866C55.4636 68.6837 62.6513 65.7349 67.2712 60.6767C67.4771 60.8594 67.6693 61.0644 67.8649 61.2585C67.7232 61.4298 67.5679 61.5914 67.4178 61.7554C66.9429 62.2307 66.4673 62.7121 65.966 63.1594C64.7479 64.2463 63.3461 65.1892 61.9378 66.0101C57.1415 68.8057 51.7517 70.1752 46.1972 69.8412C39.0104 69.4089 32.0234 65.8589 27.2603 60.4874C27.4996 60.3609 27.7379 60.2327 27.9753 60.103Z" fill="#072F55"/>
<path d="M56.7816 18.2421C57.3177 18.323 58.0055 18.6624 58.4765 18.9356C57.4182 19.3621 56.4064 19.9423 55.2463 20.0531C54.9464 19.9918 53.6965 19.7214 53.5473 19.5124C53.8568 19.338 54.3646 19.5391 54.7121 19.4799C55.0867 19.4161 55.283 19.0588 55.4876 18.7754C56.01 18.677 56.3581 18.5723 56.7816 18.2421Z" fill="#EB8847"/>
<path d="M57.1067 14.8912C58.0421 15.1932 58.9558 15.5589 59.8413 15.9857C60.2734 16.1892 60.6953 16.4505 61.1389 16.6234C61.2303 16.6592 61.2308 16.6572 61.3013 16.7368C61.1993 16.8007 61.0634 16.8331 60.9494 16.8735C60.7354 16.9443 60.6316 17.0499 60.4835 17.2143C59.3771 16.686 58.2494 16.2062 57.141 15.6825L57.1067 14.8912Z" fill="#072F55"/>
</g>
<defs>
<clipPath id="clip0_71_190">
<rect width="96" height="96" fill="white" transform="translate(0 -8)"/>
</clipPath>
</defs>
</svg>
